<svg id="Logo" xmlns="http://www.w3.org/2000/svg" width="19" height="24" viewBox="0 0 19 24">
  <path id="Logo_Color" data-name="Logo Color" d="M11.327,0,8.488,9.624A3.9,3.9,0,0,1,5.649,11.5c-1.425,0-1.59-1.163-1.208-2.555L7.083,0h-4.1L.365,8.844C-.59,11.994.253,15,3.794,15a5.891,5.891,0,0,0,4.5-2.37A2.682,2.682,0,0,0,11.214,15c3.2,0,5.846-3.237,7.786-7.6a2.771,2.771,0,0,0-1.6-.809c-1.546,3.237-3.2,5.462-4.469,5.462-.794,0-.79-.87-.553-1.744L15.43,0Z" transform="translate(0 5)" fill="#ffffff"/>
</svg>
