<svg xmlns="http://www.w3.org/2000/svg" width="43" height="15" viewBox="0 0 43 15">
  <path id="Logo_Color" data-name="Logo Color" d="M32.366,9.319l.92-2.955c.431-1.336.46-2.9-1.064-2.9-1.207,0-2.184,1.051-2.845,2.13L26.56,14.745h-4.2L25,6.188c.373-1.293.284-2.723-1.146-2.723-1.207,0-2.156,1.051-2.816,2.1L18.2,14.745H14l.232-.75A5.291,5.291,0,0,1,11.215,15,2.682,2.682,0,0,1,8.292,12.63,5.891,5.891,0,0,1,3.794,15C.253,15-.59,11.994.365,8.844L2.979,0h4.1L4.442,8.948C4.06,10.339,4.225,11.5,5.649,11.5A3.9,3.9,0,0,0,8.488,9.625L11.326,0h4.1L12.376,10.308c-.238.874-.24,1.744.554,1.744.746,0,1.63-.776,2.547-2.077L18.483.256h4.2L22.1,2.1A6.1,6.1,0,0,1,26.445,0a3,3,0,0,1,3.191,2.358A6.065,6.065,0,0,1,34.234,0c3.161,0,4.455,2.5,3.449,5.711L36.25,10.4c-.266.9-.27,1.706.542,1.706,1.22,0,2.734-1.864,4.2-4.653l.365-.716a2.879,2.879,0,0,1,1.639.8C41.017,11.818,38.344,15,35.068,15,31.7,15,31.619,11.733,32.366,9.319Z" transform="translate(0)" fill="#3f3b3b"/>
</svg>
