<svg id="Logo" xmlns="http://www.w3.org/2000/svg" width="59.226" height="19.254" viewBox="0 0 59.226 19.254">
  <path id="dash" d="M20.293,19.254A4.744,4.744,0,0,1,17.16,18.24a3.5,3.5,0,0,1-1.213-2.827v-1.36a3.071,3.071,0,0,1,1.08-2.494,4.6,4.6,0,0,1,3-.893h4.747V10.08a1.693,1.693,0,0,0-.454-1.373,2.964,2.964,0,0,0-1.733-.36c-1.468,0-3.361.072-5.627.213l-.373-2.693a39.9,39.9,0,0,1,6.96-.667A6.052,6.052,0,0,1,27.52,6.294c.849.725,1.28,2.008,1.28,3.813v8.826H25.627l-.4-2.027A6.366,6.366,0,0,1,20.293,19.254Zm.88-6.16a1.123,1.123,0,0,0-1.28,1.254v.533c0,.92.529,1.387,1.573,1.387a5.511,5.511,0,0,0,3.307-1.307V13.093ZM4.72,19.254a3.946,3.946,0,0,1-3.6-1.787A10.236,10.236,0,0,1,0,12.133c0-2.548.417-4.36,1.24-5.386A4.662,4.662,0,0,1,5.093,5.2,7.73,7.73,0,0,1,9.44,6.4c-.089-.975-.133-1.909-.133-2.773V0h4V18.933H10.133l-.319-1.947A6.373,6.373,0,0,1,4.72,19.254ZM6.453,8.186a2.073,2.073,0,0,0-1.84.747,6.483,6.483,0,0,0-.507,3.173,6.4,6.4,0,0,0,.493,3.08,1.9,1.9,0,0,0,1.72.76,4.05,4.05,0,0,0,1.427-.227,9.078,9.078,0,0,0,1.561-.841V8.693A11.414,11.414,0,0,0,6.453,8.186Zm31.094,11.04a36.6,36.6,0,0,1-5.974-.454l.24-2.613c.63.052,2.182.079,4.613.079a12.286,12.286,0,0,0,2.72-.186.8.8,0,0,0,.64-.826.933.933,0,0,0-.666-.907c-.145-.054-.558-.171-1.227-.347l-3.334-.88a4.541,4.541,0,0,1-2.534-1.454,4.342,4.342,0,0,1-.693-2.6,3.377,3.377,0,0,1,1.28-2.986A7.781,7.781,0,0,1,36.829,5.2h.184a35.445,35.445,0,0,1,6.16.533l-.266,2.56c-2.208-.035-3.94-.053-5.146-.053a9.887,9.887,0,0,0-2.12.133c-.292.088-.44.348-.44.773a1.935,1.935,0,0,0,.014.24.528.528,0,0,0,.067.2,1.529,1.529,0,0,0,.094.147.545.545,0,0,0,.147.12,1.165,1.165,0,0,0,.173.094l.108.042.132.051a2.413,2.413,0,0,0,.28.093l.225.058.135.035c.18.047.3.077.387.094l3.413.933a5.138,5.138,0,0,1,2.52,1.333,3.765,3.765,0,0,1,.761,2.561c0,1.592-.462,2.682-1.373,3.24A9.7,9.7,0,0,1,37.547,19.227Zm12.693-.292h-4V0h4.027V4.613a17.086,17.086,0,0,1-.24,2.8A8.929,8.929,0,0,1,55.493,5.2a3.8,3.8,0,0,1,2.774.947,3.723,3.723,0,0,1,.959,2.759V18.932H55.254V10.16a2.005,2.005,0,0,0-.281-1.24,1.3,1.3,0,0,0-1.026-.333A8.388,8.388,0,0,0,50.24,9.814v9.12Z" transform="translate(0 0)" fill="#ffffff"/>
</svg>
