<svg xmlns="http://www.w3.org/2000/svg" width="34.839" height="11.231" viewBox="0 0 34.839 11.231">
  <path id="dash" d="M11.937,11.231a2.806,2.806,0,0,1-1.843-.591,2.032,2.032,0,0,1-.714-1.649V8.2a1.785,1.785,0,0,1,.635-1.455,2.72,2.72,0,0,1,1.765-.521h2.792V5.88a.983.983,0,0,0-.267-.8,1.756,1.756,0,0,0-1.02-.21c-.864,0-1.977.042-3.31.124L9.757,3.422a23.661,23.661,0,0,1,4.094-.389,3.582,3.582,0,0,1,2.337.638A2.8,2.8,0,0,1,16.941,5.9v5.149H15.074l-.235-1.182A3.757,3.757,0,0,1,11.937,11.231Zm.518-3.594a.658.658,0,0,0-.753.731V8.68c0,.537.311.809.925.809a3.258,3.258,0,0,0,1.945-.762V7.638ZM2.776,11.231A2.327,2.327,0,0,1,.659,10.189,5.93,5.93,0,0,1,0,7.078,5.134,5.134,0,0,1,.73,3.935,2.754,2.754,0,0,1,3,3.033a4.576,4.576,0,0,1,2.557.7C5.5,3.164,5.475,2.62,5.475,2.116V0H7.827V11.044H5.961L5.773,9.909A3.762,3.762,0,0,1,2.776,11.231ZM3.8,4.775a1.224,1.224,0,0,0-1.082.436,3.754,3.754,0,0,0-.3,1.851,3.708,3.708,0,0,0,.29,1.8A1.122,1.122,0,0,0,3.718,9.3a2.4,2.4,0,0,0,.839-.132,5.355,5.355,0,0,0,.918-.49V5.071A6.765,6.765,0,0,0,3.8,4.775Zm18.291,6.44a21.705,21.705,0,0,1-3.514-.265l.141-1.524c.37.03,1.283.046,2.714.046a7.287,7.287,0,0,0,1.6-.109.466.466,0,0,0,.376-.482.545.545,0,0,0-.392-.529c-.086-.032-.328-.1-.722-.2l-1.961-.513a2.676,2.676,0,0,1-1.49-.848,2.517,2.517,0,0,1-.408-1.517,1.963,1.963,0,0,1,.753-1.742,4.609,4.609,0,0,1,2.48-.5h.108a21.021,21.021,0,0,1,3.623.311l-.157,1.494c-1.3-.02-2.317-.031-3.027-.031a5.864,5.864,0,0,0-1.247.078c-.172.051-.259.2-.259.451a1.12,1.12,0,0,0,.008.14.306.306,0,0,0,.039.117.891.891,0,0,0,.055.086.32.32,0,0,0,.086.07A.687.687,0,0,0,21,5.8l.064.025.078.03a1.428,1.428,0,0,0,.165.054l.132.034.079.021c.106.027.178.045.228.055l2.008.544a3.03,3.03,0,0,1,1.482.778,2.184,2.184,0,0,1,.447,1.494,2.04,2.04,0,0,1-.808,1.89A5.749,5.749,0,0,1,22.087,11.216Zm7.466-.171H27.2V0h2.369V2.691a9.886,9.886,0,0,1-.141,1.633,5.277,5.277,0,0,1,3.216-1.291,2.248,2.248,0,0,1,1.632.552,2.161,2.161,0,0,1,.564,1.61v5.848H32.5V5.927a1.162,1.162,0,0,0-.165-.723.766.766,0,0,0-.6-.194,4.963,4.963,0,0,0-2.181.716v5.32Z" fill="#c4c4c4"/>
</svg>
