<svg id="App_Store" data-name="App Store" xmlns="http://www.w3.org/2000/svg" width="126" height="47" viewBox="0 0 126 47">
  <g fill="none" stroke="#006eff" stroke-miterlimit="10" stroke-width="1">
    <rect width="126" height="47" rx="10" stroke="none"/>
    <rect x="0.5" y="0.5" width="125" height="46" rx="9.5" fill="none"/>
  </g>
  <path id="Content" d="M48.482,25.054H46.625V13.005h1.8v1.506h.034a3.222,3.222,0,0,1,2.779-1.6l.1,0c2.316,0,3.812,1.814,3.812,4.622s-1.483,4.621-3.778,4.621c-.053,0-.107,0-.16,0a3.067,3.067,0,0,1-2.688-1.589h-.043v4.484h0Zm-.007-7.521c0,1.822.955,3.046,2.375,3.046,1.453,0,2.393-1.2,2.393-3.046s-.94-3.038-2.393-3.038C49.43,14.495,48.475,15.716,48.475,17.533Zm-9.958,7.521H36.66V13.005h1.8v1.506h.034a3.222,3.222,0,0,1,2.779-1.6l.1,0c2.316,0,3.812,1.814,3.812,4.622S43.7,22.153,41.41,22.153c-.053,0-.107,0-.16,0a3.067,3.067,0,0,1-2.688-1.589h-.043v4.484h0Zm-.007-7.521c0,1.822.955,3.046,2.375,3.046,1.453,0,2.393-1.2,2.393-3.046s-.94-3.038-2.393-3.038C39.465,14.495,38.51,15.716,38.51,17.533ZM59.837,18.6h1.9c.137,1.221,1.329,2.04,2.968,2.04,1.561,0,2.694-.806,2.694-1.919,0-.963-.685-1.542-2.289-1.937L63.5,16.4c-2.277-.55-3.338-1.614-3.338-3.347,0-2.128,1.858-3.614,4.518-3.614,2.62,0,4.422,1.453,4.484,3.614H67.289c-.111-1.226-1.119-1.987-2.633-1.987-1.485,0-2.522.764-2.522,1.859,0,.876.653,1.394,2.255,1.79l1.368.336c2.528.6,3.606,1.627,3.606,3.443,0,2.331-1.837,3.778-4.794,3.778C61.813,22.266,59.955,20.827,59.837,18.6Zm31.409-1.023c0-2.844,1.645-4.682,4.19-4.682,2.517,0,4.081,1.712,4.081,4.466V18H93.122v.112a2.358,2.358,0,0,0,2.347,2.566l.088,0c.064.006.129.009.193.009a2.036,2.036,0,0,0,1.9-1.283h1.765c-.248,1.633-1.852,2.772-3.9,2.772C92.881,22.172,91.246,20.41,91.246,17.575ZM93.8,15.068a2.313,2.313,0,0,0-.674,1.63h4.527a2.176,2.176,0,0,0-2.173-2.3h-.062A2.281,2.281,0,0,0,93.8,15.068ZM76.093,17.533a4.867,4.867,0,0,1,1.166-3.388,4.539,4.539,0,0,1,6.26,0,4.871,4.871,0,0,1,1.163,3.388c0,2.861-1.646,4.639-4.295,4.639S76.093,20.394,76.093,17.533Zm1.894,0c0,1.945.9,3.106,2.4,3.106s2.4-1.161,2.4-3.106-.9-3.108-2.4-3.108S77.987,15.587,77.987,17.533ZM74.056,22.11c-1.833,0-2.548-.685-2.548-2.444V14.477H70.191V13.005h1.317V10.863h1.867v2.142H75.1v1.472H73.374v4.991c0,.776.35,1.137,1.1,1.137a5.811,5.811,0,0,0,.612-.043v1.463a5.175,5.175,0,0,1-.939.086Zm-47.6-.05h-2L28.94,9.641h2.083l4.483,12.417H33.466L32.331,18.7H27.6l-1.137,3.357h0Zm1.627-4.906h3.752L29.99,11.706h-.051Zm59.985,4.9H86.215V13.005h1.772v1.541h.043a2.157,2.157,0,0,1,2.1-1.636h.095a2.863,2.863,0,0,1,.625.069v1.738a2.593,2.593,0,0,0-.755-.112h-.08l-.077,0a1.872,1.872,0,0,0-1.858,2.084v5.369h0ZM2.28,19.305a13.868,13.868,0,0,1-2.1-5.248A8.606,8.606,0,0,1,.918,8.329,5.343,5.343,0,0,1,5.391,5.6h.061a5.984,5.984,0,0,1,2.191.566A4.113,4.113,0,0,0,9,6.559a4.211,4.211,0,0,0,1.3-.386,6.983,6.983,0,0,1,2.509-.637,3.409,3.409,0,0,1,.349.018,5.088,5.088,0,0,1,3.992,2.158A4.923,4.923,0,0,0,14.8,11.864a4.776,4.776,0,0,0,2.92,4.4A10.93,10.93,0,0,1,16.2,19.355C15.232,20.8,14.314,22,12.877,22.025H12.8a3.77,3.77,0,0,1-1.6-.4,4.4,4.4,0,0,0-1.908-.452,4.674,4.674,0,0,0-2.008.467,4.211,4.211,0,0,1-1.571.418H5.634C4.207,22.059,3.093,20.467,2.28,19.305ZM92.839,6.348h-.055a2.046,2.046,0,0,1-2.025-2.326,2.076,2.076,0,0,1,2.057-2.352h.019c1.257,0,2.009.849,2.009,2.27v.31h-3.18V4.3a1.19,1.19,0,0,0,1.186,1.29h.013a1.019,1.019,0,0,0,.129.008,1.081,1.081,0,0,0,.943-.554h.855a1.826,1.826,0,0,1-1.951,1.3ZM92,2.765a1.154,1.154,0,0,0-.337.829h2.274a1.086,1.086,0,0,0-1.084-1.166h-.039A1.146,1.146,0,0,0,92,2.765ZM70.256,6.026a2.121,2.121,0,0,1-1-2.019,2.133,2.133,0,1,1,4.247,0,2.134,2.134,0,0,1-3.25,2.019Zm-.079-2.019c0,.985.44,1.55,1.207,1.55s1.208-.565,1.208-1.55-.44-1.547-1.208-1.547S70.177,3.025,70.177,4.008ZM52.244,6.026a2.121,2.121,0,0,1-1-2.019,2.134,2.134,0,1,1,4.248,0,2.134,2.134,0,0,1-3.25,2.019Zm-.08-2.019c0,.985.44,1.55,1.208,1.55s1.208-.565,1.208-1.55-.44-1.547-1.208-1.547S52.164,3.025,52.164,4.008ZM32.707,6.026a2.146,2.146,0,0,1-1-2.019,2.133,2.133,0,1,1,4.246,0,2.133,2.133,0,0,1-3.249,2.019Zm-.079-2.019c0,.985.44,1.55,1.207,1.55s1.208-.565,1.208-1.55-.44-1.547-1.208-1.547S32.628,3.025,32.628,4.008ZM56.881,5.994a1.363,1.363,0,0,1-.452-1.007c0-.8.595-1.276,1.675-1.344l1.22-.07V3.184c0-.48-.328-.744-.923-.744-.5,0-.84.183-.938.5H56.6c.09-.771.812-1.269,1.84-1.269,1.122,0,1.766.552,1.766,1.513V6.26h-.856V5.628h-.07A1.508,1.508,0,0,1,58,6.337l-.07,0c-.047,0-.094.007-.14.007A1.357,1.357,0,0,1,56.881,5.994Zm1.344-1.7c-.616.041-.9.247-.9.649s.328.642.835.642a1.049,1.049,0,0,0,.106.005,1.063,1.063,0,0,0,1.06-.99V4.226Zm5.021,2.038c-1.153,0-1.869-.892-1.869-2.327,0-1.412.734-2.325,1.869-2.325l.068,0a1.48,1.48,0,0,1,1.313.792h.067V0h.889V6.26h-.851V5.549H64.66a1.566,1.566,0,0,1-1.355.787Zm-.951-2.327c0,.958.45,1.529,1.2,1.529s1.212-.584,1.212-1.525-.464-1.53-1.212-1.53S62.294,3.066,62.294,4.008ZM82.654,5.07V2.527H81.94V1.778h.715V.636h.889V1.778h.976v.749h-.976V4.842c0,.469.2.679.637.679a2.9,2.9,0,0,0,.338-.021v.741a2.972,2.972,0,0,1-.483.045C83.055,6.286,82.654,5.934,82.654,5.07Zm3.967,1.192h-.888V0h.881V2.481h.07a1.388,1.388,0,0,1,1.26-.811c.038,0,.076,0,.113,0s.054,0,.081,0a1.483,1.483,0,0,1,1.47,1.68V6.26h-.89V3.573c0-.709-.333-1.084-.963-1.084-.029,0-.058,0-.086,0a1.062,1.062,0,0,0-.747.311,1.051,1.051,0,0,0-.3.834V6.26h0Zm-11.036,0H74.7v-4.5h.855v.715h.067a1.348,1.348,0,0,1,1.233-.806c.037,0,.074,0,.111,0s.075,0,.112,0a1.465,1.465,0,0,1,1.447,1.679V6.26h-.888V3.569c0-.728-.318-1.083-.972-1.083h-.049a1.032,1.032,0,0,0-1.026,1.141V6.26h0Zm-30.816,0h-.887v-4.5h.855v.715H44.8a1.348,1.348,0,0,1,1.233-.806c.037,0,.074,0,.111,0s.075,0,.112,0a1.464,1.464,0,0,1,1.447,1.679V6.26h-.888V3.569c0-.728-.318-1.083-.972-1.083H45.8a1.032,1.032,0,0,0-1.026,1.141V6.26h0Zm-6.018,0H37.84L36.6,1.758h.9l.806,3.436h.067L39.3,1.758h.852l.926,3.436h.07l.8-3.436h.888L41.6,6.26H40.68l-.931-3.317h-.07L38.752,6.26h0Zm11.259,0h-.888V0h.889V6.26h0ZM25.7,6.26V.294h2.156c.063,0,.126-.007.189-.007a2.639,2.639,0,0,1,2.618,2.972c0,1.907-1.023,3-2.807,3Zm.927-.843h1.125c.037,0,.074,0,.111,0a1.877,1.877,0,0,0,1.857-2.15,1.879,1.879,0,0,0-1.862-2.136l-.105,0H26.627ZM8.829,5.3A4.6,4.6,0,0,1,9.973,1.943,4.941,4.941,0,0,1,13.181.284a4.847,4.847,0,0,1-1.115,3.49A4.08,4.08,0,0,1,8.87,5.3Z" transform="translate(12.972 11.437)" fill="#006eff"/>
</svg>
