<svg xmlns="http://www.w3.org/2000/svg" width="40" height="50" viewBox="0 0 40 50">
  <path data-name="Combined Shape" d="M10,46.667a3.336,3.336,0,0,1-3.333-3.333H8.333a1.664,1.664,0,0,0,1.473,1.654L10,45H36.666a1.667,1.667,0,0,0,1.656-1.473l.011-.194v-35a1.665,1.665,0,0,0-1.472-1.655l-.195-.012H35V5h1.667A3.336,3.336,0,0,1,40,8.333v35a3.335,3.335,0,0,1-3.333,3.333Zm-6.666-5A3.337,3.337,0,0,1,0,38.334v-35A3.337,3.337,0,0,1,3.333,0H30a3.337,3.337,0,0,1,3.333,3.333v35A3.337,3.337,0,0,1,30,41.667ZM1.678,3.139l-.012.194v35a1.665,1.665,0,0,0,1.473,1.655L3.333,40H30a1.667,1.667,0,0,0,1.656-1.473l.01-.194v-35a1.665,1.665,0,0,0-1.472-1.655L30,1.667H3.333A1.665,1.665,0,0,0,1.678,3.139ZM15.972,28.467V21.978H9.864a1.528,1.528,0,1,1,0-3.055h6.108V13.2a1.528,1.528,0,1,1,3.056,0v5.726h6.107a1.528,1.528,0,1,1,0,3.055H19.028v6.489a1.528,1.528,0,1,1-3.056,0Z" transform="translate(0 1.667)" fill="#3F3B3B"/>
</svg>
