<svg id="Add_Button" data-name="Add Button" xmlns="http://www.w3.org/2000/svg" width="50" height="50" viewBox="0 0 50 50">
  <rect id="Menus_Vertical_Pieces_Border_Botton_background" data-name="Menus/Vertical/Pieces/Border Botton background" width="50" height="50" fill="none"/>
  <g transform="translate(16.667 16.667)">
    <path data-name="Icon Color" d="M6.944,15.274v-5.9H1.393a1.389,1.389,0,1,1,0-2.777H6.944V1.393a1.389,1.389,0,1,1,2.778,0V6.6h5.552a1.389,1.389,0,1,1,0,2.777H9.723v5.9a1.389,1.389,0,1,1-2.778,0Z" fill="#fff" opacity="0.642"/>
  </g>
  <path id="Rectangle" d="M35.9,48.959H31.732V47.917H35.9v1.041Zm-6.25,0H25.481V47.917h4.166v1.041Zm-6.249,0H19.231V47.917H23.4v1.041Zm-6.25,0H12.982V47.917h4.166v1.041Zm20.942-.167h0l-.212-1.019.51-.106a11.889,11.889,0,0,0,2.831-.973l.467-.23.46.935-.468.23A12.919,12.919,0,0,1,38.6,48.686l-.509.106Zm-27.3-.013h0l-.508-.109a12.955,12.955,0,0,1-3.073-1.077l-.466-.232.466-.932.466.232a11.9,11.9,0,0,0,2.826.99l.509.11-.218,1.017Zm33.262-2.645h0l-.681-.788.394-.34a12.04,12.04,0,0,0,2.006-2.226l.3-.427.854.6-.3.428a13.1,13.1,0,0,1-2.179,2.418l-.393.34ZM4.875,46.109h0l-.393-.341A13.091,13.091,0,0,1,2.31,43.343l-.3-.428.857-.593.3.428a12.068,12.068,0,0,0,2,2.231l.394.342-.683.785ZM47.962,40.97h0l-.975-.362.182-.488a11.951,11.951,0,0,0,.683-2.915l.054-.518,1.036.109-.054.518a12.993,12.993,0,0,1-.743,3.17l-.182.487ZM.989,40.951h0l-.181-.487a12.961,12.961,0,0,1-.739-3.172l-.053-.517,1.036-.108.053.518A11.961,11.961,0,0,0,1.784,40.1l.181.488-.975.362Zm47.969-6.3H47.917V30.488h1.042v4.166Zm-47.917-.08H0V30.41H1.042v4.165Zm47.917-6.171H47.917V24.239h1.042V28.4ZM1.042,28.327H0V24.159H1.042v4.166Zm47.917-6.171H47.917V17.989h1.042v4.166Zm-47.917-.08H0V17.91H1.042v4.165Zm47.917-6.171H47.917v-2.9c0-.243-.008-.489-.022-.729l-.032-.52,1.04-.064.032.52c.016.266.024.533.024.793v2.9Zm-47.917-.08H0V13.021c0-.3.01-.591.029-.875l.035-.52L1.1,11.7l-.034.519c-.018.272-.027.543-.027.806v2.8Zm46.467-5.96h0L47.35,9.37a11.949,11.949,0,0,0-1.263-2.714l-.278-.442.882-.554.277.441a12.987,12.987,0,0,1,1.373,2.952l.159.5-.992.317Zm-46.03-.1h0L.489,9.436l.162-.494A12.974,12.974,0,0,1,2.052,6l.28-.439.878.563-.281.438a11.941,11.941,0,0,0-1.287,2.7l-.163.493Zm43.055-5.1h0L44.154,4.3a12.033,12.033,0,0,0-2.418-1.767l-.456-.253.505-.91.456.252A13.056,13.056,0,0,1,44.87,3.547l.379.357-.715.758ZM4.492,4.593h0L3.784,3.83l.382-.354a13.1,13.1,0,0,1,2.643-1.9l.457-.248.5.915-.457.248A12.055,12.055,0,0,0,4.874,4.238l-.381.354ZM39.414,1.542h0l-.5-.128a12,12,0,0,0-2.973-.372h-.52V0h.52a13.077,13.077,0,0,1,3.231.4l.5.129-.258,1.008ZM9.578,1.532h0L9.323.522,9.829.395A13.059,13.059,0,0,1,12.978,0h.643V1.042H12.98a12.025,12.025,0,0,0-2.9.362l-.5.127Zm22.793-.49H28.2V0h4.166V1.041Zm-6.25,0H21.954V0h4.166V1.041Zm-6.249,0H15.7V0h4.167V1.041Z" transform="translate(0.521 0.521)" fill="#fff" opacity="0.642"/>
</svg>
