<svg data-name="Icon/Alert Fill" xmlns="http://www.w3.org/2000/svg" width="24" height="24" viewBox="0 0 24 24">
  <path data-name="Icon Color" d="M12,24A12,12,0,0,1,3.515,3.515,12,12,0,1,1,20.485,20.485,11.922,11.922,0,0,1,12,24Zm-.082-8.159a1.776,1.776,0,1,0,1.89,1.772A1.836,1.836,0,0,0,11.918,15.842ZM11.918,5a1.928,1.928,0,0,0-1.356.684A1.929,1.929,0,0,0,10.009,7.1l.419,4.439a2.808,2.808,0,0,0,1.981,2.382,1.224,1.224,0,0,1-.467.114h1.13a2.81,2.81,0,0,1-.662-.114,1.508,1.508,0,0,0,.881-1.134L13.828,7.1a1.934,1.934,0,0,0-.554-1.416A1.931,1.931,0,0,0,11.918,5Z" fill="#3f3b3b"/>
</svg>
