<svg xmlns="http://www.w3.org/2000/svg" width="24" height="24" viewBox="0 0 24 24">
  <g id="Icon_Alert" data-name="Icon/Alert" transform="translate(0 0)">
    <path data-name="Icon Color" d="M3.2,23.886a3.225,3.225,0,0,1-2.225-.861,2.832,2.832,0,0,1,0-4.164A3.226,3.226,0,0,1,3.2,18a3.227,3.227,0,0,1,2.226.861,2.831,2.831,0,0,1,0,4.164A3.227,3.227,0,0,1,3.2,23.886ZM3.743,15H3.266c.072,0,.147-.01.225-.022a3.017,3.017,0,0,1-2.626-2.7l-.832-8.8A3.166,3.166,0,0,1,.906,1.093,3.163,3.163,0,0,1,3.2,0,3.164,3.164,0,0,1,5.5,1.094a3.163,3.163,0,0,1,.872,2.391l-.893,9.443A2.438,2.438,0,0,1,3.49,14.979c.081.009.166.016.253.02Z" transform="translate(9.297)" fill="#3f3b3b"/>
  </g>
</svg>
