<svg id="Icon_Arrows_Thin_Up" data-name="Icon/Arrows/Thin/Up" xmlns="http://www.w3.org/2000/svg" width="24" height="24" viewBox="0 0 24 24">
  <path data-name="Icon Color" d="M8.351,23.54l0-.061V1.782L.891,9.239A.523.523,0,0,1,.2,9.282L.153,9.239A.521.521,0,0,1,.11,8.55L.153,8.5,8.5.153,8.51.144,8.516.138l0,0L8.526.129l0,0L8.536.121l0,0L8.546.113l0,0L8.556.1h0L8.566.1l0,0L8.576.09l0,0L8.586.084l0,0,.007,0,0,0,.006,0,.006,0,0,0,.008,0h0l.01-.005h0a.521.521,0,0,1,.6.1h0L17.586,8.5a.522.522,0,0,1-.688.781l-.049-.043L9.392,1.782v21.7a.522.522,0,0,1-1.04.061Z" transform="translate(3)" fill="#3f3b3b"/>
</svg>
