<svg xmlns="http://www.w3.org/2000/svg" width="24.13" height="24" viewBox="0 0 24.13 24">
  <g id="Icon_Arrows_Thin_Left" data-name="Icon/Arrows/Thin/Left" transform="translate(0.13)">
    <path data-name="Icon Color" d="M-8.351,23.54l0-.061V1.782L-.891,9.239A.523.523,0,0,0-.2,9.282l.049-.043A.521.521,0,0,0-.11,8.55L-.153,8.5-8.5.153-8.51.144-8.516.138l0,0L-8.526.129l0,0L-8.536.121l0,0L-8.546.113l0,0L-8.556.1h0L-8.566.1l0,0L-8.576.09l0,0L-8.586.084l0,0-.007,0,0,0-.006,0-.006,0,0,0-.008,0h0l-.01-.005h0A.519.519,0,0,0-8.87,0a.52.52,0,0,0-.368.152h0L-17.586,8.5a.521.521,0,0,0,0,.738.521.521,0,0,0,.688.043l.049-.043,7.457-7.457v21.7A.522.522,0,0,0-8.87,24,.523.523,0,0,0-8.351,23.54Z" transform="translate(-0.13 3.13) rotate(-90)" fill="#3f3b3b"/>
  </g>
</svg>
