<svg xmlns="http://www.w3.org/2000/svg" width="24" height="24.273" viewBox="0 0 24 24.273">
  <g id="Icon_Arrows_Normal_Down" data-name="Icon/Arrows/Normal/Down" transform="translate(0 0.273)">
    <path data-name="Icon Color" d="M-1.408,10.085H-19.121l5.32,5.052a1.324,1.324,0,0,1,.419.96,1.324,1.324,0,0,1-.419.96,1.468,1.468,0,0,1-1.01.4,1.468,1.468,0,0,1-1.01-.4l-7.76-7.37a1.311,1.311,0,0,1,0-1.92L-15.822.4A1.463,1.463,0,0,1-14.811,0,1.462,1.462,0,0,1-13.8.4a1.324,1.324,0,0,1,.419.96,1.324,1.324,0,0,1-.419.96l-5.32,5.053H-1.408A1.394,1.394,0,0,1,0,8.727,1.394,1.394,0,0,1-1.408,10.085Z" transform="translate(3.273 -0.273) rotate(-90)" fill="#3f3b3b"/>
  </g>
</svg>
