<svg xmlns="http://www.w3.org/2000/svg" width="24.131" height="24" viewBox="0 0 24.131 24">
  <g id="Icon_Arrows_Thin_Right" data-name="Icon/Arrows/Thin/Right" transform="translate(0.131)">
    <path data-name="Icon Color" d="M8.351-23.54l0,.061v21.7L.891-9.239A.523.523,0,0,0,.2-9.282l-.049.043A.521.521,0,0,0,.11-8.55L.153-8.5,8.5-.153l.009.009.007.006,0,0,.007.006,0,0,.008.006,0,0,.008.006,0,0L8.556-.1h0L8.566-.1l0,0,.008.006,0,0,.008.005,0,0,.007,0,0,0,.006,0,.006,0,0,0,.008,0h0l.01.005h0A.519.519,0,0,0,8.87,0a.52.52,0,0,0,.368-.152h0L17.586-8.5a.521.521,0,0,0,0-.738.521.521,0,0,0-.688-.043l-.049.043L9.392-1.782v-21.7A.522.522,0,0,0,8.87-24,.523.523,0,0,0,8.351-23.54Z" transform="translate(23.87 20.87) rotate(-90)" fill="#3f3b3b"/>
  </g>
</svg>
