<svg xmlns="http://www.w3.org/2000/svg" width="24" height="24" viewBox="0 0 24 24">
  <g id="Icon_Arrows_Circle_Outline_Left" data-name="Icon/Arrows/Circle/Outline/Left" transform="translate(0)">
    <path data-name="Icon Color" d="M-3.525,20.475A11.914,11.914,0,0,0,0,12,11.911,11.911,0,0,0-3.525,3.525,11.911,11.911,0,0,0-12,0a11.914,11.914,0,0,0-8.475,3.525A11.911,11.911,0,0,0-24,12a11.913,11.913,0,0,0,3.525,8.475A11.913,11.913,0,0,0-12,24,11.911,11.911,0,0,0-3.525,20.475ZM-1.5,12A10.512,10.512,0,0,1-12,22.5,10.512,10.512,0,0,1-22.5,12,10.512,10.512,0,0,1-12,1.5,10.511,10.511,0,0,1-1.5,12ZM-8.85,16.725-13.575,12-8.85,7.275-9.9,6.225-15.675,12-9.9,17.775Z" transform="translate(24)" fill="#3f3b3b"/>
  </g>
</svg>
