<svg id="Icon_Avatar" data-name="Icon/Avatar" xmlns="http://www.w3.org/2000/svg" width="24" height="24" viewBox="0 0 24 24">
  <path data-name="Icon Color" d="M18.731,24a.732.732,0,0,1-.176-.022.657.657,0,0,1-.375-.247l-2.764-3.092-2.249,3.046a.663.663,0,0,1-.258.223.783.783,0,0,1-.351.082.736.736,0,0,1-.328-.082.663.663,0,0,1-.258-.223l-2.2-2.975-2.2,2.975a.926.926,0,0,1-.27.223.746.746,0,0,1-.68,0,.933.933,0,0,1-.269-.223l-2.2-3.069L1.312,23.755a.814.814,0,0,1-.258.176.792.792,0,0,1-.3.059.706.706,0,0,1-.129-.012,1.173,1.173,0,0,1-.129-.035.885.885,0,0,1-.352-.282A.689.689,0,0,1,0,23.24V10.425A10.683,10.683,0,0,1,.773,6.372a10.8,10.8,0,0,1,2.1-3.315A9.9,9.9,0,0,1,5.963.82a9.138,9.138,0,0,1,7.566,0,9.9,9.9,0,0,1,3.092,2.237,10.8,10.8,0,0,1,2.1,3.315,10.683,10.683,0,0,1,.773,4.053V23.24a.689.689,0,0,1-.14.421.889.889,0,0,1-.352.282A.66.66,0,0,1,18.731,24ZM9.793,18.695a.73.73,0,0,1,.328.082.657.657,0,0,1,.257.222l2.179,2.975L14.759,19A.676.676,0,0,1,15,18.777a.661.661,0,0,1,.317-.082.885.885,0,0,1,.316.059.649.649,0,0,1,.269.2l2.085,2.319V10.425a9.2,9.2,0,0,0-.656-3.455,9.424,9.424,0,0,0-1.769-2.847A8.273,8.273,0,0,0,12.956,2.2a7.68,7.68,0,0,0-6.42,0A8.273,8.273,0,0,0,3.924,4.123,9.424,9.424,0,0,0,2.156,6.97,9.2,9.2,0,0,0,1.5,10.425v10.87l2.156-2.366a.563.563,0,0,1,.246-.176.826.826,0,0,1,.293-.059H4.24a.661.661,0,0,1,.317.082A.676.676,0,0,1,4.8,19l2.156,2.975L9.184,19a.657.657,0,0,1,.257-.222A.78.78,0,0,1,9.793,18.695Zm3.7-7.45A1.49,1.49,0,0,1,12.44,8.691,1.491,1.491,0,1,1,14.549,10.8,1.447,1.447,0,0,1,13.494,11.245Zm-7.5,0A1.491,1.491,0,0,1,4.943,8.691a1.472,1.472,0,0,1,2.109,0A1.5,1.5,0,0,1,6,11.245Z" transform="translate(2)" fill="#3f3b3b"/>
</svg>
