<svg id="Icon_Bag" data-name="Icon/Bag" xmlns="http://www.w3.org/2000/svg" width="24" height="24" viewBox="0 0 24 24">
  <path data-name="Icon Color" d="M.851,23.7a.852.852,0,0,1-.844-.956l2-16A.851.851,0,0,1,2.85,6H6V4.85A4.85,4.85,0,0,1,15.7,4.635l.005.215V6h3.15a.851.851,0,0,1,.843.744l2,16a.851.851,0,0,1-.843.956ZM1.812,22H19.887L18.1,7.7H15.7V9.85a.85.85,0,0,1-1.694.107L14,9.85V7.7H7.7V9.85a.85.85,0,0,1-1.694.107L6,9.85V7.7H3.6ZM14,6V4.85a3.15,3.15,0,0,0-6.3-.178l0,.178V6Z" transform="translate(1)" fill="#3f3b3b"/>
</svg>
