<svg id="Icon_Bin" data-name="Icon/Bin" xmlns="http://www.w3.org/2000/svg" width="24" height="24" viewBox="0 0 24 24">
  <path data-name="Icon Color" d="M14.7,24H4.763a2.255,2.255,0,0,1-2.25-2.1L1.537,7.5H0v-3A1.5,1.5,0,0,1,1.5,3H6V1.5A1.5,1.5,0,0,1,7.5,0H12a1.5,1.5,0,0,1,1.5,1.5V3H18a1.5,1.5,0,0,1,1.5,1.5v3H17.962L16.95,21.9A2.283,2.283,0,0,1,14.7,24ZM3.037,7.5l.975,14.288a.774.774,0,0,0,.751.713h9.975a.77.77,0,0,0,.75-.713L16.425,7.5ZM1.5,4.5V6H18V4.5Zm6-3V3H12V1.5Z" transform="translate(2)" fill="#3f3b3b"/>
</svg>
