<svg data-name="Icon/Calendar" xmlns="http://www.w3.org/2000/svg" width="24" height="24" viewBox="0 0 24 24">
  <path data-name="Icon Color" d="M1.5,24A1.5,1.5,0,0,1,0,22.5V3.375a1.5,1.5,0,0,1,1.5-1.5H6V0H7.5V1.875h9V0H18V1.875h4.5a1.5,1.5,0,0,1,1.5,1.5V22.5A1.5,1.5,0,0,1,22.5,24Zm0-1.5h21V9H1.5Zm21-15V3.375H18V5.25H16.5V3.375h-9V5.25H6V3.375H1.5V7.5Zm-6,11.625v-1.5h3.75v1.5Zm-6.375,0v-1.5h3.75v1.5Zm-6.375,0v-1.5H7.5v1.5ZM16.5,13.5V12h3.75v1.5Zm-6.375,0V12h3.75v1.5Zm-6.375,0V12H7.5v1.5Z" fill="#3f3b3b"/>
</svg>
