<svg data-name="Icon/Cart" xmlns="http://www.w3.org/2000/svg" width="24" height="24" viewBox="0 0 24 24">
  <path data-name="Icon Color" d="M17,20.829a2.846,2.846,0,1,1,2.846,2.894A2.873,2.873,0,0,1,17,20.829Zm1.57,0A1.277,1.277,0,1,0,19.848,19.5,1.3,1.3,0,0,0,18.572,20.829Zm-13.935,0a2.846,2.846,0,1,1,2.846,2.894A2.874,2.874,0,0,1,4.637,20.829Zm1.57,0A1.277,1.277,0,1,0,7.483,19.5,1.3,1.3,0,0,0,6.206,20.829Zm.246-4.49a.781.781,0,0,1-.749-.55l-.024-.1L3.216,1.57H.785A.786.786,0,0,1,.006.883L0,.785A.786.786,0,0,1,.686.006L.785,0H3.875a.781.781,0,0,1,.749.55l.024.1L5.18,3.693H22.938a.785.785,0,0,1,.784.832l-.013.1L21.649,15.7a.782.782,0,0,1-.67.634l-.1.006Zm.659-1.57H20.225l1.769-9.508H5.452Z" transform="translate(0.138 0.138)" fill="#3f3b3b"/>
</svg>
