<svg id="Icon_Chat" data-name="Icon/Chat" xmlns="http://www.w3.org/2000/svg" width="24" height="24" viewBox="0 0 24 24">
  <path data-name="Icon Color" d="M3.6,22.425H3.413a1.126,1.126,0,0,1-1.05-.713,1.155,1.155,0,0,1,.3-1.238,6.764,6.764,0,0,0,1.725-2.513A9.552,9.552,0,0,1,0,10.125C0,4.542,5.383,0,12,0a13.042,13.042,0,0,1,8.476,3A9.43,9.43,0,0,1,24,10.2c0,5.583-5.383,10.125-12,10.125A15.73,15.73,0,0,1,9.248,20l-.061-.011A13.153,13.153,0,0,1,3.6,22.425ZM12,1.5C6.21,1.5,1.5,5.369,1.5,10.125a8.176,8.176,0,0,0,4.125,6.9l.412.262-.075.488A6.908,6.908,0,0,1,4.5,20.662a12.137,12.137,0,0,0,3.866-2.021.911.911,0,0,1,.11-.079l.3-.263.375.076A12.891,12.891,0,0,0,12,18.75c5.79,0,10.5-3.869,10.5-8.625S17.79,1.5,12,1.5Z" transform="translate(0 1)" fill="#3f3b3b"/>
</svg>
