<svg xmlns="http://www.w3.org/2000/svg" width="18" height="18" viewBox="0 0 18 18">
  <path data-name="Combined Shape" d="M.439,17.561a1.5,1.5,0,0,1-.124-1.98l.124-.141L12.879,3H1.5A1.5,1.5,0,0,1,.01,1.675L0,1.5A1.5,1.5,0,0,1,1.325.01L1.5,0H16.481a1.5,1.5,0,0,1,1.008.372L17.5.384l.009.008.019.018.006.006.021.021,0,0,0,0,.02.02,0,0,.019.021,0,0,.018.02.005.006.016.019.006.008.014.018.008.009.012.016L17.7.6l.01.014.01.014.008.011.012.017.007.01.012.018L17.767.7l.011.018.008.013L17.8.743a1.488,1.488,0,0,1,.194.581v0a1.506,1.506,0,0,1,.01.185V16.5a1.5,1.5,0,0,1-2.99.175L15,16.5V5.121L2.561,17.561a1.5,1.5,0,0,1-2.121,0Z" transform="translate(0 0)" fill="#fff"/>
</svg>
