<svg id="Icon_Comment" data-name="Icon/Comment" xmlns="http://www.w3.org/2000/svg" width="24" height="24" viewBox="0 0 24 24">
  <path data-name="Icon Color" d="M5.25,21.263a1.21,1.21,0,0,1-.787-.3,1.157,1.157,0,0,1-.338-.825V17.25H2.25A2.253,2.253,0,0,1,0,15V2.25A2.253,2.253,0,0,1,2.25,0h19.5A2.253,2.253,0,0,1,24,2.25V15a2.253,2.253,0,0,1-2.25,2.25H10.05L6,20.963A1.053,1.053,0,0,1,5.25,21.263ZM2.25,1.5a.751.751,0,0,0-.75.75V15a.751.751,0,0,0,.75.75H5.625v3.525L9.45,15.75h12.3A.751.751,0,0,0,22.5,15V2.25a.751.751,0,0,0-.75-.75Z" transform="translate(0 1)" fill="#3f3b3b"/>
</svg>
