<?xml version="1.0" encoding="UTF-8"?>
<svg width="18px" height="22px" viewBox="0 0 18 22" version="1.1" xmlns="http://www.w3.org/2000/svg" xmlns:xlink="http://www.w3.org/1999/xlink">
    <title>layers</title>
    <g stroke="none" stroke-width="1" fill="none" fill-rule="evenodd" opacity="0.800000012">
        <g transform="translate(-1141.000000, -410.000000)" fill="#FFFFFF" fill-rule="nonzero">
            <g transform="translate(618.000000, 396.000000)">
                <g>
                    <g transform="translate(12.000000, 9.000000)">
                        <g id="Group-2-Copy-3" transform="translate(511.000000, 5.000000)">
                            <g>
                                <g>
                                    <g>
                                        <path d="M16.1134187,-3.55271368e-15 C16.6707767,-3.55271368e-15 17.1226046,0.451827911 17.1226046,1.00918589 L17.1226046,1.00918589 L17.1226046,20.9908141 C17.1226046,21.5481721 16.6707767,22 16.1134187,22 L16.1134187,22 L1.00918589,22 C0.451827911,22 7.10542736e-15,21.5481721 7.10542736e-15,20.9908141 L7.10542736e-15,20.9908141 L7.10542736e-15,1.00918589 C7.10542736e-15,0.451827911 0.451827911,-3.55271368e-15 1.00918589,-3.55271368e-15 L1.00918589,-3.55271368e-15 Z M15.1042328,2.01837177 L2.01837177,2.01837177 L2.01837177,19.9816282 L15.1042328,19.9816282 L15.1042328,2.01837177 Z M8.25640202,12.5562907 C8.74409024,12.5562907 9.13943964,12.9516402 9.13943964,13.4393284 C9.13943964,13.9270166 8.74409024,14.3223661 8.25640202,14.3223661 L8.25640202,14.3223661 L5.28056514,14.3223661 C4.79287607,14.3223661 4.39752746,13.9265129 4.39752746,13.4393284 C4.39746055,13.2051118 4.4904731,12.9804688 4.6560893,12.8148526 C4.8217055,12.6492364 5.04634848,12.5562238 5.28056514,12.5562907 L5.28056514,12.5562907 Z M10.754894,12.815147 C11.0828794,12.4871616 11.6704779,12.4846386 12.0012385,12.815147 C12.1676833,12.9803642 12.2612949,13.2051848 12.2612949,13.4397069 C12.2612949,13.6742289 12.1676833,13.8990496 12.0012385,14.0642668 C11.8369935,14.2282595 11.610179,14.3218615 11.3780663,14.3218615 C11.1459535,14.3218615 10.9183821,14.2282595 10.754894,14.0642668 C10.5883783,13.8972465 10.4950286,13.6709366 10.4950286,13.4388238 C10.4950734,13.2046075 10.5886181,12.9801004 10.754894,12.815147 Z M11.4123786,8.59271322 C11.9000668,8.59271322 12.2954162,8.98806264 12.2954162,9.47575087 C12.2954162,9.9634391 11.9000668,10.3587885 11.4123786,10.3587885 L11.4123786,10.3587885 L5.42033739,10.3587885 C4.93264916,10.3587885 4.53729974,9.9634391 4.53729974,9.47575087 C4.53729974,8.98806264 4.93264916,8.59271322 5.42033739,8.59271322 L5.42033739,8.59271322 Z M11.4123786,4.62913566 C11.9000668,4.62913566 12.2954162,5.02448508 12.2954162,5.5121733 C12.2954162,5.99986153 11.9000668,6.39521095 11.4123786,6.39521095 L11.4123786,6.39521095 L5.42033739,6.39521095 C4.93264916,6.39521095 4.53729974,5.99986153 4.53729974,5.5121733 C4.53729974,5.02448508 4.93264916,4.62913566 5.42033739,4.62913566 L5.42033739,4.62913566 Z"></path>
                                    </g>
                                </g>
                            </g>
                        </g>
                    </g>
                </g>
            </g>
        </g>
    </g>
</svg>