<svg data-name="Icon/Download Cloud" xmlns="http://www.w3.org/2000/svg" width="24" height="24" viewBox="0 0 24 24">
  <path data-name="Icon Color" d="M7.678,19.211,8.8,18.238,11.237,20.9V11.983h1.5v9.065l2.471-2.471,1.048,1.048-4.3,4.307Zm-2.81-3.106a4.875,4.875,0,0,1-1.5-9.512A3.951,3.951,0,0,1,7.3,3a4.2,4.2,0,0,1,.675.074,6.165,6.165,0,0,1,11.5,3.106v.188A4.876,4.876,0,0,1,19.1,16.1H15.729v-1.5H19.1a3.371,3.371,0,0,0,0-6.742h-1.35L17.9,7a6.824,6.824,0,0,0,.074-.823A4.682,4.682,0,0,0,13.3,1.5,4.749,4.749,0,0,0,9.025,4.231l-.262.637-.638-.225a2.861,2.861,0,0,0-.823-.15A2.427,2.427,0,0,0,4.868,6.926v.188l.037.675L4.231,7.9A3.41,3.41,0,0,0,1.5,11.234a3.356,3.356,0,0,0,3.371,3.371H8.24v1.5Z" fill="#3f3b3b"/>
</svg>
