<svg xmlns="http://www.w3.org/2000/svg" width="24" height="24" viewBox="0 0 24 24">
  <g data-name="Icon/Email" transform="translate(0)">
    <path data-name="Icon Color" d="M22.125,17H2.625a2.49,2.49,0,0,1-1.781-.869A2.628,2.628,0,0,1,0,14.3V1.835a.223.223,0,0,1,.023-.1.576.576,0,0,1,0-.326.894.894,0,0,1,.164-.3.342.342,0,0,0,.047-.06A.182.182,0,0,1,.305.99a2.189,2.189,0,0,1,1-.736A3.606,3.606,0,0,1,2.625,0h19.5a2.045,2.045,0,0,1,1.207.326,1.557,1.557,0,0,1,.6.978.637.637,0,0,1,.058.205.806.806,0,0,1-.012.229.223.223,0,0,1,.023.1V14.3a3.832,3.832,0,0,1-.469,1.835A1.515,1.515,0,0,1,22.125,17ZM1.5,3.236V14.3a1.176,1.176,0,0,0,.41.736,1.123,1.123,0,0,0,.715.423h19.5c.2,0,.317-.142.34-.423s.035-.528.035-.736V3.236L12.492,11.471a.94.94,0,0,1-.234.145.721.721,0,0,1-.516,0,.954.954,0,0,1-.235-.145Zm.773-1.69A2.934,2.934,0,0,0,1.9,1.57L12,9.877,22.125,1.545Z" transform="translate(0 4)" fill="#3f3b3b"/>
  </g>
</svg>
