<svg id="Icon_Emoji" data-name="Icon/Emoji" xmlns="http://www.w3.org/2000/svg" width="24" height="24" viewBox="0 0 24 24">
  <path data-name="Icon Color" d="M3.524,20.475A11.986,11.986,0,1,1,20.475,3.525,11.986,11.986,0,1,1,3.524,20.475ZM1.5,12A10.5,10.5,0,1,0,12,1.5,10.512,10.512,0,0,0,1.5,12Zm9.636,6.6A7.532,7.532,0,0,1,5.73,15.234l1.09-.7a6.162,6.162,0,0,0,10.359,0l1.09.7a7.534,7.534,0,0,1-6.293,3.415A7.32,7.32,0,0,1,11.137,18.6ZM14.81,9.324a1.3,1.3,0,1,1,1.3,1.3A1.3,1.3,0,0,1,14.81,9.324Zm-8.027,0a1.3,1.3,0,1,1,1.3,1.3A1.3,1.3,0,0,1,6.783,9.324Z" transform="translate(0 0)" fill="#3f3b3b"/>
</svg>
