<svg id="Emoji_05" data-name="Emoji 05" xmlns="http://www.w3.org/2000/svg" xmlns:xlink="http://www.w3.org/1999/xlink" width="32" height="32" viewBox="0 0 32 32">
  <defs>
    <linearGradient x1="0.584" x2="0.439" y2="0.999" gradientUnits="objectBoundingBox">
      <stop offset="0" stop-color="#f9c172"/>
      <stop offset="1" stop-color="#f9d572"/>
    </linearGradient>
  </defs>
  <g data-name="Rating/Emojis/Single/State/Inactive">
    <circle cx="16" cy="16" r="16" fill="url(#linear-gradient)"/>
  </g>
  <path data-name="Fill Color" d="M16.272,16.694a8.219,8.219,0,0,0-14.688.727L0,16.726a10.023,10.023,0,0,1,8.588-5.935,10.032,10.032,0,0,1,9.191,5.054c.16.285.309.581.44.881l-1.583.7C16.527,17.174,16.4,16.93,16.272,16.694ZM12.749,7.21a1.73,1.73,0,1,1,1.73,1.73A1.729,1.729,0,0,1,12.749,7.21Zm-10.7,0a1.73,1.73,0,1,1,1.73,1.73A1.73,1.73,0,0,1,2.047,7.21Zm10.615-4.6L16.275,0l1.013,1.4L13.675,4.015ZM1.661,1.4,2.675,0,6.288,2.613l-1.013,1.4Z" transform="translate(6.89 7.222)" fill="#121212"/>
</svg>
