<svg id="Emoji_02" data-name="Emoji 02" xmlns="http://www.w3.org/2000/svg" xmlns:xlink="http://www.w3.org/1999/xlink" width="32" height="32" viewBox="0 0 32 32">
  <defs>
    <linearGradient x1="0.584" x2="0.439" y2="0.999" gradientUnits="objectBoundingBox">
      <stop offset="0" stop-color="#f9c172"/>
      <stop offset="1" stop-color="#f9d572"/>
    </linearGradient>
  </defs>
  <g data-name="Rating/Emojis/Single/State/Inactive">
    <circle cx="16" cy="16" r="16" fill="url(#linear-gradient)"/>
  </g>
  <path data-name="Fill Color" d="M7.208,14.1A10.048,10.048,0,0,1,0,9.609l1.453-.939a8.217,8.217,0,0,0,13.812,0l1.454.939a10.043,10.043,0,0,1-8.39,4.552A9.766,9.766,0,0,1,7.208,14.1Zm4.9-12.368a1.73,1.73,0,1,1,1.73,1.73A1.73,1.73,0,0,1,12.107,1.73Zm-10.7,0a1.73,1.73,0,1,1,1.73,1.73A1.73,1.73,0,0,1,1.4,1.73Z" transform="translate(7.641 10.702)" fill="#121212"/>
</svg>
