<svg xmlns="http://www.w3.org/2000/svg" width="16.002" height="14.667" viewBox="0 0 16.002 14.667">
  <g data-name="Icon Left" transform="translate(0.001 -0.667)">
    <path data-name="Icon Color" d="M14.909,14.666H1.092a1.073,1.073,0,0,1-.983-.448A1.117,1.117,0,0,1,.2,13.1L7.13.649A1.061,1.061,0,0,1,8,0a1.062,1.062,0,0,1,.871.649L15.8,13.1a1.116,1.116,0,0,1,.095,1.117A1.071,1.071,0,0,1,14.909,14.666Zm-6.91-4A1.333,1.333,0,1,0,9.333,12,1.335,1.335,0,0,0,8,10.666ZM8,4a1.225,1.225,0,0,0-.859.433,1.226,1.226,0,0,0-.354.9l.278,3.091A1.8,1.8,0,0,0,8.312,9.926.736.736,0,0,1,8,10h.794a1.6,1.6,0,0,1-.481-.074.946.946,0,0,0,.552-.716l.349-3.882a1.226,1.226,0,0,0-.354-.9A1.227,1.227,0,0,0,8,4Z" transform="translate(0 0.667)" fill="#fff"/>
  </g>
</svg>
