<svg data-name="Icon/Gift" xmlns="http://www.w3.org/2000/svg" width="24" height="24" viewBox="0 0 24 24">
  <path data-name="Icon Color" d="M21,22.8H3.023a1.43,1.43,0,0,1-1.066-.45,1.494,1.494,0,0,1-.433-1.066V11.4H0V6.873A1.479,1.479,0,0,1,.434,5.8,1.447,1.447,0,0,1,1.5,5.356H4.1a3.687,3.687,0,0,1-.808-1.149A3.532,3.532,0,0,1,3,2.749,3.163,3.163,0,0,1,3.632.877,2.55,2.55,0,0,1,5.836,0,4.226,4.226,0,0,1,7.817.5,8.987,8.987,0,0,1,9.574,1.706a11.9,11.9,0,0,1,1.442,1.5,15.619,15.619,0,0,1,1.031,1.434,16.963,16.963,0,0,1,1.02-1.434,11.624,11.624,0,0,1,1.418-1.5A8.8,8.8,0,0,1,16.219.5,4.154,4.154,0,0,1,18.187,0a2.55,2.55,0,0,1,2.2.877,3.157,3.157,0,0,1,.633,1.873,3.533,3.533,0,0,1-.292,1.457,3.6,3.6,0,0,1-.786,1.126H22.5a1.427,1.427,0,0,1,1.066.451A1.491,1.491,0,0,1,24,6.85V11.4H22.5v9.883a1.494,1.494,0,0,1-.434,1.066A1.427,1.427,0,0,1,21,22.8ZM12.75,11.4v9.883H21V11.4Zm-9.727,0v9.883H11.25V11.4ZM12.75,6.85V9.883H22.5V6.85ZM1.5,6.85V9.883h9.75V6.85ZM18.187,1.516a3.833,3.833,0,0,0-2.706,1.316,17.6,17.6,0,0,0-2.1,2.5h2.531a4.867,4.867,0,0,0,2.461-.663,2.111,2.111,0,0,0,1.148-1.92,1.238,1.238,0,0,0-.317-.924A1.425,1.425,0,0,0,18.187,1.516Zm-12.352,0a1.462,1.462,0,0,0-1.019.3,1.2,1.2,0,0,0-.317.912A2.128,2.128,0,0,0,5.683,4.657a4.989,4.989,0,0,0,2.5.675h2.531a16.577,16.577,0,0,0-2.133-2.5A3.947,3.947,0,0,0,5.836,1.516Z" transform="translate(0 1)" fill="#3f3b3b"/>
</svg>
