<svg id="Icon_Heart" data-name="Icon/Heart" xmlns="http://www.w3.org/2000/svg" width="24" height="24" viewBox="0 0 24 24">
  <path data-name="Icon Color" d="M12,21.6h0l-.412-.3a50.792,50.792,0,0,1-5.977-4.927,27.2,27.2,0,0,1-3.869-4.55A9.177,9.177,0,0,1,0,6.975V6.563A6.589,6.589,0,0,1,6.6,0,6.523,6.523,0,0,1,12,2.85,6.58,6.58,0,0,1,24,6.563v.412c0,2.608-1.888,5.766-5.611,9.384A51.7,51.7,0,0,1,12.413,21.3L12,21.6ZM6.6,1.5A5.087,5.087,0,0,0,1.5,6.563v.412c0,2.23,1.8,5.107,5.362,8.55A55.783,55.783,0,0,0,12,19.762a55.732,55.732,0,0,0,5.138-4.237C20.7,12.082,22.5,9.205,22.5,6.975V6.563a5.1,5.1,0,0,0-9.825-1.876L12,6.45l-.712-1.725A5.056,5.056,0,0,0,6.6,1.5Z" transform="translate(0 1)" fill="#afafaf"/>
</svg>
