<svg id="Icon_Info" data-name="Icon/Info" xmlns="http://www.w3.org/2000/svg" width="24" height="24" viewBox="0 0 24 24">
  <path data-name="Combined Shape" d="M12,24A12,12,0,0,1,3.514,3.515,12,12,0,0,1,20.486,20.485,11.922,11.922,0,0,1,12,24ZM11.985,9.333A1.233,1.233,0,0,0,10.667,10.7v6.567a1.4,1.4,0,0,0,.366,1.034,1.3,1.3,0,0,0,.952.362,1.375,1.375,0,0,0,.967-.354,1.357,1.357,0,0,0,.381-1.042V10.636a1.234,1.234,0,0,0-.381-.958A1.4,1.4,0,0,0,11.985,9.333Zm.03-4a1.373,1.373,0,0,0-.943.366,1.206,1.206,0,0,0-.4.932,1.214,1.214,0,0,0,.4.968,1.415,1.415,0,0,0,.953.342,1.359,1.359,0,0,0,.928-.347,1.224,1.224,0,0,0,.391-.962,1.19,1.19,0,0,0-.4-.967A1.4,1.4,0,0,0,12.015,5.333Z" fill="#3f3b3b"/>
</svg>
