<svg xmlns="http://www.w3.org/2000/svg" xmlns:xlink="http://www.w3.org/1999/xlink" width="48" height="49" viewBox="0 0 48 49">
  <defs>
    <filter id="Rectangle" x="0" y="0" width="48" height="49" filterUnits="userSpaceOnUse">
      <feOffset dy="1" input="SourceAlpha"/>
      <feGaussianBlur stdDeviation="0.5" result="blur"/>
      <feFlood flood-opacity="0.125"/>
      <feComposite operator="in" in2="blur"/>
      <feComposite in="SourceGraphic"/>
    </filter>
  </defs>
  <g transform="translate(1.5 0.5)">
    <g transform="matrix(1, 0, 0, 1, -1.5, -0.5)" filter="url(#Rectangle)">
      <rect id="Rectangle-2" data-name="Rectangle" width="45" height="46" rx="8" transform="translate(1.5 0.5)" fill="#fff"/>
    </g>
    <path id="LTR" d="M19.462,22.116V.885a.885.885,0,1,1,1.769,0V22.116a.885.885,0,1,1-1.769,0ZM0,22.076a.885.885,0,1,1,.885.885A.885.885,0,0,1,0,22.076Zm0-3.028a.885.885,0,1,1,.885.885A.885.885,0,0,1,0,19.049Zm11.235-2.375a.884.884,0,0,1,0-1.251l3.235-3.235H4.816a.885.885,0,1,1,0-1.769h9.391L10.867,7.078a.885.885,0,0,1,1.251-1.251l4.865,4.865a.884.884,0,0,1,.165.229.884.884,0,0,1-.075,1.165l-4.587,4.587a.884.884,0,0,1-1.251,0ZM0,16.022a.885.885,0,1,1,.885.884A.885.885,0,0,1,0,16.022Zm0-3.028a.885.885,0,1,1,.885.885A.885.885,0,0,1,0,12.994ZM0,9.967a.885.885,0,1,1,.885.885A.885.885,0,0,1,0,9.967ZM0,6.939a.885.885,0,1,1,.885.885A.885.885,0,0,1,0,6.939ZM0,3.912A.885.885,0,1,1,.885,4.8.885.885,0,0,1,0,3.912ZM0,.885a.885.885,0,1,1,.885.885A.885.885,0,0,1,0,.885Z" transform="translate(12 12)" fill="#121212"/>
  </g>
</svg>
