<svg data-name="Icon/Link" xmlns="http://www.w3.org/2000/svg" width="24" height="24" viewBox="0 0 24 24">
  <path data-name="Icon Color" d="M4.875,24a5.066,5.066,0,0,1-1.841-.352,4.489,4.489,0,0,1-1.6-1.078A4.485,4.485,0,0,1,.352,20.965,5.038,5.038,0,0,1,0,19.125,4.945,4.945,0,0,1,.352,17.3,4.738,4.738,0,0,1,1.43,15.68l2.953-3.047a4.8,4.8,0,0,1,1.606-1.066,4.891,4.891,0,0,1,1.84-.364,4.758,4.758,0,0,1,1.055.117,4.851,4.851,0,0,1,1.008.352L8.718,12.844a2.7,2.7,0,0,0-.433-.105,2.947,2.947,0,0,0-.457-.035,3.38,3.38,0,0,0-2.39.984L2.314,16.936A3.183,3.183,0,0,0,1.5,19.125a3.268,3.268,0,0,0,.984,2.39,3.68,3.68,0,0,0,1.1.727,3.357,3.357,0,0,0,2.579,0,3.679,3.679,0,0,0,1.1-.727l3.023-2.929a3.157,3.157,0,0,0,.844-1.418,3.3,3.3,0,0,0,.023-1.606l1.2-1.172a4.922,4.922,0,0,1,.328,2.753,4.471,4.471,0,0,1-1.337,2.5L8.115,22.77a4.429,4.429,0,0,1-1.4.878A5.056,5.056,0,0,1,4.875,24Zm2.578-6.61a.734.734,0,0,1-.281-.059.6.6,0,0,1-.235-.176l-.084-.087a.658.658,0,0,1-.15-.427.744.744,0,0,1,.234-.539l9.07-9.141a.738.738,0,0,1,1.078,0,.7.7,0,0,1,.212.516.781.781,0,0,1-.212.539l-9.094,9.14a.813.813,0,0,1-.257.176A.736.736,0,0,1,7.453,17.391ZM16.1,12.774a6.349,6.349,0,0,1-.938-.07,3.858,3.858,0,0,1-.914-.258l1.2-1.2a2.388,2.388,0,0,0,.328.023H16.1a3.374,3.374,0,0,0,1.3-.257,3.337,3.337,0,0,0,1.09-.727l3.023-3.046A3.193,3.193,0,0,0,22.5,4.875a3.273,3.273,0,0,0-.985-2.391,3.656,3.656,0,0,0-1.1-.726,3.355,3.355,0,0,0-2.578,0,3.656,3.656,0,0,0-1.1.726l-3.024,2.93A3.175,3.175,0,0,0,12.832,7a3.5,3.5,0,0,0,.058,1.77L11.719,9.938A4.881,4.881,0,0,1,11.3,7.031,4.707,4.707,0,0,1,12.656,4.36L15.68,1.43A4.485,4.485,0,0,1,17.285.352a4.984,4.984,0,0,1,3.679,0A4.485,4.485,0,0,1,22.57,1.43a4.489,4.489,0,0,1,1.078,1.6A5.066,5.066,0,0,1,24,4.875,4.97,4.97,0,0,1,23.648,6.7,4.75,4.75,0,0,1,22.57,8.321l-3.023,3.023a4.8,4.8,0,0,1-1.606,1.067A4.914,4.914,0,0,1,16.1,12.774Z" fill="#3f3b3b"/>
</svg>
