<svg id="Icon_Location" data-name="Icon/Location" xmlns="http://www.w3.org/2000/svg" width="24" height="24" viewBox="0 0 24 24">
  <path data-name="Icon Color" d="M8.985,24l-.561-.673c-.074-.088-.157-.18-.253-.287-.147-.162-.314-.347-.5-.574C5.378,19.928,0,13.986,0,8.986a8.986,8.986,0,0,1,17.972,0c0,2.056-.932,4.517-2.768,7.317a53.606,53.606,0,0,1-4.636,5.868l-.159.182c-.2.248-.388.451-.551.63-.107.117-.2.217-.273.306l-.6.711h0ZM1.5,8.986c0,4.249,4.808,9.714,7.119,12.341l.145.165.005.005a1.008,1.008,0,0,1,.182.22,2.371,2.371,0,0,1,.3-.337c2.163-2.424,7.226-8.1,7.226-12.394a7.488,7.488,0,0,0-14.977,0ZM6.07,11.34a4.137,4.137,0,1,1,2.916,1.2A4.1,4.1,0,0,1,6.07,11.34Zm.3-2.916A2.621,2.621,0,1,0,8.986,5.8,2.593,2.593,0,0,0,6.365,8.424Z" transform="translate(3)" fill="#3f3b3b"/>
</svg>
