<svg id="Icon_Media_Repeat" data-name="Icon/Media/Repeat" xmlns="http://www.w3.org/2000/svg" width="24" height="24" viewBox="0 0 24 24">
  <path data-name="Icon Color" d="M.075,16.65l3.9-3.9L5.025,13.8l-2.1,2.1H19.5a2.865,2.865,0,0,0,3-2.625V9.525H24v3.75A4.325,4.325,0,0,1,19.5,17.4H2.925l2.1,2.1L3.975,20.55ZM0,11.025V7.275A4.325,4.325,0,0,1,4.5,3.15H21.075l-2.1-2.1L20.025,0l3.9,3.9-3.9,3.9-1.05-1.05,2.1-2.1H4.5a2.865,2.865,0,0,0-3,2.624v3.75Z" transform="translate(0 2.225)" fill="#3f3b3b"/>
</svg>
