<svg id="Icon_Media_Play_Outline" data-name="Icon/Media/Play Outline" xmlns="http://www.w3.org/2000/svg" width="24" height="24" viewBox="0 0 24 24">
  <path data-name="Icon Color" d="M3.525,20.475a11.985,11.985,0,1,1,16.95-16.95,11.985,11.985,0,1,1-16.95,16.95ZM1.5,12A10.5,10.5,0,1,0,12,1.5,10.512,10.512,0,0,0,1.5,12ZM9,17.25V6.75A.726.726,0,0,1,9.693,6a.672.672,0,0,1,.417.149L16.124,11.4a.734.734,0,0,1,.26.6.777.777,0,0,1-.277.6l-6,5.25a.673.673,0,0,1-.417.15A.726.726,0,0,1,9,17.25Z" fill="#3f3b3b"/>
</svg>
