<svg id="Icon_Media_Sound_Off" data-name="Icon/Media/Sound Off" xmlns="http://www.w3.org/2000/svg" width="24" height="24" viewBox="0 0 24 24">
  <path data-name="Icon Color" d="M12.929,21.964a.712.712,0,0,1-.205-.111L5,15.691H2.439a2.461,2.461,0,0,1-1.69-.624,1.954,1.954,0,0,1-.7-1.5L0,8.4A1.917,1.917,0,0,1,.7,6.91,2.491,2.491,0,0,1,2.39,6.3H4.95L12.724.136A.71.71,0,0,1,13.11,0l.051,0A.662.662,0,0,1,13.5.087a.716.716,0,0,1,.3.281.785.785,0,0,1,.109.4V21.218a.785.785,0,0,1-.109.4.724.724,0,0,1-.3.282.544.544,0,0,1-.169.073.8.8,0,0,1-.193.024A.641.641,0,0,1,12.929,21.964ZM1.775,8.035a.475.475,0,0,0-.23.367l.049,5.16a.507.507,0,0,0,.229.38.962.962,0,0,0,.617.183h2.8a1.023,1.023,0,0,1,.229.025.525.525,0,0,1,.205.1l6.689,5.5V2.239L5.626,7.718a.744.744,0,0,1-.205.11.729.729,0,0,1-.229.037H2.39A1.011,1.011,0,0,0,1.775,8.035ZM20,11.9,16.9,15l-.9-.9L19.1,11,16,7.9l.9-.9L20,10.1,23.1,7l.9.9L20.9,11,24,14.1l-.9.9Z" transform="translate(0 1)" fill="#3f3b3b"/>
</svg>
