<svg id="Icon_Media_Shuffle" data-name="Icon/Media/Shuffle" xmlns="http://www.w3.org/2000/svg" width="24" height="24" viewBox="0 0 24 24">
  <path data-name="Icon Color" d="M19.138,18.274h0l-.942-.942,2.2-2.2H17.847a5.951,5.951,0,0,1-4.682-2.258l.007-.005L7.624,6.031A4.672,4.672,0,0,0,4.143,4.47H0V3.137H4.143A6.01,6.01,0,0,1,8.555,5.087l.014-.011L14.26,12.1a4.631,4.631,0,0,0,3.6,1.708H20.39l-2.2-2.2.943-.945,3.805,3.805-3.8,3.8ZM4.158,15.137H0V13.8H4.155a4.621,4.621,0,0,0,3.632-1.75l.014.011,1.246-1.544,1.036.839L8.828,12.915,8.814,12.9A5.943,5.943,0,0,1,4.158,15.137ZM12.96,7.8h0l-1.04-.835,1.442-1.787-.006,0a6.007,6.007,0,0,1,4.5-2.038H20.39L18.2.942,19.138,0l3.8,3.8L19.138,7.609l-.943-.943,2.2-2.2H17.86A4.68,4.68,0,0,0,14.4,6.016L12.961,7.8Z" transform="translate(0 2.863)" fill="#3f3b3b"/>
</svg>
