<svg id="Icon_Media_Forward" data-name="Icon/Media/Forward" xmlns="http://www.w3.org/2000/svg" width="24" height="24" viewBox="0 0 24 24">
  <path data-name="Icon Color" d="M-15.224,23.7-2.25,13.2a1.553,1.553,0,0,0,.55-.812V23.25A.75.75,0,0,0-.95,24h.2A.75.75,0,0,0,0,23.25V.75A.75.75,0,0,0-.75,0h-.2A.75.75,0,0,0-1.7.75V11.576a1.318,1.318,0,0,0-.512-.776L-15.224.3a1.532,1.532,0,0,0-.9-.3,1.5,1.5,0,0,0-1.5,1.5v21a1.5,1.5,0,0,0,1.5,1.5A1.523,1.523,0,0,0-15.224,23.7ZM-3.15,12-16.124,22.5l-.038-21Z" transform="translate(20.625)" fill="#3f3b3b"/>
</svg>
