<svg id="Icon_Media_Sound_On" data-name="Icon/Media/Sound On" xmlns="http://www.w3.org/2000/svg" width="24" height="24" viewBox="0 0 24 24">
  <path data-name="Icon Color" d="M13.135,22a.652.652,0,0,1-.205-.036.716.716,0,0,1-.205-.111L5,15.691H2.439a2.461,2.461,0,0,1-1.69-.624,1.953,1.953,0,0,1-.7-1.5L0,8.4A1.916,1.916,0,0,1,.7,6.91,2.493,2.493,0,0,1,2.39,6.3H4.95L12.724.136A.712.712,0,0,1,13.11,0l.051,0A.661.661,0,0,1,13.5.087a.718.718,0,0,1,.3.281.785.785,0,0,1,.109.4V21.218a.785.785,0,0,1-.109.4.726.726,0,0,1-.3.282.546.546,0,0,1-.169.073A.788.788,0,0,1,13.135,22ZM2.39,7.864a1.01,1.01,0,0,0-.616.171.474.474,0,0,0-.229.367l.049,5.16a.507.507,0,0,0,.229.38.964.964,0,0,0,.616.183h2.8a1.043,1.043,0,0,1,.229.025.527.527,0,0,1,.205.1l6.689,5.5V2.239L5.626,7.718a.735.735,0,0,1-.205.11.725.725,0,0,1-.229.037ZM18.833,18.356a.744.744,0,0,1-.435-.135.832.832,0,0,1-.29-.355.768.768,0,0,1,.012-.611.7.7,0,0,1,.446-.392,6.2,6.2,0,0,0,3.888-5.723A6.081,6.081,0,0,0,21.38,7.656a5.876,5.876,0,0,0-2.813-2.237A.788.788,0,0,1,18.121,5a.717.717,0,0,1-.012-.588.694.694,0,0,1,.4-.452.767.767,0,0,1,.313-.071.72.72,0,0,1,.279.058,7.176,7.176,0,0,1,2,1.138,7.942,7.942,0,0,1,1.545,1.663,7.582,7.582,0,0,1,1,2.066,7.8,7.8,0,0,1,0,4.622,7.608,7.608,0,0,1-1,2.066A7.987,7.987,0,0,1,21.1,17.17a7.2,7.2,0,0,1-2,1.137,1.122,1.122,0,0,1-.133.037A.677.677,0,0,1,18.833,18.356Zm-2.2-3.057a.733.733,0,0,1-.482-.184.751.751,0,0,1-.265-.453A.723.723,0,0,1,16,14.076a.8.8,0,0,1,.495-.342,2.411,2.411,0,0,0,1.5-.917,2.677,2.677,0,0,0,.579-1.676A2.767,2.767,0,0,0,18,9.405a2.27,2.27,0,0,0-1.485-.88.71.71,0,0,1-.5-.319.8.8,0,0,1-.132-.587.768.768,0,0,1,.3-.513.663.663,0,0,1,.413-.143.831.831,0,0,1,.178.02A3.8,3.8,0,0,1,19.171,8.4a4.263,4.263,0,0,1,.941,2.739,4.16,4.16,0,0,1-.941,2.666,4.018,4.018,0,0,1-2.39,1.468.2.2,0,0,0-.06.012A.268.268,0,0,1,16.636,15.3Z" transform="translate(0 1)" fill="#3f3b3b"/>
</svg>
