<svg id="Icon_Microphone" data-name="Icon/Microphone" xmlns="http://www.w3.org/2000/svg" width="24" height="24" viewBox="0 0 24 24">
  <path data-name="Icon Color" d="M11.053,24H4.1a.948.948,0,0,1,0-1.9H6.631V20.147A7.593,7.593,0,0,1,0,12.632V9.158a.947.947,0,0,1,1.895,0v3.474a5.684,5.684,0,1,0,11.369,0V9.158a.947.947,0,0,1,1.895,0v3.474a7.592,7.592,0,0,1-6.631,7.516V22.1h2.526a.948.948,0,0,1,0,1.9ZM7.579,16.421a3.794,3.794,0,0,1-3.789-3.79V3.79a3.789,3.789,0,1,1,7.579,0v8.842A3.794,3.794,0,0,1,7.579,16.421Z" transform="translate(4)" fill="#3f3b3b"/>
</svg>
