<svg xmlns="http://www.w3.org/2000/svg" width="29" height="26" viewBox="0 0 29 26">
  <g id="Icon_Notification_Dot" data-name="Icon/Notification/Dot" transform="translate(0 2)">
    <g id="Icon">
      <path data-name="Icon Color" d="M11.25,24a3.4,3.4,0,0,1-3.3-2.625H0v-1.5a3,3,0,0,0,3-3V10.5A8.15,8.15,0,0,1,4.706,5.484,8.47,8.47,0,0,1,9,2.55v-.3a2.25,2.25,0,1,1,4.5,0v.3a8.471,8.471,0,0,1,4.294,2.934A8.15,8.15,0,0,1,19.5,10.5v6.375a3,3,0,0,0,3,3v1.5H14.55A3.4,3.4,0,0,1,11.25,24ZM9.525,21.375a1.885,1.885,0,0,0,3.451,0ZM11.25,3.75A6.758,6.758,0,0,0,4.5,10.5v6.375a4.465,4.465,0,0,1-1.163,3H19.163a4.466,4.466,0,0,1-1.163-3V10.5A6.758,6.758,0,0,0,11.25,3.75Zm0-2.25a.751.751,0,0,0-.75.75h.75a4.983,4.983,0,0,1,.75.038V2.25A.751.751,0,0,0,11.25,1.5Z" transform="translate(1)" fill="#3f3b3b"/>
    </g>
    <rect id="Indicator" width="6" height="6" rx="3" transform="translate(23 -2)" fill="#3f3b3b"/>
  </g>
</svg>
