<svg id="Icon_Reveal" data-name="Icon/Reveal" xmlns="http://www.w3.org/2000/svg" width="24" height="24" viewBox="0 0 24 24">
  <path data-name="Icon Color" d="M.284,8.325a1.108,1.108,0,0,1,0-1.476C4.087,2.368,8.143,0,12.014,0s7.927,2.368,11.731,6.849a1.141,1.141,0,0,1,0,1.438c-3.8,4.481-7.86,6.849-11.731,6.849S4.1,12.781.284,8.325Zm1.363-.757c3.412,3.9,7.094,6.054,10.368,6.054s6.956-2.15,10.368-6.054c-3.411-3.9-7.093-6.054-10.368-6.054S5.057,3.664,1.646,7.568Zm5.828,0a4.541,4.541,0,1,1,4.54,4.541A4.545,4.545,0,0,1,7.474,7.568Zm1.514,0a3.027,3.027,0,1,0,3.027-3.027A3.031,3.031,0,0,0,8.987,7.568Z" transform="translate(0 4)" fill="#3f3b3b"/>
</svg>
