<svg xmlns="http://www.w3.org/2000/svg" width="24.001" height="24" viewBox="0 0 24.001 24">
  <g data-name="Icon/Settings" transform="translate(0.001)">
    <path data-name="Icon Color" d="M13.631,24H10.179a1.675,1.675,0,0,1-1.65-1.421L8.2,20.337a9.332,9.332,0,0,1-1.952-1.093l-2.3.886a1.663,1.663,0,0,1-.6.112,1.68,1.68,0,0,1-1.429-.8L.239,16.668a1.655,1.655,0,0,1,.426-2.186l1.873-1.4A8.517,8.517,0,0,1,2.462,12a8.091,8.091,0,0,1,.075-1.062L.665,9.535A1.655,1.655,0,0,1,.239,7.349L1.916,4.577a1.672,1.672,0,0,1,2.029-.692l2.3.886A9.742,9.742,0,0,1,8.2,3.681l.332-2.26A1.675,1.675,0,0,1,10.183,0h3.451a1.675,1.675,0,0,1,1.65,1.421l.329,2.242a9.327,9.327,0,0,1,1.951,1.092l2.3-.886a1.67,1.67,0,0,1,2.029.692l1.677,2.771a1.653,1.653,0,0,1-.426,2.186l-1.873,1.4A8.539,8.539,0,0,1,21.351,12a8.1,8.1,0,0,1-.075,1.063l1.872,1.4a1.664,1.664,0,0,1,.664,1.372l.188.109,0,.007-.184-.112-.127-.078-1.268-.777-.019.031,1.284.758-.324-.2.327.189.127.078v.011l.18.106,0,.007-.176-.11-.13-.081.13.081a1.661,1.661,0,0,1-.238.794L21.9,19.422a1.67,1.67,0,0,1-2.029.692l-2.3-.887a9.752,9.752,0,0,1-1.951,1.092l-.333,2.26A1.674,1.674,0,0,1,13.631,24ZM6.537,17.156h0l.745.554a7.447,7.447,0,0,0,1.7.952l.893.357.077.526.061.418.321,2.19h3.132l.462-3.141.881-.362a7.847,7.847,0,0,0,1.717-.958l.746-.554.477.184.392.15,2.245.864,1.51-2.5-2.613-1.957.139-.968A6.523,6.523,0,0,0,19.5,12a6.808,6.808,0,0,0-.074-.941l-.131-.962.435-.326.347-.26L21.9,8.142l-1.51-2.5-3.113,1.2-.746-.554a7.486,7.486,0,0,0-1.7-.953l-.893-.357-.077-.525L13.8,4.036l-.321-2.19H10.343L9.88,4.988,9,5.349a7.914,7.914,0,0,0-1.717.959l-.745.554-.478-.184-.391-.151L3.423,5.664l-1.51,2.5,2.613,1.957-.139.968A6.529,6.529,0,0,0,4.316,12a6.947,6.947,0,0,0,.073.942l.131.962-.435.326-.347.26L1.913,15.857l1.51,2.5,3.113-1.2Zm5.37-1.279A3.877,3.877,0,1,1,15.838,12,3.909,3.909,0,0,1,11.907,15.877Zm0-5.908A2.031,2.031,0,1,0,13.986,12,2.057,2.057,0,0,0,11.907,9.969Z" fill="#3f3b3b"/>
  </g>
</svg>
