<svg id="Icon_Settings_02" data-name="Icon/Settings 02" xmlns="http://www.w3.org/2000/svg" width="24" height="24" viewBox="0 0 24 24">
  <path data-name="Icon Color" d="M3,17.155A3,3,0,0,0,3.17,18H1.033a1.206,1.206,0,0,1-.409-.069.936.936,0,0,1-.337-.207,1.193,1.193,0,0,1-.216-.333,1.052,1.052,0,0,1-.072-.4A1.071,1.071,0,0,1,.072,16.6a.9.9,0,0,1,.216-.322.954.954,0,0,1,.337-.207A1.213,1.213,0,0,1,1.033,16H3.171A2.97,2.97,0,0,0,3,16.882,3,3,0,0,1,9,16.845,2.983,2.983,0,0,0,8.829,16H22.967a1.22,1.22,0,0,1,.409.068.935.935,0,0,1,.336.207.894.894,0,0,1,.217.322,1.071,1.071,0,0,1,.072.391,1.052,1.052,0,0,1-.072.4,1.2,1.2,0,0,1-.217.333.937.937,0,0,1-.336.207,1.214,1.214,0,0,1-.409.069H8.829A2.97,2.97,0,0,0,9,17.117,3,3,0,0,1,3,17.155ZM4,17a2,2,0,1,0,2-2A2,2,0,0,0,4,17Zm-1,.151c0-.01,0-.021,0-.031C3,17.131,3,17.141,3,17.152ZM9,17.114q0-.016,0-.032C9,17.093,9,17.1,9,17.114Zm-6,0c0-.009,0-.017,0-.026C3,17.092,3,17.1,3,17.11Zm6-.036c0-.01,0-.019,0-.029C9,17.054,9,17.064,9,17.074Zm-6,0c0-.009,0-.017,0-.026Q3,17.06,3,17.073Zm6-.036Q9,17.018,9,17C9,17.012,9,17.024,9,17.037Zm-6,0c0-.012,0-.024,0-.036Q3,17.018,3,17.036ZM9,17q0-.018,0-.036C9,16.976,9,16.988,9,17ZM3,17c0-.012,0-.024,0-.036Q3,16.982,3,17Zm0-.046q0-.014,0-.028C3,16.936,3,16.945,3,16.954Zm6,0q0-.013,0-.027C9,16.937,9,16.945,9,16.954Zm-6-.036c0-.01,0-.02,0-.03C3,16.9,3,16.908,3,16.918Zm6,0c0-.009,0-.017,0-.026C9,16.9,9,16.908,9,16.916Zm0-.036q0-.015,0-.03C9,16.86,9,16.87,9,16.88Zm6.015-6.611a3,3,0,0,0,.158.73H1.033a1.213,1.213,0,0,1-.409-.068.954.954,0,0,1-.337-.207,1.191,1.191,0,0,1-.216-.334A1.046,1.046,0,0,1,0,9.988,1.071,1.071,0,0,1,.072,9.6a.893.893,0,0,1,.216-.321.936.936,0,0,1,.337-.207A1.206,1.206,0,0,1,1.033,9H15.171A2.969,2.969,0,0,0,15,9.882,3,3,0,0,1,20.829,9h2.138a1.214,1.214,0,0,1,.409.069.937.937,0,0,1,.336.207.9.9,0,0,1,.217.321A1.071,1.071,0,0,1,24,9.988a1.046,1.046,0,0,1-.072.4,1.178,1.178,0,0,1-.217.334.935.935,0,0,1-.336.207,1.22,1.22,0,0,1-.409.068H20.829a3,3,0,0,1-5.817-.73ZM16,10a2,2,0,1,0,2-2A2,2,0,0,0,16,10Zm-.988.268,0-.037Zm0-.037q0-.037,0-.075Q15.006,10.193,15.009,10.23ZM15,10.15c0-.01,0-.02,0-.03Q15,10.135,15,10.15Zm0-.041c0-.008,0-.016,0-.025Q15,10.1,15,10.109Zm0-.037c0-.008,0-.017,0-.025C15,10.055,15,10.064,15,10.072Zm0-.036c0-.012,0-.024,0-.036Q15,10.018,15,10.036ZM15,10c0-.012,0-.024,0-.036Q15,9.982,15,10Zm0-.046q0-.014,0-.027C15,9.936,15,9.945,15,9.954Zm0-.037q0-.015,0-.029Q15,9.9,15,9.917ZM7.012,3.269A3,3,0,0,0,7.17,4H1.033a1.213,1.213,0,0,1-.409-.068.954.954,0,0,1-.337-.207,1.187,1.187,0,0,1-.216-.333,1.13,1.13,0,0,1,0-.794.893.893,0,0,1,.216-.321.954.954,0,0,1,.337-.207A1.206,1.206,0,0,1,1.033,2H7.171A2.969,2.969,0,0,0,7,2.881,3,3,0,0,1,12.829,2H22.967a1.214,1.214,0,0,1,.409.069.935.935,0,0,1,.336.207.9.9,0,0,1,.217.321,1.13,1.13,0,0,1,0,.794,1.228,1.228,0,0,1-.217.333.935.935,0,0,1-.336.207A1.22,1.22,0,0,1,22.967,4H12.829a3,3,0,0,1-5.817-.73ZM8,3a2,2,0,1,0,2-2A2,2,0,0,0,8,3Zm-.988.268,0-.037Zm0-.037q0-.037,0-.075Q7.006,3.193,7.009,3.23ZM7,3.15c0-.01,0-.02,0-.03Q7,3.135,7,3.15Zm0-.041c0-.008,0-.016,0-.025C7,3.092,7,3.1,7,3.109Zm0-.037c0-.008,0-.017,0-.025C7,3.055,7,3.063,7,3.072Zm0-.036C7,3.024,7,3.012,7,3Q7,3.018,7,3.036ZM7,3c0-.012,0-.024,0-.036Q7,2.982,7,3Zm0-.046q0-.014,0-.027C7,2.936,7,2.945,7,2.954Zm0-.037Q7,2.9,7,2.888,7,2.9,7,2.917Z" transform="translate(0 2)" fill="#3f3b3b"/>
</svg>
