<svg data-name="Icon/Share" xmlns="http://www.w3.org/2000/svg" width="24" height="24" viewBox="0 0 24 24">
  <path data-name="Icon Color" d="M20.25,24a3.761,3.761,0,0,1-3.75-3.75,4.131,4.131,0,0,1,.023-.445,2.06,2.06,0,0,1,.095-.422L6.68,14.32A3.784,3.784,0,0,1,5.4,15.363a3.613,3.613,0,0,1-1.652.387,3.627,3.627,0,0,1-2.649-1.1,3.734,3.734,0,0,1,0-5.3A3.627,3.627,0,0,1,3.75,8.25,3.648,3.648,0,0,1,6.516,9.492l10.077-4.9c-.031-.142-.054-.285-.07-.422A3.9,3.9,0,0,1,16.5,3.75,3.627,3.627,0,0,1,17.6,1.1a3.735,3.735,0,0,1,5.3,0A3.627,3.627,0,0,1,24,3.75,3.626,3.626,0,0,1,22.9,6.4a3.734,3.734,0,0,1-4.371.68,3.877,3.877,0,0,1-1.3-1.125L7.289,10.781a4.68,4.68,0,0,1,.152.586A3.322,3.322,0,0,1,7.5,12a3.577,3.577,0,0,1-.035.5,3.265,3.265,0,0,1-.105.481l9.891,5.039a3.534,3.534,0,0,1,1.277-1.113,3.681,3.681,0,0,1,1.723-.41A3.746,3.746,0,0,1,22.9,22.9,3.627,3.627,0,0,1,20.25,24Zm0-6a2.24,2.24,0,1,0,1.594.656A2.179,2.179,0,0,0,20.25,18ZM3.75,9.75a2.254,2.254,0,0,0-1.594,3.844,2.179,2.179,0,0,0,1.594.656,2.178,2.178,0,0,0,1.593-.656,2.262,2.262,0,0,0,0-3.188A2.178,2.178,0,0,0,3.75,9.75ZM20.25,1.5A2.24,2.24,0,0,0,18,3.75a2.178,2.178,0,0,0,.656,1.593,2.262,2.262,0,0,0,3.188,0A2.178,2.178,0,0,0,22.5,3.75,2.24,2.24,0,0,0,20.25,1.5Z" fill="#3f3b3b"/>
</svg>
