<svg xmlns="http://www.w3.org/2000/svg" width="24" height="24" viewBox="0 0 24 24">
  <g data-name="Icon/Signout" transform="translate(0)">
    <path data-name="Icon Color" d="M-22.5,24H-9.75a1.459,1.459,0,0,0,1.066-.434A1.456,1.456,0,0,0-8.25,22.5V15.727h-1.5v5.859a.884.884,0,0,1-.27.645.883.883,0,0,1-.644.269H-21.586a.844.844,0,0,1-.633-.269.906.906,0,0,1-.258-.645l.023-19.172a.9.9,0,0,1,.258-.644.844.844,0,0,1,.633-.269h10.9a.88.88,0,0,1,.644.269.883.883,0,0,1,.27.644V8.25h1.5V1.5A1.456,1.456,0,0,0-8.683.434,1.459,1.459,0,0,0-9.75,0H-22.5a1.468,1.468,0,0,0-1.055.434A1.436,1.436,0,0,0-24,1.5v21a1.436,1.436,0,0,0,.446,1.067A1.468,1.468,0,0,0-22.5,24Zm17.531-7.219a.743.743,0,0,0,.282-.059,1.069,1.069,0,0,0,.257-.153L0,12.023-4.43,7.476a.744.744,0,0,0-.539-.234.747.747,0,0,0-.539.234A.721.721,0,0,0-5.719,8a.719.719,0,0,0,.211.527l2.719,2.719H-15.727a.733.733,0,0,0-.539.211.736.736,0,0,0-.211.539.745.745,0,0,0,.211.527.712.712,0,0,0,.539.223H-2.742l-2.766,2.742a.783.783,0,0,0-.211.538.784.784,0,0,0,.211.539,1.058,1.058,0,0,0,.258.153A.734.734,0,0,0-4.969,16.781Z" transform="translate(24)" fill="#3f3b3b"/>
  </g>
</svg>
