<svg id="Icon_Social_Default_Twitter" data-name="Icon/Social/Default/Twitter" xmlns="http://www.w3.org/2000/svg" width="24" height="24" viewBox="0 0 24 24">
  <path data-name="Icon Color" d="M24,2.325a8.877,8.877,0,0,1-2.85.75,4.847,4.847,0,0,0,2.175-2.7,9.455,9.455,0,0,1-3.15,1.2A4.829,4.829,0,0,0,16.65,0,4.945,4.945,0,0,0,11.7,4.95a5.789,5.789,0,0,0,.15,1.125A13.843,13.843,0,0,1,1.725.9,4.721,4.721,0,0,0,1.05,3.375,5.074,5.074,0,0,0,3.225,7.5a4.582,4.582,0,0,1-2.25-.6v.075a4.907,4.907,0,0,0,3.975,4.8,7.389,7.389,0,0,1-1.275.15,3.651,3.651,0,0,1-.9-.075A5.01,5.01,0,0,0,7.35,15.3,9.688,9.688,0,0,1,1.2,17.4,6.452,6.452,0,0,1,0,17.325,13.77,13.77,0,0,0,7.575,19.5,13.917,13.917,0,0,0,21.6,5.475v-.6A11.131,11.131,0,0,0,24,2.325Z" transform="translate(0 2)" fill="#3f3b3b"/>
</svg>
