<svg data-name="Icon/Social/Outline/Behance" xmlns="http://www.w3.org/2000/svg" width="24" height="24" viewBox="0 0 24 24">
  <path data-name="Icon Color" d="M3.525,20.475a11.985,11.985,0,1,1,16.95-16.95,11.985,11.985,0,1,1-16.95,16.95ZM1.5,12A10.5,10.5,0,1,0,12,1.5,10.512,10.512,0,0,0,1.5,12Zm12.937,3.825a2.285,2.285,0,0,1-.9-.637,2.34,2.34,0,0,1-.562-.975,3.248,3.248,0,0,1-.187-1.237,3.306,3.306,0,0,1,.225-1.238,2.72,2.72,0,0,1,1.537-1.613,3.121,3.121,0,0,1,1.2-.225,2.786,2.786,0,0,1,1.274.3,2.548,2.548,0,0,1,.9.788,2.985,2.985,0,0,1,.488,1.125,3.827,3.827,0,0,1,.112,1.313H14.25a1.708,1.708,0,0,0,.412,1.125,1.382,1.382,0,0,0,1.012.337,1.291,1.291,0,0,0,.825-.263.885.885,0,0,0,.412-.525H18.3a2.664,2.664,0,0,1-1.012,1.5,2.913,2.913,0,0,1-1.65.45A2.986,2.986,0,0,1,14.437,15.825Zm.488-4.537a1.169,1.169,0,0,0-.412.338.9.9,0,0,0-.225.412c-.007.031-.015.061-.023.09a1.144,1.144,0,0,0-.052.285h2.551a1.4,1.4,0,0,0-.3-.938,1.11,1.11,0,0,0-.9-.338A1.148,1.148,0,0,0,14.925,11.288Zm-9.3,4.687v-8.1H9.338a4.21,4.21,0,0,1,1.012.113,2.51,2.51,0,0,1,.787.337,2.02,2.02,0,0,1,.525.6,2.321,2.321,0,0,1,.188.937,1.7,1.7,0,0,1-.263,1.013,2.344,2.344,0,0,1-.788.675,2.1,2.1,0,0,1,1.087.751,2.443,2.443,0,0,1,.337,1.312A2.3,2.3,0,0,1,12,14.663a2.067,2.067,0,0,1-.637.75,2.472,2.472,0,0,1-.9.412,4.7,4.7,0,0,1-1.013.15ZM7.35,14.55H9.187v.037h.077a1.649,1.649,0,0,0,.41-.036.837.837,0,0,0,.412-.188.6.6,0,0,0,.263-.338,1.087,1.087,0,0,0,.113-.525,1.11,1.11,0,0,0-.338-.9,1.341,1.341,0,0,0-.9-.263H7.35Zm0-3.451H9.113v.038h0a1.176,1.176,0,0,0,.745-.224.931.931,0,0,0,.3-.75.8.8,0,0,0-.112-.45l0,0a1.022,1.022,0,0,0-.259-.3,1.116,1.116,0,0,0-.375-.149,1.819,1.819,0,0,0-.45-.038H7.35Zm6.6-1.912V8.4h3.188v.788Z" fill="#3f3b3b"/>
</svg>
