<svg data-name="Icon/Social/OutlineTwitter" xmlns="http://www.w3.org/2000/svg" width="24" height="24" viewBox="0 0 24 24">
  <path data-name="Icon Color" d="M3.525,20.475a11.985,11.985,0,1,1,16.95-16.95,11.985,11.985,0,1,1-16.95,16.95ZM1.5,12A10.5,10.5,0,1,0,12,1.5,10.512,10.512,0,0,0,1.5,12ZM6,15.788a3.271,3.271,0,0,0,.6.037,4.844,4.844,0,0,0,3.075-1.049A2.507,2.507,0,0,1,7.387,13.05a1.815,1.815,0,0,0,.45.038,3.673,3.673,0,0,0,.638-.076,2.454,2.454,0,0,1-1.988-2.4v-.038a2.3,2.3,0,0,0,1.125.3A2.537,2.537,0,0,1,6.525,8.813a2.359,2.359,0,0,1,.338-1.238,6.923,6.923,0,0,0,5.062,2.587A2.88,2.88,0,0,1,11.85,9.6a2.472,2.472,0,0,1,2.475-2.475,2.413,2.413,0,0,1,1.762.787,4.737,4.737,0,0,0,1.575-.6,2.422,2.422,0,0,1-1.087,1.35A4.431,4.431,0,0,0,18,8.287a5.56,5.56,0,0,1-1.2,1.275v.3a6.959,6.959,0,0,1-7.013,7.013A6.887,6.887,0,0,1,6,15.788Z" fill="#3f3b3b"/>
</svg>
