<svg id="Icon_Social_Default_Youtube" data-name="Icon/Social/Default/Youtube" xmlns="http://www.w3.org/2000/svg" width="24" height="24" viewBox="0 0 24 24">
  <path data-name="Icon Color" d="M12,16.5h0c-.062,0-6.251-.077-8.175-.225-.071-.01-.153-.019-.247-.029A3.706,3.706,0,0,1,1.2,15.3a4.678,4.678,0,0,1-.975-2.325C.223,12.956,0,11.006,0,9.15V7.35C0,5.5.223,3.545.225,3.525A4.683,4.683,0,0,1,1.2,1.2,3.421,3.421,0,0,1,3.381.254c.084-.01.157-.019.219-.029C6.936,0,11.949,0,12,0s5.064,0,8.4.225a3.329,3.329,0,0,1,2.4.975,4.675,4.675,0,0,1,.976,2.326c0,.019.225,1.968.225,3.825v1.8a36.873,36.873,0,0,1-.225,3.825A4.676,4.676,0,0,1,22.8,15.3a3.42,3.42,0,0,1-2.181.945c-.084.01-.157.019-.219.029C17.064,16.5,12.05,16.5,12,16.5ZM9.525,4.725v6.6l6.45-3.3Z" transform="translate(0 4)" fill="#3f3b3b"/>
</svg>
