<svg id="Icon_Social_OutlineYoutube" data-name="Icon/Social/OutlineYoutube" xmlns="http://www.w3.org/2000/svg" width="24" height="24" viewBox="0 0 24 24">
  <path data-name="Icon Color" d="M3.525,20.475a11.985,11.985,0,1,1,16.95-16.95,11.985,11.985,0,1,1-16.95,16.95ZM1.5,12A10.5,10.5,0,1,0,12,1.5,10.512,10.512,0,0,0,1.5,12Zm6.413,4.013c-.036-.005-.078-.01-.125-.014A1.852,1.852,0,0,1,6.6,15.525a2.336,2.336,0,0,1-.488-1.163c0-.01-.113-.987-.113-1.913v-.9c0-.922.111-1.9.113-1.913A2.334,2.334,0,0,1,6.6,8.475,1.708,1.708,0,0,1,7.69,8c.042-.005.079-.01.111-.015,1.668-.112,4.175-.113,4.2-.113s2.531,0,4.2.113a1.666,1.666,0,0,1,1.2.488,2.357,2.357,0,0,1,.487,1.162c0,.01.112.988.112,1.913v.9a18.59,18.59,0,0,1-.112,1.913,2.359,2.359,0,0,1-.487,1.163,1.712,1.712,0,0,1-1.09.472c-.042.005-.079.01-.111.015-1.669.112-4.174.112-4.2.112S8.873,16.087,7.913,16.013Zm2.85-2.475,3.225-1.651-3.225-1.65Z" fill="#3f3b3b"/>
</svg>
