<svg id="Icon_Social_Default_Behance" data-name="Icon/Social/Default/Behance" xmlns="http://www.w3.org/2000/svg" width="24" height="24" viewBox="0 0 24 24">
  <path data-name="Icon Color" d="M16.377,14.774a4.243,4.243,0,0,1-1.672-1.185,4.288,4.288,0,0,1-1.046-1.812,5.989,5.989,0,0,1-.348-2.3,6.183,6.183,0,0,1,.419-2.3,5.276,5.276,0,0,1,1.115-1.812,5.166,5.166,0,0,1,1.741-1.184,5.821,5.821,0,0,1,2.23-.419,5.186,5.186,0,0,1,2.37.557,4.749,4.749,0,0,1,1.673,1.464,5.6,5.6,0,0,1,.905,2.091,7.123,7.123,0,0,1,.21,2.439H16.029A3.171,3.171,0,0,0,16.8,12.4a2.562,2.562,0,0,0,1.881.627,2.4,2.4,0,0,0,1.534-.488,1.653,1.653,0,0,0,.767-.976h2.578a4.958,4.958,0,0,1-1.882,2.787,5.421,5.421,0,0,1-3.066.836A5.568,5.568,0,0,1,16.377,14.774Zm.906-8.433a2.195,2.195,0,0,0-.767.627,1.672,1.672,0,0,0-.418.767c-.014.058-.029.113-.042.166a2.131,2.131,0,0,0-.1.531H20.7a2.611,2.611,0,0,0-.557-1.742,2.072,2.072,0,0,0-1.673-.627A2.14,2.14,0,0,0,17.284,6.341ZM0,15.053V0H6.9A7.809,7.809,0,0,1,8.781.209a4.663,4.663,0,0,1,1.463.627,3.766,3.766,0,0,1,.97,1.107l.005.008a4.347,4.347,0,0,1,.348,1.742,3.159,3.159,0,0,1-.488,1.882A4.384,4.384,0,0,1,9.617,6.83a3.9,3.9,0,0,1,2.021,1.393,4.552,4.552,0,0,1,.627,2.44,4.271,4.271,0,0,1-.418,1.951,3.865,3.865,0,0,1-1.184,1.393,4.587,4.587,0,0,1-1.673.767,8.838,8.838,0,0,1-1.882.279ZM3.206,12.4H6.62v.07h.109a3.231,3.231,0,0,0,.8-.069,1.554,1.554,0,0,0,.767-.348,1.121,1.121,0,0,0,.488-.627,2.021,2.021,0,0,0,.209-.976,2.067,2.067,0,0,0-.627-1.672,2.487,2.487,0,0,0-1.672-.488H3.206Zm0-6.412H6.481v.07a2.211,2.211,0,0,0,1.394-.418,1.729,1.729,0,0,0,.558-1.393,1.491,1.491,0,0,0-.21-.837l0,0a1.876,1.876,0,0,0-.484-.553,2.062,2.062,0,0,0-.7-.279A3.432,3.432,0,0,0,6.2,2.509h-3ZM15.472,2.439V.976H21.4V2.439Z" transform="translate(0 4)" fill="#3f3b3b"/>
</svg>
