<svg xmlns="http://www.w3.org/2000/svg" width="24.003" height="24.003" viewBox="0 0 24.003 24.003">
  <g id="Icon_Social_Default_Instagram" data-name="Icon/Social/Default/Instagram" transform="translate(0.003 0.003)">
    <path data-name="Icon Color" d="M7.551,23.929a7.981,7.981,0,0,1-3.036-.564,7.427,7.427,0,0,1-2.329-1.553A5.883,5.883,0,0,1,.633,19.482a9.677,9.677,0,0,1-.565-3.036C0,15.246,0,14.876,0,12s0-3.247.07-4.448A7.991,7.991,0,0,1,.633,4.515,7.443,7.443,0,0,1,2.186,2.186,5.877,5.877,0,0,1,4.515.633,9.682,9.682,0,0,1,7.551.068C8.752,0,9.122,0,12,0s3.247,0,4.448.07a7.991,7.991,0,0,1,3.036.565,7.438,7.438,0,0,1,2.329,1.553,5.877,5.877,0,0,1,1.553,2.329,9.618,9.618,0,0,1,.564,3.036C24,8.752,24,9.122,24,12s0,3.247-.071,4.448a7.978,7.978,0,0,1-.564,3.036,7.438,7.438,0,0,1-1.553,2.329,5.874,5.874,0,0,1-2.329,1.553,9.618,9.618,0,0,1-3.036.564C15.246,24,14.876,24,12,24S8.752,24,7.551,23.929ZM5.729,3.217l-.084.028a3.754,3.754,0,0,0-1.412.918,3.754,3.754,0,0,0-.917,1.412,5.458,5.458,0,0,0-.424,2.118c-.07,1.129-.07,1.491-.07,4.306v4.235a7.047,7.047,0,0,0,.4,2.036l.028.083a3.751,3.751,0,0,0,.918,1.411,3.739,3.739,0,0,0,1.412.918,5.458,5.458,0,0,0,2.118.424c1.129.07,1.491.07,4.306.07h4.235a7.016,7.016,0,0,0,2.036-.4l.083-.028a4.062,4.062,0,0,0,2.329-2.33,5.466,5.466,0,0,0,.424-2.118c.07-1.129.07-1.491.07-4.306V7.763a7.008,7.008,0,0,0-.4-2.035l-.028-.084a3.754,3.754,0,0,0-.918-1.412,3.754,3.754,0,0,0-1.412-.917,5.466,5.466,0,0,0-2.118-.424c-1.129-.07-1.491-.07-4.306-.07H7.763A7.008,7.008,0,0,0,5.729,3.217ZM7.6,16.4A6.265,6.265,0,1,1,12,18.212,6.18,6.18,0,0,1,7.6,16.4ZM8.61,12A3.389,3.389,0,1,0,12,8.61,3.434,3.434,0,0,0,8.61,12Zm8.048-6A1.341,1.341,0,1,1,18,7.339,1.341,1.341,0,0,1,16.658,6Z" fill="#3f3b3b"/>
  </g>
</svg>
