<svg id="Icon_Social_Default_Linkedin" data-name="Icon/Social/Default/Linkedin" xmlns="http://www.w3.org/2000/svg" width="24" height="24.001" viewBox="0 0 24 24.001">
  <path data-name="Icon Color" d="M13.44,23H8.294c0-.125.07-14.054,0-15.52H13.44v2.2l-.016.024-.018.027h.034V9.68a5.077,5.077,0,0,1,4.637-2.564,5.562,5.562,0,0,1,4.232,1.705A7.561,7.561,0,0,1,24,14.1V23H18.856V14.7c0-2.3-.9-3.509-2.605-3.509a2.867,2.867,0,0,0-2.64,1.887,3.423,3.423,0,0,0-.171,1.258V23ZM5.45,23H.306V7.481H5.45V23ZM2.878,5.364H2.843A2.689,2.689,0,1,1,2.912,0,2.673,2.673,0,0,1,5.788,2.681,2.682,2.682,0,0,1,2.878,5.364Z" transform="translate(0 1)" fill="#3f3b3b"/>
</svg>
