<svg xmlns="http://www.w3.org/2000/svg" width="24.001" height="24" viewBox="0 0 24.001 24">
  <g id="Icon_Star" data-name="Icon/Star" transform="translate(0.001)">
    <path data-name="Icon Color" d="M18.334,24a1.79,1.79,0,0,1-.9-.263L12.109,20.25a.169.169,0,0,0-.187,0L6.6,23.738A2.081,2.081,0,0,1,5.659,24a1.6,1.6,0,0,1-1.313-.638,1.517,1.517,0,0,1-.3-1.425l1.5-6.563c0-.073,0-.149-.076-.187L.559,10.762a1.781,1.781,0,0,1-.488-1.8A1.66,1.66,0,0,1,1.534,7.837L7.871,7.35c.078,0,.115-.043.15-.113l2.363-6.151A1.741,1.741,0,0,1,12,0a1.662,1.662,0,0,1,1.575,1.087l2.363,6.151c.035.069.073.113.15.113l6.338.487a1.66,1.66,0,0,1,1.462,1.125,1.64,1.64,0,0,1-.488,1.8l-4.912,4.425a.285.285,0,0,0-.076.187l1.538,6.563a1.752,1.752,0,0,1-.3,1.425A1.657,1.657,0,0,1,18.334,24ZM12,18.713a2.094,2.094,0,0,1,.938.262l5.325,3.487a.134.134,0,0,0,.1.041.245.245,0,0,0,.164-.078c.038-.038.038-.075.038-.15l-1.537-6.563a1.712,1.712,0,0,1,.525-1.65L22.5,9.675c.074-.074.075-.15.038-.187-.036-.071-.072-.113-.15-.113l-6.338-.488A1.669,1.669,0,0,1,14.621,7.8L12.184,1.613a.183.183,0,0,0-.338,0L9.484,7.763A1.738,1.738,0,0,1,8.059,8.85l-6.375.488c-.075,0-.15.039-.15.113a.255.255,0,0,1,0,.031c-.007.05-.018.126.041.156l4.95,4.388a1.716,1.716,0,0,1,.525,1.651L5.509,22.237c0,.075,0,.112.038.15a.179.179,0,0,0,.262.038l5.325-3.487A1.55,1.55,0,0,1,12,18.713Z" fill="#3f3b3b"/>
  </g>
</svg>
