<svg xmlns="http://www.w3.org/2000/svg" width="24.001" height="24" viewBox="0 0 24.001 24">
  <g id="Icon_Star_Half" data-name="Icon/Star Half" transform="translate(0.001)">
    <path data-name="Icon Color" d="M17.434,23.738,12.109,20.25a.206.206,0,0,0-.094-.028H12a.245.245,0,0,0-.078.027L6.6,23.738A2.087,2.087,0,0,1,5.659,24a1.594,1.594,0,0,1-1.313-.638,1.557,1.557,0,0,1-.366-.985,1.481,1.481,0,0,1,.066-.44l1.5-6.563c0-.073,0-.149-.076-.187L.559,10.762A1.767,1.767,0,0,1,0,9.453a1.787,1.787,0,0,1,.072-.49A1.66,1.66,0,0,1,1.534,7.837L7.871,7.35c.077,0,.115-.043.15-.113l2.363-6.151A1.742,1.742,0,0,1,12,0a1.663,1.663,0,0,1,1.575,1.087l2.363,6.151c.035.069.073.113.15.113l6.338.487a1.66,1.66,0,0,1,1.462,1.125,1.64,1.64,0,0,1-.488,1.8l-4.912,4.425a.287.287,0,0,0-.076.187l1.538,6.563a1.751,1.751,0,0,1-.3,1.425A1.656,1.656,0,0,1,18.334,24,1.8,1.8,0,0,1,17.434,23.738Zm-4.5-4.763,5.325,3.487a.135.135,0,0,0,.1.041.246.246,0,0,0,.164-.078c.038-.038.038-.076.038-.15l-1.537-6.563a1.712,1.712,0,0,1,.525-1.65L22.5,9.675c.074-.074.075-.15.038-.187-.036-.071-.072-.113-.15-.113l-6.338-.488A1.668,1.668,0,0,1,14.621,7.8L12.184,1.613a.191.191,0,0,0-.169-.112H12l0,17.212A2.1,2.1,0,0,1,12.934,18.975Z" transform="translate(0 0)" fill="#3f3b3b"/>
  </g>
</svg>
