<svg xmlns="http://www.w3.org/2000/svg" width="24" height="24" viewBox="0 0 24 24">
  <g data-name="Icon/Star Fill" transform="translate(0)">
    <path data-name="Icon Color" d="M17.434,23.738,12.109,20.25a.169.169,0,0,0-.187,0L6.6,23.738A2.066,2.066,0,0,1,5.659,24a1.6,1.6,0,0,1-1.313-.638,1.526,1.526,0,0,1-.3-1.425l1.5-6.563c0-.075,0-.149-.076-.187L.559,10.762a1.786,1.786,0,0,1-.488-1.8A1.655,1.655,0,0,1,1.534,7.837L7.871,7.35c.075,0,.112-.038.15-.113l2.363-6.151A1.743,1.743,0,0,1,12,0a1.656,1.656,0,0,1,1.575,1.087l2.363,6.151c.038.075.076.113.15.113l6.338.487a1.667,1.667,0,0,1,.975,2.925l-4.912,4.425a.286.286,0,0,0-.076.187l1.538,6.563a1.762,1.762,0,0,1-.3,1.425A1.649,1.649,0,0,1,18.334,24,1.8,1.8,0,0,1,17.434,23.738Z" fill="#ff9138"/>
  </g>
</svg>
