<svg id="Icon_Sync" data-name="Icon/Sync" xmlns="http://www.w3.org/2000/svg" width="24" height="24" viewBox="0 0 24 24">
  <path data-name="Icon Color" d="M6.173,24a.48.48,0,0,1-.143-.022.55.55,0,0,1-.3-.247l-.07-.188a.488.488,0,0,1-.058-.4.466.466,0,0,1,.244-.305l1.886-.986H7.683a.069.069,0,0,1-.047-.023,9.122,9.122,0,0,1-2-.752,10.867,10.867,0,0,1-1.793-1.163,9.93,9.93,0,0,1-1.514-1.5,10.852,10.852,0,0,1-1.187-1.82A10.617,10.617,0,0,1,.4,14.7a10.153,10.153,0,0,1-.361-1.973A10.9,10.9,0,0,1,.059,10.72a9.555,9.555,0,0,1,.431-2,9.319,9.319,0,0,1,.8-1.867A11.08,11.08,0,0,1,2.445,5.2,10.328,10.328,0,0,1,3.889,3.792a9.883,9.883,0,0,1,1.723-1.1A.643.643,0,0,1,5.926,2.6a.689.689,0,0,1,.221.038A.732.732,0,0,1,6.263,3.98,9.27,9.27,0,0,0,3.551,6.141,8.6,8.6,0,0,0,1.863,9.17a8.833,8.833,0,0,0-.384,3.441,9.109,9.109,0,0,0,.943,3.323,9.832,9.832,0,0,0,1.024,1.538,8.761,8.761,0,0,0,2.829,2.291,8.471,8.471,0,0,0,1.734.657l.349.095L6.985,18.353a.725.725,0,0,1-.105-.423.36.36,0,0,1,.2-.329l.186-.118a.568.568,0,0,1,.279-.078.524.524,0,0,1,.14.019.549.549,0,0,1,.326.247l2.142,3.382v.023l.14.211a.4.4,0,0,1,.081.2.541.541,0,0,1-.012.2.421.421,0,0,1-.093.176,1.057,1.057,0,0,1-.163.153l-.233.117L6.4,23.942A.507.507,0,0,1,6.173,24Zm8.96-2.5a.688.688,0,0,1-.361-.106A.7.7,0,0,1,14.5,21.1a.718.718,0,0,1-.047-.563.726.726,0,0,1,.349-.423,8.837,8.837,0,0,0,4.33-5.19,8.842,8.842,0,0,0-.559-6.764A9.057,9.057,0,0,0,16.3,5.318,8.26,8.26,0,0,0,13.46,3.787l-.4-.113a2.444,2.444,0,0,0-.29-.078l-.152-.028c-.161-.024-.306-.051-.443-.082L13.55,5.647a.662.662,0,0,1,.094.422.4.4,0,0,1-.142.286l-.254.16a.48.48,0,0,1-.259.078.5.5,0,0,1-.137-.02.542.542,0,0,1-.326-.247L10.383,2.947H10.36l-.116-.235a.4.4,0,0,1-.081-.2.548.548,0,0,1,.012-.2.42.42,0,0,1,.093-.175,1.024,1.024,0,0,1,.163-.153l.233-.117L14.132.058A.538.538,0,0,1,14.375,0a.652.652,0,0,1,.165.022.556.556,0,0,1,.337.247l.069.188a.407.407,0,0,1,.023.4.725.725,0,0,1-.279.329l-1.863.94c.115.016.215.035.315.059s.2.051.291.082a10.573,10.573,0,0,1,2,.763A9.6,9.6,0,0,1,17.2,4.18a10.467,10.467,0,0,1,1.49,1.5A9.826,9.826,0,0,1,19.859,7.5,10.69,10.69,0,0,1,20.6,9.393a10.222,10.222,0,0,1,.361,1.973,10.981,10.981,0,0,1-.023,2.008,9.5,9.5,0,0,1-.431,2A10.126,10.126,0,0,1,18.59,18.9a10.476,10.476,0,0,1-1.42,1.4,9.858,9.858,0,0,1-1.687,1.1,1.069,1.069,0,0,1-.175.071A.641.641,0,0,1,15.133,21.5Z" transform="translate(2)" fill="#3f3b3b"/>
</svg>
