<svg id="Icon_Target" data-name="Icon/Target" xmlns="http://www.w3.org/2000/svg" width="24" height="24" viewBox="0 0 24 24">
  <path data-name="Combined Shape" d="M11.187,22.642V20.417a9.014,9.014,0,0,1-8.143-8.144H.818a.818.818,0,1,1,0-1.636H3.044A9.017,9.017,0,0,1,11.182,2.5V.818a.818.818,0,1,1,1.636,0V2.5a9.017,9.017,0,0,1,8.139,8.138h1.68a.818.818,0,1,1,0,1.636h-1.68a9.018,9.018,0,0,1-8.133,8.144v2.226a.818.818,0,1,1-1.636,0ZM4.637,11.454A7.363,7.363,0,1,0,12,4.09,7.371,7.371,0,0,0,4.637,11.454Zm2.727,0A4.636,4.636,0,1,1,12,16.091,4.642,4.642,0,0,1,7.364,11.455Zm1.636,0a3,3,0,1,0,3-3A3,3,0,0,0,9,11.455Z" transform="translate(0.12 0.491)" fill="#3f3b3b"/>
</svg>
