<?xml version="1.0" encoding="UTF-8"?>
<svg width="22px" height="20px" viewBox="0 0 22 20" version="1.1" xmlns="http://www.w3.org/2000/svg" xmlns:xlink="http://www.w3.org/1999/xlink">
    <title>layers</title>
    <g stroke="none" stroke-width="1" fill="none" fill-rule="evenodd" opacity="0.800000012">
        <g transform="translate(-984.000000, -411.000000)" fill="#FFFFFF" fill-rule="nonzero">
            <g transform="translate(618.000000, 396.000000)">
                <g>
                    <g transform="translate(12.000000, 9.000000)">
                        <g id="Group-2-Copy-2" transform="translate(354.000000, 6.000000)">
                            <g>
                                <g>
                                    <g>
                                        <path d="M21.3125,0 C21.692,0 22,0.3073125 22,0.6875 L22,0.6875 L22,18.5625 C22,18.9426875 21.692,19.25 21.3125,19.25 L21.3125,19.25 L0.6875,19.25 C0.308,19.25 0,18.9426875 0,18.5625 L0,18.5625 L0,0.6875 C0,0.3073125 0.308,0 0.6875,0 L0.6875,0 Z M20.625,1.375 L1.375,1.375 L1.375,14.840375 L5.7014375,10.5139375 C5.952375,10.2623125 6.35525,10.24375 6.6275,10.4713125 L6.6275,10.4713125 L13.1058125,15.9410625 L11.07425,12.5455 L15.2989375,7.7935 C15.5601875,7.49925 16.0655,7.49925 16.32675,7.7935 L16.32675,7.7935 L20.625,12.629375 L20.625,1.375 Z M9.96875,4.8125 C10.9179894,4.8125 11.6875,5.58201059 11.6875,6.53125 C11.6875,7.48048941 10.9179894,8.25 9.96875,8.25 C9.01951059,8.25 8.25,7.48048941 8.25,6.53125 C8.25,5.58201059 9.01951059,4.8125 9.96875,4.8125 Z"></path>
                                    </g>
                                </g>
                            </g>
                        </g>
                    </g>
                </g>
            </g>
        </g>
    </g>
</svg>