<svg data-name="Icon/Thumb Down" xmlns="http://www.w3.org/2000/svg" width="24" height="24" viewBox="0 0 24 24">
  <path data-name="Icon Color" d="M10.5-21a9.019,9.019,0,0,0-3.95.949L5-19.3v6.665A7,7,0,0,0,6.622-8.153l.524.628A8,8,0,0,1,9-2.4v.9A1.5,1.5,0,0,0,10.5,0a2.1,2.1,0,0,0,.75-.2A6.756,6.756,0,0,0,14-5.5V-7a1,1,0,0,1,1-1h3.5A2.487,2.487,0,0,0,21-10.55v-.05l-1-7.95A2.5,2.5,0,0,0,17.5-21ZM.5-21a.472.472,0,0,0-.5.5v11A.472.472,0,0,0,.5-9h3A.472.472,0,0,0,4-9.5v-11a.472.472,0,0,0-.5-.5Z" transform="translate(0 24)" fill="#3f3b3b"/>
</svg>
