<svg data-name="Icon/Thumb Up" xmlns="http://www.w3.org/2000/svg" xmlns:xlink="http://www.w3.org/1999/xlink" width="24" height="24" viewBox="0 0 24 24">
  <defs>
    <clipPath>
      <path data-name="Icon Color" d="M10.5,21a9.019,9.019,0,0,1-3.95-.949L5,19.3V12.634A7,7,0,0,1,6.622,8.153l.524-.628A8,8,0,0,0,9,2.4V1.5A1.5,1.5,0,0,1,10.5,0a2.1,2.1,0,0,1,.75.2A6.756,6.756,0,0,1,14,5.5V7a1,1,0,0,0,1,1h3.5A2.487,2.487,0,0,1,21,10.55v.05l-1,7.95A2.5,2.5,0,0,1,17.5,21ZM.5,21a.472.472,0,0,1-.5-.5V9.5A.472.472,0,0,1,.5,9h3a.472.472,0,0,1,.5.5v11a.472.472,0,0,1-.5.5Z" fill="#3f3b3b"/>
    </clipPath>
  </defs>
  <g data-name="Group 18">
    <path data-name="Icon Color" d="M10.5,21a9.019,9.019,0,0,1-3.95-.949L5,19.3V12.634A7,7,0,0,1,6.622,8.153l.524-.628A8,8,0,0,0,9,2.4V1.5A1.5,1.5,0,0,1,10.5,0a2.1,2.1,0,0,1,.75.2A6.756,6.756,0,0,1,14,5.5V7a1,1,0,0,0,1,1h3.5A2.487,2.487,0,0,1,21,10.55v.05l-1,7.95A2.5,2.5,0,0,1,17.5,21ZM.5,21a.472.472,0,0,1-.5-.5V9.5A.472.472,0,0,1,.5,9h3a.472.472,0,0,1,.5.5v11a.472.472,0,0,1-.5.5Z" fill="#3f3b3b"/>
  </g>
</svg>
