<svg id="Icon_Upload" data-name="Icon/Upload" xmlns="http://www.w3.org/2000/svg" width="24" height="24" viewBox="0 0 24 24">
  <path data-name="Icon Color" d="M12,24a11.82,11.82,0,0,1-4.675-.938A11.945,11.945,0,0,1,.938,16.676,11.814,11.814,0,0,1,0,12,11.805,11.805,0,0,1,.938,7.324,11.937,11.937,0,0,1,7.324.938,11.805,11.805,0,0,1,12,0a11.814,11.814,0,0,1,4.676.938,11.945,11.945,0,0,1,6.386,6.386A11.82,11.82,0,0,1,24,12a11.829,11.829,0,0,1-.938,4.676,11.953,11.953,0,0,1-6.386,6.386A11.829,11.829,0,0,1,12,24ZM12,1.5a10.18,10.18,0,0,0-4.09.832,10.89,10.89,0,0,0-3.34,2.25A10.636,10.636,0,0,0,2.309,7.91a10.474,10.474,0,0,0,0,8.18A10.649,10.649,0,0,0,4.57,19.418a10.908,10.908,0,0,0,3.34,2.25,10.474,10.474,0,0,0,8.18,0,10.585,10.585,0,0,0,5.578-5.578,10.474,10.474,0,0,0,0-8.18A10.585,10.585,0,0,0,16.09,2.332,10.182,10.182,0,0,0,12,1.5ZM12,18a.745.745,0,0,1-.527-.211.715.715,0,0,1-.222-.539V8.766L8.508,11.531a.793.793,0,0,1-1.078,0,1.055,1.055,0,0,1-.152-.257.705.705,0,0,1,0-.562,1.055,1.055,0,0,1,.152-.257l4.547-4.43,4.547,4.43a.735.735,0,0,1,0,1.077.763.763,0,0,1-1.055,0L12.75,8.813V17.25A.722.722,0,0,1,12,18Z" fill="#3f3b3b"/>
</svg>
