<?xml version="1.0" encoding="UTF-8"?>
<svg width="22px" height="21px" viewBox="0 0 22 21" version="1.1" xmlns="http://www.w3.org/2000/svg" xmlns:xlink="http://www.w3.org/1999/xlink">
    <title>layers</title>
    <g stroke="none" stroke-width="1" fill="none" fill-rule="evenodd" opacity="0.800000012">
        <g transform="translate(-819.000000, -411.000000)" fill="#FFFFFF" fill-rule="nonzero">
            <g transform="translate(618.000000, 396.000000)">
                <g>
                    <g transform="translate(12.000000, 9.000000)">
                        <g id="Group-2-Copy" transform="translate(189.000000, 6.000000)">
                            <g>
                                <g>
                                    <g>
                                        <g id="widget">
                                            <path d="M21.0434783,0 L0.956521739,0 C0.428043478,0 0,0.428043478 0,0.956521739 L0,19.1304348 C0,19.658913 0.428043478,20.0869565 0.956521739,20.0869565 L21.0434783,20.0869565 C21.5719565,20.0869565 22,19.658913 22,19.1304348 L22,0.956521739 C22,0.428043478 21.5719565,0 21.0434783,0 Z M9.08695652,1.43478261 C9.61543478,1.43478261 10.0434783,1.86282609 10.0434783,2.39130435 C10.0434783,2.91978261 9.61543478,3.34782609 9.08695652,3.34782609 C8.55847826,3.34782609 8.13043478,2.91978261 8.13043478,2.39130435 C8.13043478,1.86282609 8.55847826,1.43478261 9.08695652,1.43478261 Z M5.73913043,1.43478261 C6.2676087,1.43478261 6.69565217,1.86282609 6.69565217,2.39130435 C6.69565217,2.91978261 6.2676087,3.34782609 5.73913043,3.34782609 C5.21065217,3.34782609 4.7826087,2.91978261 4.7826087,2.39130435 C4.7826087,1.86282609 5.21065217,1.43478261 5.73913043,1.43478261 Z M2.39130435,1.43478261 C2.91978261,1.43478261 3.34782609,1.86282609 3.34782609,2.39130435 C3.34782609,2.91978261 2.91978261,3.34782609 2.39130435,3.34782609 C1.86282609,3.34782609 1.43478261,2.91978261 1.43478261,2.39130435 C1.43478261,1.86282609 1.86282609,1.43478261 2.39130435,1.43478261 Z M20.5652174,19.1304348 L1.43478261,19.1304348 C1.17078261,19.1304348 0.956521739,18.9161739 0.956521739,18.6521739 L0.956521739,5.26086957 C0.956521739,4.99686957 1.17078261,4.7826087 1.43478261,4.7826087 L20.5652174,4.7826087 C20.8292174,4.7826087 21.0434783,4.99686957 21.0434783,5.26086957 L21.0434783,18.6521739 C21.0434783,18.9161739 20.8292174,19.1304348 20.5652174,19.1304348 Z M4,8 L18,8 C18.5522847,8 19,8.44771525 19,9 C19,9.55228475 18.5522847,10 18,10 L4,10 C3.44771525,10 3,9.55228475 3,9 C3,8.44771525 3.44771525,8 4,8 Z M4,12 L10,12 C10.5522847,12 11,12.4477153 11,13 C11,13.5522847 10.5522847,14 10,14 L4,14 C3.44771525,14 3,13.5522847 3,13 C3,12.4477153 3.44771525,12 4,12 Z" id="Shape"></path>
                                        </g>
                                    </g>
                                </g>
                            </g>
                        </g>
                    </g>
                </g>
            </g>
        </g>
    </g>
</svg>