<svg id="Vector_Plant_02_Dark" data-name="Vector/Plant 02/Dark" xmlns="http://www.w3.org/2000/svg" width="161" height="232" viewBox="0 0 161 232">
  <rect id="Vector_Plant_02_Dark_background" data-name="Vector/Plant 02/Dark background" width="161" height="232" fill="none"/>
  <g id="Vector_Plan_02_Dark" data-name="Vector/Plan 02/Dark">
    <path data-name="Combined Shape" d="M19.335,221A12.753,12.753,0,0,1,6.575,209.078L1.883,134.006l-.407-6.615-.17-2.749-.422-6.615-.17-2.749-.407-6.615-.3-4.675a6.589,6.589,0,0,1,1.8-4.906A6.68,6.68,0,0,1,6.628,97H29V2.5a2.5,2.5,0,0,1,5,0V97H56.377a6.681,6.681,0,0,1,4.835,2.1,6.588,6.588,0,0,1,1.775,4.937l-.289,4.675-.415,6.615-.17,2.749-.407,6.615-.177,2.75-.415,6.614-4.677,75.02A12.767,12.767,0,0,1,43.662,221Z" transform="translate(67.5 11)" fill="#121212"/>
    <path id="Combined_Shape-2" data-name="Combined Shape" d="M38.326,79.562C11.256,60.229,0,30,0,30S32.612,31.1,59.667,50.431,98,100,98,100,65.395,98.895,38.326,79.562Zm81.086-42.248C136.26,18.809,160,13,160,13s-3.579,24.167-20.412,42.672S99,80,99,80,102.579,55.812,119.412,37.314ZM65.7,26.907C51.094,16.42,45,0,45,0S62.61.6,77.251,11.093,98,38,98,38,80.316,37.394,65.7,26.907Z" transform="translate(0.5)" fill="#fff"/>
  </g>
</svg>
