<svg xmlns="http://www.w3.org/2000/svg" width="54" height="28" viewBox="0 0 54 28">
  <path d="M42.44,24l0-.046H32.8a.089.089,0,0,1,0,.015.167.167,0,0,1,0,.031A3.856,3.856,0,1,1,25.1,24l0-.046H21.245V0h21.2V6h5.535l2.293,8A3.8,3.8,0,0,1,54,17.732V20.1a3.909,3.909,0,0,1-3.857,3.857l0,.046a3.856,3.856,0,1,1-7.707,0Zm1.927,0a1.928,1.928,0,1,0,1.926-2A1.966,1.966,0,0,0,44.366,24ZM27.025,24a1.928,1.928,0,1,0,1.926-2A1.966,1.966,0,0,0,27.025,24Zm22.56-2.047h2.488V16H40.513V2H23.171V21.954h2.488a3.751,3.751,0,0,1,6.585,0H43a3.751,3.751,0,0,1,6.585,0ZM42.44,14h5.818L46.537,8h-4.1ZM12,17a1,1,0,0,1,0-2h5a1,1,0,0,1,0,2ZM5,12a1,1,0,1,1,0-2H17a1,1,0,0,1,0,2ZM1,7A1,1,0,0,1,1,5H17a1,1,0,0,1,0,2Z" fill="#fff"/>
</svg>
