<svg xmlns="http://www.w3.org/2000/svg" width="436" height="519.5" viewBox="0 0 436 519.5">
  <g id="Vector" transform="translate(0 0.75)">
    <g id="Vector_Iphone_Light" data-name="Vector/Iphone/Light" transform="translate(108)">
      <path id="Border_02" data-name="Border 02" d="M37.032,517.871a42.633,42.633,0,0,1-6.992-.646,36.264,36.264,0,0,1-12.43-5.17A34.43,34.43,0,0,1,5.05,496.8a37.612,37.612,0,0,1-2.072-6.462,31.858,31.858,0,0,1-.647-6.979V191.148H.518A.556.556,0,0,1,0,190.631V156.253a.556.556,0,0,1,.518-.517H2.33V144.362H.518A.556.556,0,0,1,0,143.846V109.467a.556.556,0,0,1,.518-.517H2.33V89.694H.518A.556.556,0,0,1,0,89.177V71.6a.556.556,0,0,1,.518-.517H2.33V34.637a42.4,42.4,0,0,1,.647-6.979A36.128,36.128,0,0,1,8.157,15.251,34.467,34.467,0,0,1,23.436,2.714,37.761,37.761,0,0,1,29.91.646,32.032,32.032,0,0,1,36.9,0H223.227a42.622,42.622,0,0,1,6.992.646,36.265,36.265,0,0,1,12.43,5.17,34.43,34.43,0,0,1,12.56,15.251,37.616,37.616,0,0,1,2.072,6.462,31.858,31.858,0,0,1,.647,6.979v86.334h1.554a.556.556,0,0,1,.518.517v56.091a.556.556,0,0,1-.518.517h-1.554v305.4a42.409,42.409,0,0,1-.647,6.979A36.123,36.123,0,0,1,252.1,502.75a34.466,34.466,0,0,1-15.279,12.536,37.746,37.746,0,0,1-6.474,2.068,32.027,32.027,0,0,1-6.992.646Z" fill="none" stroke="#ffffff" stroke-miterlimit="10" stroke-width="1.5"/>
      <path id="Border_01" data-name="Border 01" d="M212.854,497.28H24.012C10.717,497.28,0,486.893,0,474.007V23.273C0,10.387,10.717,0,24.012,0h25.5a3.968,3.968,0,0,1,3.256,3.156,5.672,5.672,0,0,1,.271,1.709c.271,1.315.543,2.893.95,4.47a11.865,11.865,0,0,0,11.667,9.072H171.613A11.866,11.866,0,0,0,183.28,9.335a37.735,37.735,0,0,0,.95-4.47,10.605,10.605,0,0,0,.271-1.709A3.968,3.968,0,0,1,187.757,0h24.826c13.295,0,24.012,10.387,24.012,23.273V474.007C236.866,486.893,226.149,497.28,212.854,497.28Z" transform="translate(11.267 9.497)" fill="none" stroke="#ffffff" stroke-miterlimit="10" stroke-width="1.5"/>
    </g>
    <g id="Vector_Bubble_Light" data-name="Vector/Bubble/Light" transform="translate(0 128)">
      <rect width="159.252" height="88.77" rx="7" transform="translate(0 0)" fill="#121212"/>
      <path data-name="Combined Shape" d="M6.368,36.674a6.368,6.368,0,1,1,0-12.736H69.277a6.368,6.368,0,1,1,0,12.736Zm0-23.938A6.368,6.368,0,1,1,6.368,0H116.057a6.368,6.368,0,1,1,0,12.736Z" transform="translate(21.897 26.086)" fill="#fff"/>
    </g>
    <g id="Vector_Bubble_Light-2" data-name="Vector/Bubble/Light" transform="translate(276 346)">
      <rect id="Background-2" data-name="Background" width="159.252" height="88.77" rx="7" transform="translate(0 0)" fill="#121212"/>
      <path id="Combined_Shape-2" data-name="Combined Shape" d="M6.368,36.674a6.368,6.368,0,1,1,0-12.736H69.277a6.368,6.368,0,1,1,0,12.736Zm0-23.938A6.368,6.368,0,1,1,6.368,0H116.057a6.368,6.368,0,1,1,0,12.736Z" transform="translate(21.897 26.086)" fill="#fff"/>
    </g>
  </g>
</svg>
