<svg id="Vector_Envelope_Dark" data-name="Vector/Envelope/Dark" xmlns="http://www.w3.org/2000/svg" width="800" height="303" viewBox="0 0 800 303">
  <rect id="Vector_Envelope_Dark_background" data-name="Vector/Envelope/Dark background" width="800" height="303" fill="none"/>
  <g id="Vector_Illustration" data-name="Vector/Illustration" transform="translate(22.953 29.341)">
    <path id="Color" d="M157.624,273.61a2.152,2.152,0,0,1-1.506-.636,2.081,2.081,0,0,1-.607-1.5,2.132,2.132,0,0,1,2.138-2.081h.029c2.57.031,5.211.048,7.852.048.915,0,1.865,0,2.822-.005h.01a2.108,2.108,0,1,1,.01,4.216c-.955,0-1.919.006-2.867.006C162.88,273.659,160.229,273.643,157.624,273.61Zm29.984-2.43a2.077,2.077,0,0,1,.57-1.513,2.143,2.143,0,0,1,1.49-.672c3.537-.13,7.123-.29,10.656-.475.039,0,.076,0,.114,0a2.126,2.126,0,0,1,2.137,2,2.075,2.075,0,0,1-.535,1.508,2.14,2.14,0,0,1-1.489.708c-3.539.185-7.147.346-10.724.479h-.081A2.119,2.119,0,0,1,187.608,271.18Zm-51.468,1.783c-3.561-.173-7.17-.382-10.726-.622a2.138,2.138,0,0,1-1.478-.731,2.078,2.078,0,0,1-.511-1.517,2.132,2.132,0,0,1,2.133-1.964c.049,0,.1,0,.149.005,3.472.235,7.053.443,10.643.617a2.135,2.135,0,0,1,1.491.7,2.073,2.073,0,0,1,.542,1.508,2.125,2.125,0,0,1-2.137,2.005Zm83.539-3.614a2.076,2.076,0,0,1,.486-1.525,2.135,2.135,0,0,1,1.466-.754c3.52-.294,7.092-.621,10.617-.971a2.164,2.164,0,0,1,.218-.011,2.121,2.121,0,0,1,2.127,1.9,2.075,2.075,0,0,1-.461,1.532,2.139,2.139,0,0,1-1.454.777c-3.526.35-7.121.679-10.684.977-.062,0-.123.007-.184.007A2.14,2.14,0,0,1,219.679,269.349Zm-115.644,1.1c-3.6-.4-7.2-.838-10.678-1.307a2.134,2.134,0,0,1-1.424-.826,2.071,2.071,0,0,1-.407-1.548,2.145,2.145,0,0,1,2.411-1.8c3.433.463,6.99.9,10.575,1.3a2.133,2.133,0,0,1,1.444.792,2.075,2.075,0,0,1,.444,1.538,2.125,2.125,0,0,1-2.124,1.873A2.206,2.206,0,0,1,104.035,270.446Zm147.573-4.423a2.074,2.074,0,0,1,.411-1.547,2.128,2.128,0,0,1,1.426-.821c3.574-.472,7.125-.969,10.556-1.479a2.142,2.142,0,0,1,2.435,1.77,2.071,2.071,0,0,1-.385,1.554,2.129,2.129,0,0,1-1.412.844c-3.468.516-7.043,1.016-10.627,1.489a2.183,2.183,0,0,1-.286.019A2.136,2.136,0,0,1,251.608,266.023ZM72.086,265.7c-3.591-.685-7.136-1.418-10.538-2.178a2.124,2.124,0,0,1-1.346-.945A2.069,2.069,0,0,1,59.934,261a2.12,2.12,0,0,1,2.085-1.643,2.179,2.179,0,0,1,.475.053c3.39.757,6.89,1.48,10.4,2.15a2.125,2.125,0,0,1,1.375.9,2.073,2.073,0,0,1,.32,1.57,2.135,2.135,0,0,1-2.1,1.707A2.236,2.236,0,0,1,72.086,265.7Zm211.237-4.562a2.072,2.072,0,0,1,.328-1.567,2.128,2.128,0,0,1,1.382-.894c3.518-.651,7.038-1.336,10.46-2.035a2.189,2.189,0,0,1,.438-.045,2.14,2.14,0,0,1,2.093,1.679,2.069,2.069,0,0,1-.3,1.572,2.127,2.127,0,0,1-1.363.921c-3.454.707-7,1.4-10.542,2.051a2.183,2.183,0,0,1-.4.036A2.132,2.132,0,0,1,283.323,261.14Zm-242.61-3.074c-3.518-1.073-6.968-2.21-10.254-3.381a2.113,2.113,0,0,1-1.214-1.1,2.067,2.067,0,0,1-.069-1.6,2.145,2.145,0,0,1,2.012-1.391,2.172,2.172,0,0,1,.728.127c3.225,1.149,6.611,2.266,10.062,3.318a2.113,2.113,0,0,1,1.266,1.041,2.066,2.066,0,0,1,.146,1.6,2.127,2.127,0,0,1-2.045,1.485A2.195,2.195,0,0,1,40.713,258.067ZM314.721,254.5a2.063,2.063,0,0,1,.229-1.584,2.119,2.119,0,0,1,1.32-.977c3.518-.879,6.979-1.787,10.289-2.7a2.173,2.173,0,0,1,.579-.079,2.144,2.144,0,0,1,2.06,1.54,2.065,2.065,0,0,1-.189,1.589,2.125,2.125,0,0,1-1.3,1.009c-3.37.931-6.866,1.849-10.391,2.729a2.188,2.188,0,0,1-.528.065A2.132,2.132,0,0,1,314.721,254.5Zm30.821-8.806a2.068,2.068,0,0,1,.092-1.6,2.115,2.115,0,0,1,1.231-1.081c3.441-1.173,6.8-2.384,9.977-3.6a2.157,2.157,0,0,1,.774-.144,2.126,2.126,0,0,1,2,1.346,2.066,2.066,0,0,1-.032,1.6,2.112,2.112,0,0,1-1.189,1.126c-3.236,1.237-6.644,2.466-10.126,3.652a2.184,2.184,0,0,1-.7.116A2.139,2.139,0,0,1,345.542,245.7Zm-335.007.6c-3.315-1.649-6.512-3.392-9.5-5.182A2.1,2.1,0,0,1,.06,239.8a2.066,2.066,0,0,1,.252-1.587A2.133,2.133,0,0,1,2.144,237.2a2.163,2.163,0,0,1,1.11.307c2.892,1.731,5.991,3.421,9.211,5.023a2.1,2.1,0,0,1,1.072,1.232,2.065,2.065,0,0,1-.126,1.6,2.158,2.158,0,0,1-2.876.932Zm364.74-12.486a2.064,2.064,0,0,1-.13-1.6,2.1,2.1,0,0,1,1.068-1.237c3.279-1.643,6.385-3.334,9.231-5.025a2.157,2.157,0,0,1,1.1-.3,2.132,2.132,0,0,1,1.835,1.02,2.073,2.073,0,0,1,.247,1.589,2.1,2.1,0,0,1-.974,1.306c-2.943,1.748-6.141,3.488-9.5,5.172a2.158,2.158,0,0,1-2.878-.923Zm28.776-16.116a2.14,2.14,0,0,1-1.691-.814,2.085,2.085,0,0,1,.376-2.957c2.728-2.089,5.516-4.3,8.288-6.568a2.161,2.161,0,0,1,3.014.274,2.086,2.086,0,0,1-.277,2.968c-2.819,2.308-5.645,4.547-8.4,6.655a2.141,2.141,0,0,1-1.311.444ZM569.8,214.164c-3.6-.013-7.229-.086-10.774-.218a2.141,2.141,0,0,1-1.489-.674,2.076,2.076,0,0,1-.569-1.513,2.118,2.118,0,0,1,2.137-2.029l.083,0c3.493.13,7.069.2,10.626.215a2.143,2.143,0,0,1,1.512.623,2.077,2.077,0,0,1,.621,1.492,2.129,2.129,0,0,1-2.14,2.1Zm19.275-2.595a2.078,2.078,0,0,1,.523-1.514,2.137,2.137,0,0,1,1.484-.718c3.483-.208,7.049-.473,10.6-.788.064-.006.129-.009.194-.009a2.115,2.115,0,0,1,2.129,1.919,2.072,2.072,0,0,1-.478,1.527,2.134,2.134,0,0,1-1.462.762c-3.586.318-7.194.587-10.723.8-.041,0-.086,0-.131,0A2.128,2.128,0,0,1,589.079,211.569Zm-51.566.788c-3.575-.4-7.172-.874-10.69-1.409a2.13,2.13,0,0,1-1.409-.851,2.069,2.069,0,0,1-.379-1.554,2.145,2.145,0,0,1,2.443-1.76c3.457.526,7,.993,10.518,1.386a2.129,2.129,0,0,1,1.443.794,2.072,2.072,0,0,1,.443,1.539,2.126,2.126,0,0,1-2.124,1.87A2.195,2.195,0,0,1,537.513,212.357Zm83.5-3.883a2.07,2.07,0,0,1,.392-1.552,2.128,2.128,0,0,1,1.417-.838c3.444-.494,6.983-1.047,10.518-1.643a2.167,2.167,0,0,1,.365-.031,2.124,2.124,0,0,1,2.107,1.751,2.072,2.072,0,0,1-.353,1.561,2.132,2.132,0,0,1-1.4.874c-3.525.595-7.1,1.154-10.625,1.66a2.269,2.269,0,0,1-.312.022A2.141,2.141,0,0,1,621.015,208.475Zm-114.852-1.62a2.2,2.2,0,0,1-.513-.061c-3.5-.849-7.01-1.786-10.423-2.784a2.122,2.122,0,0,1-1.28-1.03,2.068,2.068,0,0,1-.163-1.592,2.151,2.151,0,0,1,2.662-1.42c3.35.98,6.79,1.9,10.227,2.732a2.126,2.126,0,0,1,1.328.967,2.071,2.071,0,0,1,.239,1.583,2.129,2.129,0,0,1-2.076,1.6Zm146.446-3.939a2.073,2.073,0,0,1,.279-1.577,2.124,2.124,0,0,1,1.351-.935l2.768-.61c2.567-.576,5.126-1.18,7.608-1.8a2.148,2.148,0,0,1,2.6,1.53,2.071,2.071,0,0,1-.231,1.584,2.124,2.124,0,0,1-1.322.975c-3.133.777-6.388,1.535-9.676,2.255l-.824.18a2.226,2.226,0,0,1-.463.049A2.148,2.148,0,0,1,652.61,202.915ZM426.9,196.491a2.085,2.085,0,0,1,.125-2.979c2.527-2.293,5.073-4.645,7.781-7.188a2.163,2.163,0,0,1,3.027.07,2.087,2.087,0,0,1-.072,2.981c-2.742,2.575-5.306,4.943-7.836,7.239a2.165,2.165,0,0,1-3.025-.122Zm47.925.426c-3.346-1.361-6.673-2.821-9.888-4.34a2.1,2.1,0,0,1-1.1-1.212,2.064,2.064,0,0,1,.093-1.6,2.157,2.157,0,0,1,2.856-.989c3.146,1.485,6.4,2.913,9.671,4.244a2.108,2.108,0,0,1,1.165,1.15,2.067,2.067,0,0,1,0,1.6,2.135,2.135,0,0,1-1.98,1.3A2.171,2.171,0,0,1,474.825,196.917Zm208.805-2.073a2.07,2.07,0,0,1,.11-1.6,2.112,2.112,0,0,1,1.243-1.068c3.437-1.13,6.793-2.318,9.975-3.533a2.154,2.154,0,0,1,.774-.144,2.126,2.126,0,0,1,2,1.346,2.066,2.066,0,0,1-.032,1.6,2.112,2.112,0,0,1-1.189,1.126c-3.238,1.237-6.659,2.449-10.167,3.6a2.181,2.181,0,0,1-.679.109A2.136,2.136,0,0,1,683.63,194.844Zm29.693-12.022a2.071,2.071,0,0,1-.177-1.6,2.1,2.1,0,0,1,1.032-1.264c3.2-1.717,6.227-3.514,9-5.342a2.161,2.161,0,0,1,2.969.582,2.068,2.068,0,0,1,.321,1.576,2.094,2.094,0,0,1-.913,1.347c-2.885,1.9-6.025,3.76-9.334,5.538a2.159,2.159,0,0,1-2.9-.842Zm-263.237-8.2a2.086,2.086,0,0,1,.017-2.982l7.608-7.418a2.164,2.164,0,0,1,3.028.015,2.085,2.085,0,0,1-.016,2.982l-7.609,7.42a2.165,2.165,0,0,1-3.027-.017Zm289.126-10.45a2.086,2.086,0,0,1-.227-2.973,49.894,49.894,0,0,0,5.909-8.267,2.157,2.157,0,0,1,2.91-.821,2.1,2.1,0,0,1,1.022,1.271,2.069,2.069,0,0,1-.188,1.6,54.226,54.226,0,0,1-6.406,8.971,2.165,2.165,0,0,1-3.019.223Zm-318.678-1.848c-2.614-2.557-5.1-5.2-7.4-7.87a2.085,2.085,0,0,1,.25-2.971,2.162,2.162,0,0,1,3.017.246c2.21,2.567,4.613,5.126,7.145,7.6a2.086,2.086,0,0,1,.011,2.981,2.167,2.167,0,0,1-3.028.011Zm52.443-9.89a2.086,2.086,0,0,1,.062-2.981c2.065-1.954,3.994-3.758,5.895-5.516l1.9-1.753a2.163,2.163,0,0,1,3.025.107,2.086,2.086,0,0,1-.108,2.979c-1.885,1.728-3.77,3.478-5.762,5.349L476,152.5a2.166,2.166,0,0,1-3.027-.06ZM400.816,136.7a63.213,63.213,0,0,1-4.317-10.04,2.067,2.067,0,0,1,.131-1.6,2.112,2.112,0,0,1,1.257-1.052,2.164,2.164,0,0,1,.651-.1,2.13,2.13,0,0,1,2.039,1.469,59.127,59.127,0,0,0,4.036,9.371,2.064,2.064,0,0,1,.147,1.6A2.1,2.1,0,0,1,403.7,137.6a2.183,2.183,0,0,1-.988.239A2.141,2.141,0,0,1,400.816,136.7Zm348.962-2.822a37.122,37.122,0,0,0-1.691-9.839,2.067,2.067,0,0,1,.149-1.594,2.119,2.119,0,0,1,1.27-1.039,2.161,2.161,0,0,1,.629-.094,2.125,2.125,0,0,1,2.045,1.49,41.271,41.271,0,0,1,1.877,10.943,2.075,2.075,0,0,1-.58,1.508,2.143,2.143,0,0,1-1.493.664h-.068A2.116,2.116,0,0,1,749.777,133.88Zm-253.145-2.815a2.085,2.085,0,0,1,.246-2.971c2.778-2.324,5.574-4.595,8.308-6.748a2.164,2.164,0,0,1,3.009.329,2.086,2.086,0,0,1-.335,2.963c-2.7,2.127-5.463,4.371-8.211,6.669a2.163,2.163,0,0,1-3.017-.242Zm25.289-19.477a2.087,2.087,0,0,1,.544-2.933c2.977-2.027,6-4,8.992-5.87a2.162,2.162,0,0,1,2.955.65,2.066,2.066,0,0,1,.284,1.582,2.1,2.1,0,0,1-.944,1.327c-2.952,1.845-5.93,3.789-8.852,5.779a2.163,2.163,0,0,1-2.977-.535ZM397.41,107.216a2.127,2.127,0,0,1-1.353-.936,2.066,2.066,0,0,1-.281-1.574A56.7,56.7,0,0,1,399.207,94.3a2.155,2.155,0,0,1,2.814-1.1,2.1,2.1,0,0,1,1.145,1.166,2.066,2.066,0,0,1-.028,1.6,52.456,52.456,0,0,0-3.18,9.639,2.146,2.146,0,0,1-2.09,1.658A2.2,2.2,0,0,1,397.41,107.216Zm340.63-.808a74.037,74.037,0,0,0-7.207-7.385,2.085,2.085,0,0,1-.144-2.977,2.164,2.164,0,0,1,3.024-.142,78.523,78.523,0,0,1,7.62,7.811,2.087,2.087,0,0,1-.278,2.968,2.166,2.166,0,0,1-3.015-.274ZM551.139,96.12a2.14,2.14,0,0,1-1.9-1.13,2.062,2.062,0,0,1-.148-1.6,2.1,2.1,0,0,1,1.053-1.247c3.175-1.636,6.429-3.226,9.67-4.725a2.157,2.157,0,0,1,2.848,1.012,2.068,2.068,0,0,1,.08,1.6,2.107,2.107,0,0,1-1.107,1.2c-3.186,1.473-6.385,3.036-9.506,4.645a2.169,2.169,0,0,1-.99.24Zm162.743-9.127c-2.971-1.684-6.114-3.281-9.343-4.75a2.11,2.11,0,0,1-1.115-1.2,2.064,2.064,0,0,1,.069-1.6,2.155,2.155,0,0,1,2.84-1.03c3.339,1.518,6.6,3.174,9.683,4.923a2.1,2.1,0,0,1,1,1.286,2.071,2.071,0,0,1-.213,1.593,2.162,2.162,0,0,1-2.923.776ZM578.471,81.915a2.071,2.071,0,0,1,.058-1.6,2.112,2.112,0,0,1,1.208-1.106c3.332-1.214,6.762-2.384,10.2-3.479a2.163,2.163,0,0,1,.659-.1,2.132,2.132,0,0,1,2.037,1.46,2.066,2.066,0,0,1-.124,1.6,2.117,2.117,0,0,1-1.253,1.058c-3.378,1.076-6.752,2.227-10.03,3.422a2.178,2.178,0,0,1-.742.131A2.15,2.15,0,0,1,578.471,81.915ZM411.14,78.934a2.086,2.086,0,0,1-.293-2.967c2.211-2.647,4.683-5.32,7.345-7.944a2.163,2.163,0,0,1,3.028,0,2.085,2.085,0,0,1,0,2.981c-2.563,2.526-4.941,5.1-7.068,7.643a2.164,2.164,0,0,1-3.012.289ZM684.73,75.1c-3.351-.922-6.8-1.733-10.247-2.413a2.129,2.129,0,0,1-1.37-.911,2.066,2.066,0,0,1-.309-1.57,2.135,2.135,0,0,1,2.1-1.695,2.16,2.16,0,0,1,.423.041c3.547.7,7.1,1.535,10.559,2.487a2.119,2.119,0,0,1,1.3,1.008,2.064,2.064,0,0,1,.189,1.589,2.142,2.142,0,0,1-2.06,1.541A2.206,2.206,0,0,1,684.73,75.1Zm-75.6-2.575a2.068,2.068,0,0,1,.248-1.581,2.119,2.119,0,0,1,1.333-.96c.86-.2,1.732-.406,2.588-.6,2.642-.6,5.342-1.135,8.025-1.589a2.147,2.147,0,0,1,2.471,1.722,2.07,2.07,0,0,1-.354,1.562,2.13,2.13,0,0,1-1.394.872c-2.6.438-5.215.957-7.788,1.541-.846.193-1.7.392-2.55.591a2.192,2.192,0,0,1-.5.058A2.128,2.128,0,0,1,609.125,72.525ZM472.845,71.38a1.062,1.062,0,0,1-.9-.7l-10.99-30.458-28.4-16.774a1.05,1.05,0,0,1,.127-1.878l.13-.044L510.456.041a1.089,1.089,0,0,1,.409-.035,1.075,1.075,0,0,1,.838.573,1.026,1.026,0,0,1-.011.981L473.9,70.833a1.049,1.049,0,0,1-.933.554A1.145,1.145,0,0,1,472.845,71.38Zm-9.87-31.859,10.181,28.212L507.337,5.076ZM435.793,22.9l25.626,15.139L505.91,3.493ZM653.565,70.118c-2.44-.123-4.916-.185-7.359-.185-1.057,0-2.129.012-3.186.035h-.048a2.137,2.137,0,0,1-2.139-2.062,2.077,2.077,0,0,1,.593-1.5,2.142,2.142,0,0,1,1.5-.65c1.08-.023,2.179-.036,3.267-.036,2.521,0,5.075.065,7.591.192a2.136,2.136,0,0,1,1.49.7,2.076,2.076,0,0,1,.538,1.508,2.124,2.124,0,0,1-2.136,2ZM434.175,57.032a2.088,2.088,0,0,1,.413-2.954c2.763-2.063,5.717-4.153,8.779-6.21a2.163,2.163,0,0,1,2.975.553,2.07,2.07,0,0,1,.336,1.573,2.092,2.092,0,0,1-.9,1.356c-2.992,2.01-5.887,4.058-8.606,6.088a2.163,2.163,0,0,1-3-.406Z" transform="translate(0 0)" fill="#fff"/>
  </g>
</svg>
