<svg xmlns="http://www.w3.org/2000/svg" xmlns:xlink="http://www.w3.org/1999/xlink" width="840" height="475" viewBox="0 0 840 475">
  <defs>
    <clipPath>
      <rect id="Frame" width="840" height="475" rx="10" fill="none" stroke="#fff" stroke-miterlimit="10" stroke-width="2"/>
    </clipPath>
  </defs>
  <g id="Group_38" data-name="Group 38" transform="translate(-300 -514)">
    <g id="Vector_Browser_Dark" data-name="Vector/Browser/Dark" transform="translate(300 514)">
      <rect id="Vector_Browser_Dark_background" data-name="Vector/Browser/Dark background" width="840" height="475" fill="none"/>
      <g id="Group_2" data-name="Group 2">
        <g id="Frame-2" data-name="Frame" fill="none" stroke="#fff" stroke-miterlimit="10" stroke-width="2">
          <rect width="840" height="475" rx="10" stroke="none"/>
          <rect x="1" y="1" width="838" height="473" rx="9" fill="none"/>
        </g>
        <g id="Mask_Group_2" data-name="Mask Group 2" clip-path="url(#clip-path)">
          <rect id="Separator" width="840" height="2" transform="translate(0 65)" fill="#fff"/>
          <g id="Header" transform="translate(32 16)">
            <path id="Oval" d="M13,26A13,13,0,0,1,3.808,3.808,13,13,0,1,1,22.192,22.192,12.915,12.915,0,0,1,13,26ZM13,2A11,11,0,1,0,24,13,11.012,11.012,0,0,0,13,2Z" transform="translate(734.2 4)" fill="#fff"/>
            <path id="Dots" d="M48,7a7,7,0,1,1,7,7A7.008,7.008,0,0,1,48,7Zm2.334,0A4.667,4.667,0,1,0,55,2.334,4.672,4.672,0,0,0,50.333,7ZM24,7a7,7,0,1,1,7,7A7.008,7.008,0,0,1,24,7Zm2.334,0A4.666,4.666,0,1,0,31,2.334,4.672,4.672,0,0,0,26.334,7ZM0,7a7,7,0,1,1,7,7A7.008,7.008,0,0,1,0,7ZM2.334,7A4.667,4.667,0,1,0,7,2.334,4.672,4.672,0,0,0,2.334,7Z" transform="translate(0 10)" fill="#fff"/>
            <g id="Bar" transform="translate(172.2)" fill="none" stroke="#fff" stroke-miterlimit="10" stroke-width="2">
              <rect width="407.4" height="34" rx="17" stroke="none"/>
              <rect x="1" y="1" width="405.4" height="32" rx="16" fill="none"/>
            </g>
          </g>
        </g>
      </g>
    </g>
    <g id="Vector_Envelope_Dark" data-name="Vector/Envelope/Dark" transform="translate(300 673)">
      <rect id="Vector_Envelope_Dark_background" data-name="Vector/Envelope/Dark background" width="648" height="274" fill="none"/>
      <g id="Vector_Illustration" data-name="Vector/Illustration" transform="translate(17.297 0.341)">
        <path id="Color" d="M34.2,273.61a2.152,2.152,0,0,1-1.506-.636,2.081,2.081,0,0,1-.607-1.5,2.133,2.133,0,0,1,2.138-2.082h.029c2.582.031,5.223.048,7.849.048.926,0,1.877,0,2.825-.005h.01a2.128,2.128,0,0,1,2.14,2.1,2.076,2.076,0,0,1-.62,1.493,2.14,2.14,0,0,1-1.51.625c-.942,0-1.907.006-2.867.006C39.469,273.659,36.817,273.643,34.2,273.61Zm29.984-2.43a2.073,2.073,0,0,1,.57-1.512,2.139,2.139,0,0,1,1.49-.673c3.54-.13,7.125-.29,10.656-.475.039,0,.076,0,.114,0a2.126,2.126,0,0,1,2.137,2,2.078,2.078,0,0,1-.534,1.508,2.144,2.144,0,0,1-1.49.708c-3.542.186-7.15.347-10.724.479h-.081A2.119,2.119,0,0,1,64.189,271.18ZM12.72,272.963c-3.568-.173-7.177-.383-10.726-.622a2.138,2.138,0,0,1-1.478-.731,2.078,2.078,0,0,1-.511-1.517,2.132,2.132,0,0,1,2.133-1.964c.049,0,.1,0,.149.005,3.465.235,7.045.443,10.643.617a2.137,2.137,0,0,1,1.491.7,2.077,2.077,0,0,1,.542,1.508,2.125,2.125,0,0,1-2.137,2.005Zm83.539-3.614a2.076,2.076,0,0,1,.486-1.525,2.135,2.135,0,0,1,1.466-.754c3.517-.294,7.09-.621,10.617-.971.073-.007.146-.011.218-.011a2.121,2.121,0,0,1,2.127,1.9,2.072,2.072,0,0,1-.462,1.532,2.135,2.135,0,0,1-1.454.777c-3.523.35-7.118.679-10.684.977-.062,0-.124.007-.184.007A2.141,2.141,0,0,1,96.259,269.349Zm31.929-3.326a2.074,2.074,0,0,1,.411-1.547,2.128,2.128,0,0,1,1.426-.821c3.575-.472,7.126-.969,10.556-1.479a2.142,2.142,0,0,1,2.435,1.77,2.071,2.071,0,0,1-.385,1.554,2.131,2.131,0,0,1-1.412.844c-3.465.515-7.041,1.016-10.627,1.489a2.173,2.173,0,0,1-.286.019A2.136,2.136,0,0,1,128.189,266.023ZM159.9,261.14a2.072,2.072,0,0,1,.328-1.567,2.128,2.128,0,0,1,1.382-.894c3.512-.65,7.032-1.335,10.46-2.035a2.176,2.176,0,0,1,.438-.045,2.14,2.14,0,0,1,2.093,1.679,2.069,2.069,0,0,1-.3,1.572,2.127,2.127,0,0,1-1.363.921c-3.459.707-7.006,1.4-10.542,2.051a2.183,2.183,0,0,1-.4.036A2.132,2.132,0,0,1,159.9,261.14Zm31.4-6.638a2.066,2.066,0,0,1,.228-1.584,2.123,2.123,0,0,1,1.321-.977c3.514-.878,6.976-1.787,10.289-2.7a2.178,2.178,0,0,1,.579-.079,2.144,2.144,0,0,1,2.06,1.54,2.065,2.065,0,0,1-.189,1.589,2.123,2.123,0,0,1-1.3,1.009c-3.369.93-6.864,1.848-10.391,2.729a2.186,2.186,0,0,1-.527.065A2.133,2.133,0,0,1,191.3,254.5Zm30.821-8.806a2.066,2.066,0,0,1,.092-1.6,2.113,2.113,0,0,1,1.231-1.082c3.437-1.172,6.794-2.382,9.977-3.6a2.157,2.157,0,0,1,.774-.144,2.126,2.126,0,0,1,2,1.346,2.066,2.066,0,0,1-.032,1.6,2.109,2.109,0,0,1-1.189,1.126c-3.23,1.235-6.637,2.463-10.126,3.652a2.183,2.183,0,0,1-.7.116A2.14,2.14,0,0,1,222.122,245.7Zm31.643-10.737a2.137,2.137,0,0,1-1.91-1.152,2.064,2.064,0,0,1-.13-1.6,2.1,2.1,0,0,1,1.068-1.237c3.28-1.643,6.385-3.334,9.231-5.025a2.156,2.156,0,0,1,1.1-.3,2.132,2.132,0,0,1,1.835,1.02,2.069,2.069,0,0,1,.247,1.589,2.1,2.1,0,0,1-.974,1.306c-2.943,1.748-6.14,3.488-9.5,5.172a2.143,2.143,0,0,1-.967.229Zm25.175-18.083a2.085,2.085,0,0,1,.376-2.957c2.726-2.088,5.514-4.3,8.288-6.568a2.161,2.161,0,0,1,3.014.274,2.086,2.086,0,0,1-.277,2.968c-2.816,2.306-5.642,4.545-8.4,6.655a2.163,2.163,0,0,1-3-.371Zm167.443-2.713c-3.6-.013-7.227-.086-10.774-.218a2.145,2.145,0,0,1-1.489-.674,2.076,2.076,0,0,1-.569-1.513,2.118,2.118,0,0,1,2.137-2.029l.083,0c3.5.13,7.073.2,10.626.215a2.145,2.145,0,0,1,1.512.623,2.075,2.075,0,0,1,.621,1.492,2.129,2.129,0,0,1-2.14,2.1Zm19.275-2.595a2.078,2.078,0,0,1,.523-1.514,2.137,2.137,0,0,1,1.484-.718c3.484-.208,7.049-.473,10.6-.788.065-.006.13-.009.194-.009a2.116,2.116,0,0,1,2.129,1.919,2.075,2.075,0,0,1-.478,1.527,2.134,2.134,0,0,1-1.462.762c-3.579.318-7.187.586-10.723.8-.045,0-.089,0-.131,0A2.128,2.128,0,0,1,465.659,211.569Zm-51.566.788c-3.577-.4-7.174-.874-10.69-1.409a2.13,2.13,0,0,1-1.409-.851,2.068,2.068,0,0,1-.379-1.554,2.145,2.145,0,0,1,2.443-1.76c3.454.526,6.993.993,10.518,1.386a2.129,2.129,0,0,1,1.443.794,2.072,2.072,0,0,1,.443,1.539,2.126,2.126,0,0,1-2.124,1.87A2.218,2.218,0,0,1,414.093,212.357Zm83.5-3.883a2.07,2.07,0,0,1,.392-1.552,2.128,2.128,0,0,1,1.417-.838c3.442-.493,6.98-1.047,10.518-1.643a2.16,2.16,0,0,1,.365-.031,2.125,2.125,0,0,1,2.107,1.752,2.075,2.075,0,0,1-.353,1.561,2.132,2.132,0,0,1-1.4.873c-3.532.6-7.107,1.155-10.625,1.66a2.266,2.266,0,0,1-.311.022A2.141,2.141,0,0,1,497.6,208.475Zm-115.365-1.681c-3.5-.85-7.011-1.786-10.423-2.784a2.118,2.118,0,0,1-1.279-1.03,2.064,2.064,0,0,1-.164-1.592,2.151,2.151,0,0,1,2.662-1.42c3.349.979,6.79,1.9,10.227,2.732a2.123,2.123,0,0,1,1.328.967,2.071,2.071,0,0,1,.239,1.583,2.129,2.129,0,0,1-2.076,1.6A2.2,2.2,0,0,1,382.231,206.794Zm146.959-3.878a2.073,2.073,0,0,1,.279-1.577,2.121,2.121,0,0,1,1.351-.935l2.768-.61c2.575-.578,5.135-1.182,7.608-1.8a2.148,2.148,0,0,1,2.6,1.53,2.071,2.071,0,0,1-.231,1.584,2.127,2.127,0,0,1-1.322.975c-3.134.778-6.389,1.535-9.676,2.255l-.824.18a2.218,2.218,0,0,1-.462.049A2.148,2.148,0,0,1,529.19,202.915Zm-225.71-6.424a2.085,2.085,0,0,1,.125-2.979c2.529-2.294,5.074-4.646,7.781-7.188a2.163,2.163,0,0,1,3.027.07,2.087,2.087,0,0,1-.072,2.981c-2.743,2.576-5.306,4.944-7.836,7.239a2.165,2.165,0,0,1-3.025-.122Zm47.925.426c-3.345-1.361-6.673-2.821-9.888-4.34a2.108,2.108,0,0,1-1.1-1.212,2.065,2.065,0,0,1,.093-1.6,2.157,2.157,0,0,1,2.856-.989c3.146,1.486,6.4,2.913,9.671,4.244a2.113,2.113,0,0,1,1.165,1.15,2.068,2.068,0,0,1,0,1.6,2.135,2.135,0,0,1-1.98,1.3A2.171,2.171,0,0,1,351.4,196.917Zm208.805-2.073a2.07,2.07,0,0,1,.11-1.6,2.112,2.112,0,0,1,1.243-1.068c3.435-1.129,6.79-2.318,9.975-3.533a2.157,2.157,0,0,1,.774-.144,2.126,2.126,0,0,1,2,1.346,2.066,2.066,0,0,1-.032,1.6,2.115,2.115,0,0,1-1.189,1.126c-3.236,1.236-6.656,2.448-10.167,3.6a2.181,2.181,0,0,1-.679.109A2.136,2.136,0,0,1,560.21,194.844ZM589.9,182.822a2.067,2.067,0,0,1-.176-1.6,2.1,2.1,0,0,1,1.031-1.264c3.2-1.716,6.225-3.514,9-5.342a2.161,2.161,0,0,1,2.969.582,2.067,2.067,0,0,1,.321,1.576,2.094,2.094,0,0,1-.913,1.347c-2.884,1.9-6.024,3.76-9.334,5.538a2.159,2.159,0,0,1-2.9-.842Zm-263.237-8.2a2.086,2.086,0,0,1,.017-2.982l7.608-7.418a2.164,2.164,0,0,1,3.028.015,2.085,2.085,0,0,1-.016,2.982l-7.609,7.42a2.165,2.165,0,0,1-3.027-.017Zm289.126-10.45a2.086,2.086,0,0,1-.227-2.973,49.964,49.964,0,0,0,5.909-8.267,2.157,2.157,0,0,1,2.91-.821,2.1,2.1,0,0,1,1.022,1.272,2.067,2.067,0,0,1-.188,1.595,54.173,54.173,0,0,1-6.406,8.971,2.165,2.165,0,0,1-3.019.223Zm-318.678-1.848c-2.614-2.557-5.1-5.2-7.4-7.87a2.085,2.085,0,0,1,.25-2.971,2.162,2.162,0,0,1,3.017.246c2.209,2.567,4.612,5.126,7.145,7.6a2.086,2.086,0,0,1,.011,2.981,2.165,2.165,0,0,1-3.028.011Zm52.443-9.89a2.086,2.086,0,0,1,.062-2.981c2.074-1.961,4-3.766,5.895-5.516l1.9-1.753a2.163,2.163,0,0,1,3.025.107,2.086,2.086,0,0,1-.108,2.979c-1.887,1.73-3.772,3.479-5.762,5.349l-1.99,1.876a2.166,2.166,0,0,1-3.027-.06ZM277.4,136.7a63.248,63.248,0,0,1-4.317-10.04,2.067,2.067,0,0,1,.131-1.6,2.112,2.112,0,0,1,1.257-1.052,2.163,2.163,0,0,1,.651-.1,2.13,2.13,0,0,1,2.039,1.469,59.162,59.162,0,0,0,4.036,9.371,2.064,2.064,0,0,1,.147,1.6,2.1,2.1,0,0,1-1.055,1.247,2.172,2.172,0,0,1-.988.239A2.143,2.143,0,0,1,277.4,136.7Zm348.961-2.822a37.122,37.122,0,0,0-1.691-9.839,2.063,2.063,0,0,1,.149-1.594,2.119,2.119,0,0,1,1.27-1.039,2.17,2.17,0,0,1,.629-.094,2.125,2.125,0,0,1,2.045,1.49,41.271,41.271,0,0,1,1.877,10.943,2.075,2.075,0,0,1-.58,1.508,2.141,2.141,0,0,1-1.493.664H628.5A2.116,2.116,0,0,1,626.357,133.88Zm-253.145-2.815a2.085,2.085,0,0,1,.246-2.971c2.777-2.323,5.572-4.594,8.308-6.748a2.162,2.162,0,0,1,3.009.329,2.086,2.086,0,0,1-.335,2.963c-2.694,2.121-5.456,4.366-8.211,6.669a2.163,2.163,0,0,1-3.017-.242ZM398.5,111.588a2.087,2.087,0,0,1,.544-2.933c2.98-2.029,6.006-4,8.992-5.87a2.162,2.162,0,0,1,2.955.65,2.066,2.066,0,0,1,.284,1.582,2.1,2.1,0,0,1-.944,1.327c-2.953,1.846-5.931,3.79-8.852,5.779a2.16,2.16,0,0,1-2.977-.535ZM273.99,107.216a2.127,2.127,0,0,1-1.353-.936,2.066,2.066,0,0,1-.281-1.574A56.7,56.7,0,0,1,275.788,94.3a2.155,2.155,0,0,1,2.814-1.1,2.1,2.1,0,0,1,1.145,1.166,2.066,2.066,0,0,1-.028,1.6,52.459,52.459,0,0,0-3.18,9.639,2.146,2.146,0,0,1-2.09,1.658A2.2,2.2,0,0,1,273.99,107.216Zm340.63-.808a74.039,74.039,0,0,0-7.207-7.385,2.085,2.085,0,0,1-.144-2.977,2.164,2.164,0,0,1,3.024-.142,78.523,78.523,0,0,1,7.62,7.811,2.087,2.087,0,0,1-.278,2.968,2.166,2.166,0,0,1-3.015-.274ZM427.719,96.12a2.14,2.14,0,0,1-1.9-1.13,2.069,2.069,0,0,1-.148-1.6,2.1,2.1,0,0,1,1.053-1.247c3.176-1.636,6.429-3.226,9.67-4.725a2.157,2.157,0,0,1,2.848,1.012,2.068,2.068,0,0,1,.08,1.6,2.107,2.107,0,0,1-1.107,1.2c-3.189,1.474-6.386,3.037-9.506,4.645a2.172,2.172,0,0,1-.99.24Zm162.743-9.127c-2.972-1.685-6.116-3.282-9.343-4.75a2.11,2.11,0,0,1-1.115-1.2,2.064,2.064,0,0,1,.069-1.6,2.155,2.155,0,0,1,2.84-1.03c3.338,1.517,6.6,3.174,9.683,4.923a2.1,2.1,0,0,1,1,1.286,2.071,2.071,0,0,1-.213,1.593,2.162,2.162,0,0,1-2.923.776ZM455.051,81.915a2.071,2.071,0,0,1,.058-1.6,2.112,2.112,0,0,1,1.208-1.106c3.334-1.214,6.763-2.385,10.2-3.479a2.168,2.168,0,0,1,.66-.1,2.131,2.131,0,0,1,2.036,1.46,2.066,2.066,0,0,1-.124,1.6,2.117,2.117,0,0,1-1.253,1.058c-3.379,1.077-6.754,2.228-10.03,3.422a2.178,2.178,0,0,1-.742.131A2.15,2.15,0,0,1,455.051,81.915ZM287.72,78.934a2.086,2.086,0,0,1-.293-2.967c2.212-2.648,4.683-5.32,7.345-7.944a2.163,2.163,0,0,1,3.028,0,2.085,2.085,0,0,1,0,2.981c-2.562,2.525-4.94,5.1-7.068,7.643a2.163,2.163,0,0,1-3.012.289ZM561.31,75.1c-3.35-.922-6.8-1.733-10.247-2.413a2.129,2.129,0,0,1-1.37-.911,2.066,2.066,0,0,1-.309-1.57,2.135,2.135,0,0,1,2.1-1.695,2.16,2.16,0,0,1,.423.041c3.546.7,7.1,1.535,10.559,2.487a2.119,2.119,0,0,1,1.3,1.008,2.065,2.065,0,0,1,.189,1.589,2.142,2.142,0,0,1-2.06,1.541A2.2,2.2,0,0,1,561.31,75.1Zm-75.6-2.575a2.068,2.068,0,0,1,.248-1.581,2.119,2.119,0,0,1,1.333-.96c.852-.2,1.724-.4,2.588-.6,2.641-.6,5.341-1.135,8.025-1.589a2.155,2.155,0,0,1,.364-.031,2.125,2.125,0,0,1,2.108,1.752,2.071,2.071,0,0,1-.354,1.562,2.13,2.13,0,0,1-1.394.872c-2.593.438-5.213.957-7.788,1.541-.836.19-1.694.389-2.55.591a2.2,2.2,0,0,1-.5.058A2.128,2.128,0,0,1,485.705,72.525ZM349.426,71.38a1.062,1.062,0,0,1-.9-.7l-10.99-30.458-28.4-16.774a1.05,1.05,0,0,1,.127-1.878l.13-.044L387.036.041a1.089,1.089,0,0,1,.409-.035,1.075,1.075,0,0,1,.838.573,1.026,1.026,0,0,1-.011.981L350.48,70.833a1.049,1.049,0,0,1-.933.554A1.145,1.145,0,0,1,349.426,71.38Zm-9.87-31.859,10.181,28.212L383.917,5.076ZM312.374,22.9,338,38.038,382.49,3.493ZM530.255,70.12l-.111,0c-2.439-.123-4.915-.185-7.359-.185-1.055,0-2.127.012-3.186.035h-.048a2.137,2.137,0,0,1-2.139-2.062,2.077,2.077,0,0,1,.593-1.5,2.142,2.142,0,0,1,1.5-.65c1.083-.023,2.181-.035,3.265-.035,2.522,0,5.076.064,7.593.191a2.136,2.136,0,0,1,1.49.7,2.076,2.076,0,0,1,.538,1.508,2.124,2.124,0,0,1-2.136,2Zm-219.5-13.089a2.088,2.088,0,0,1,.413-2.954c2.762-2.063,5.716-4.152,8.779-6.21a2.163,2.163,0,0,1,2.975.553,2.069,2.069,0,0,1,.336,1.573,2.092,2.092,0,0,1-.9,1.356c-2.992,2.011-5.888,4.059-8.606,6.088a2.163,2.163,0,0,1-3-.406Z" transform="translate(0 0)" fill="#fff"/>
      </g>
    </g>
  </g>
</svg>
