<svg id="Vector_Plant_02" data-name="Vector/Plant 02" xmlns="http://www.w3.org/2000/svg" width="161" height="232" viewBox="0 0 161 232">
  <rect id="Vector_Plant_02_Light_background" data-name="Vector/Plant 02/Light background" width="161" height="232" fill="none"/>
  <g id="Group_2" data-name="Group 2">
    <path id="Path" d="M62.986,7.041,62.7,11.716l-.414,6.615-.17,2.749-.407,6.615-.178,2.749-.414,6.615-4.677,75.02A12.767,12.767,0,0,1,43.662,124H19.335A12.752,12.752,0,0,1,6.575,112.078L1.883,37.007l-.407-6.615-.17-2.749L.884,21.028l-.17-2.749L.307,11.664.011,6.99a6.588,6.588,0,0,1,1.8-4.906A6.683,6.683,0,0,1,6.627,0h49.75a6.682,6.682,0,0,1,4.834,2.1A6.588,6.588,0,0,1,62.986,7.041Z" transform="translate(67.5 108)" fill="#fff"/>
    <path id="Path-2" data-name="Path" d="M59.667,20.431C86.729,39.764,98,70,98,70S65.4,68.9,38.326,49.562,0,0,0,0,32.612,1.1,59.667,20.431Z" transform="translate(0.5 30)" fill="#59a0ff"/>
    <path id="Path-3" data-name="Path" d="M32.251,11.093C46.9,21.58,53,38,53,38s-17.684-.606-32.3-11.093S0,0,0,0,17.61.6,32.251,11.093Z" transform="translate(45.5)" fill="#59a0ff"/>
    <path id="Path-4" data-name="Path" d="M20.412,24.314C3.579,42.811,0,67,0,67s23.755-5.824,40.588-24.329S61,0,61,0,37.26,5.809,20.412,24.314Z" transform="translate(99.5 13)" fill="#97c3ff"/>
    <rect id="Rectangle" width="5" height="104" rx="2.5" transform="translate(96.5 11)" fill="#fff"/>
  </g>
</svg>
