<svg id="Vector_Plant_04" data-name="Vector/Plant 04" xmlns="http://www.w3.org/2000/svg" width="90" height="232" viewBox="0 0 90 232">
  <rect id="Vector_Plant_04_Light_background" data-name="Vector/Plant 04/Light background" width="90" height="232" fill="none"/>
  <g id="undraw_fall_thyk">
    <path id="Path" d="M23.434,169C11.41,162.205,3.925,152.929,1.186,141.429-.848,132.89-.264,123.282,2.923,112.87A76.912,76.912,0,0,1,13.416,91.385c24.351-34.939,26.549-57.7,24.1-70.651C34.84,6.539,26.133.644,26.046.586L26.422,0c.09.059,9.026,6.092,11.771,20.575,1.582,8.35.838,17.87-2.212,28.3-3.8,12.977-11.2,27.416-22,42.916a76.215,76.215,0,0,0-10.4,21.288c-5.225,17.076-5.965,40.533,20.189,55.313Z" transform="translate(22 63)" fill="#085ed0"/>
    <path id="Path-2" data-name="Path" d="M8.26,60C-1.09,54.633-.83,46.127,1.035,39.936a27.536,27.536,0,0,1,3.674-7.642c8.415-12.265,9.175-20.233,8.331-24.757C12.124,2.624,9.184.607,9.154.587L9.525,0c.131.087,3.213,2.2,4.183,7.4C14.972,14.18,12.131,22.689,5.264,32.7a26.823,26.823,0,0,0-3.58,7.445C-.106,46.087-.361,54.25,8.591,59.389Z" transform="translate(15 107)" fill="#085ed0"/>
    <path id="Path-3" data-name="Path" d="M5.74,60l-.331-.612c8.952-5.139,8.7-13.3,6.907-19.245A26.824,26.824,0,0,0,8.736,32.7C1.869,22.689-.972,14.18.292,7.4,1.263,2.2,4.345.087,4.475,0l.371.587A11.037,11.037,0,0,0,.955,7.564C.12,12.086.889,20.047,9.291,32.294a27.539,27.539,0,0,1,3.674,7.642C14.83,46.126,15.09,54.632,5.74,60Z" transform="translate(62 29)" fill="#085ed0"/>
    <path id="Path-4" data-name="Path" d="M19.068,21.294A10.373,10.373,0,1,1,1.688,9.964C4.819,5.169,20.583,0,20.583,0S22.2,16.5,19.068,21.294Z" transform="translate(69 33)" fill="#59a0ff"/>
    <path id="Path-5" data-name="Path" d="M19.068,21.294A10.373,10.373,0,1,1,1.688,9.964C4.819,5.169,20.583,0,20.583,0S22.2,16.5,19.068,21.294Z" transform="translate(64)" fill="#59a0ff"/>
    <path id="Path-6" data-name="Path" d="M20.64,4.925a10.433,10.433,0,0,1-3.818,17.586A10.231,10.231,0,0,1,6.76,20.286C2.557,16.419,0,0,0,0S16.436,1.058,20.64,4.925Z" transform="translate(25 40)" fill="#59a0ff"/>
    <path id="Path-7" data-name="Path" d="M20.64,4.925a10.461,10.461,0,0,1,.671,14.684,10.235,10.235,0,0,1-14.551.677C2.557,16.419,0,0,0,0S16.436,1.058,20.64,4.925Z" transform="translate(0 84)" fill="#fff"/>
    <path id="Path_Copy" data-name="Path Copy" d="M20.785,4.936a10.54,10.54,0,0,1,.657,14.8,10.311,10.311,0,0,1-14.659.7C2.554,16.541,0,0,0,0S16.556,1.044,20.785,4.936Z" transform="matrix(-0.259, 0.966, -0.966, -0.259, 85.145, 121.217)" fill="#fff"/>
  </g>
</svg>
