<svg id="Vector" xmlns="http://www.w3.org/2000/svg" width="167" height="266" viewBox="0 0 167 266">
  <g id="Vector_Watch_Dark" data-name="Vector/Watch/Dark">
    <rect id="Vector_Watch_Dark_background" data-name="Vector/Watch/Dark background" width="140" height="266" fill="none"/>
    <g id="top_strap" transform="translate(19.768)" fill="none" stroke-linecap="square" stroke-miterlimit="10">
      <path d="M6.031,39.51,9.221,8.156a9.058,9.058,0,0,1,9-8.156H82.292a9.058,9.058,0,0,1,9,8.156L94.482,39.51c1.194,6.112,6.031,12.946,6.031,12.946H0A38.943,38.943,0,0,0,6.031,39.51Z" stroke="none"/>
      <path d="M 96.87971496582031 50.45544815063477 C 95.30953979492188 47.76589584350586 93.27065277099609 43.73964691162109 92.51915740966797 39.89319229125977 L 92.50159454345703 39.80330276489258 L 92.49232482910156 39.71217346191406 L 89.30181121826172 8.358901977539063 C 89.12392425537109 6.610811233520508 88.31073760986328 4.999865531921387 87.01203155517578 3.822793006896973 C 85.71510314941406 2.647338390350342 84.03890228271484 1.999992966651917 82.29219055175781 1.999992966651917 L 18.22063064575195 1.999992966651917 C 16.47392082214355 1.999992966651917 14.79772186279297 2.647338390350342 13.50079441070557 3.822793006896973 C 12.20208549499512 4.999865531921387 11.38890361785889 6.610811233520508 11.211012840271 8.358901977539063 L 8.020503044128418 39.71217346191406 L 8.004049301147461 39.87386703491211 L 7.961703300476074 40.0307731628418 C 6.743626117706299 44.54451370239258 5.029071807861328 48.10214233398438 3.681456327438354 50.45544815063477 L 96.87971496582031 50.45544815063477 M 100.5128326416016 52.45544815063477 L -5.675714874087134e-06 52.45544815063477 C -5.675714874087134e-06 52.45544815063477 3.852994441986084 47.57977294921875 6.030776023864746 39.50970077514648 L 9.221284866333008 8.156429290771484 C 9.692721366882324 3.523574829101563 13.58044910430908 -7.012107289483538e-06 18.22063064575195 -7.012107289483538e-06 L 82.29219055175781 -7.012107289483538e-06 C 86.932373046875 -7.012107289483538e-06 90.82010650634766 3.523574829101563 91.29154205322266 8.156429290771484 L 94.48204803466797 39.50970077514648 C 95.67613983154297 45.62152099609375 100.5128326416016 52.45544815063477 100.5128326416016 52.45544815063477 Z" stroke="none" fill="#fff"/>
    </g>
    <g id="bottom_strap" transform="translate(120.28 265.976) rotate(-180)" fill="none" stroke-linecap="square" stroke-miterlimit="10">
      <path d="M6.031,39.51,9.221,8.156a9.058,9.058,0,0,1,9-8.156H82.292a9.058,9.058,0,0,1,9,8.156L94.482,39.51c1.194,6.112,6.031,12.946,6.031,12.946H0A38.943,38.943,0,0,0,6.031,39.51Z" stroke="none"/>
      <path d="M 96.87971496582031 50.45544815063477 C 95.30953979492188 47.76589584350586 93.27065277099609 43.73964691162109 92.51915740966797 39.89319229125977 L 92.50159454345703 39.80330276489258 L 92.49232482910156 39.71217346191406 L 89.30181121826172 8.358901977539063 C 89.12392425537109 6.610811233520508 88.31073760986328 4.999865531921387 87.01203155517578 3.822793006896973 C 85.71510314941406 2.647338390350342 84.03890228271484 1.999992966651917 82.29219055175781 1.999992966651917 L 18.22063064575195 1.999992966651917 C 16.47392082214355 1.999992966651917 14.79772186279297 2.647338390350342 13.50079441070557 3.822793006896973 C 12.20208549499512 4.999865531921387 11.38890361785889 6.610811233520508 11.211012840271 8.358901977539063 L 8.020503044128418 39.71217346191406 L 8.004049301147461 39.87386703491211 L 7.961703300476074 40.0307731628418 C 6.743626117706299 44.54451370239258 5.029071807861328 48.10214233398438 3.681456327438354 50.45544815063477 L 96.87971496582031 50.45544815063477 M 100.5128326416016 52.45544815063477 L -5.675714874087134e-06 52.45544815063477 C -5.675714874087134e-06 52.45544815063477 3.852994441986084 47.57977294921875 6.030776023864746 39.50970077514648 L 9.221284866333008 8.156429290771484 C 9.692721366882324 3.523574829101563 13.58044910430908 -7.012107289483538e-06 18.22063064575195 -7.012107289483538e-06 L 82.29219055175781 -7.012107289483538e-06 C 86.932373046875 -7.012107289483538e-06 90.82010650634766 3.523574829101563 91.29154205322266 8.156429290771484 L 94.48204803466797 39.50970077514648 C 95.67613983154297 45.62152099609375 100.5128326416016 52.45544815063477 100.5128326416016 52.45544815063477 Z" stroke="none" fill="#fff"/>
    </g>
    <g id="Outerdial_Copy" data-name="Outerdial Copy" transform="translate(0 51.11)" fill="none" stroke="#fff" stroke-linecap="square" stroke-miterlimit="10" stroke-width="2">
      <rect width="139.713" height="163.755" rx="45.36" stroke="none"/>
      <rect x="1" y="1" width="137.713" height="161.755" rx="44.36" fill="none"/>
    </g>
    <g id="Inner_dial_Copy" data-name="Inner dial Copy" transform="translate(6.701 57.835)" fill="none" stroke="#fff" stroke-linecap="square" stroke-miterlimit="10" stroke-width="2">
      <rect width="126.311" height="149.633" rx="33.04" stroke="none"/>
      <rect x="1" y="1" width="124.311" height="147.633" rx="32.04" fill="none"/>
    </g>
  </g>
  <g id="Vector_Check_Light" data-name="Vector/Check/Light" transform="translate(116 58)">
    <circle id="Oval" cx="25.5" cy="25.5" r="25.5" fill="#59a0ff"/>
    <path data-name="Icon Color" d="M7.325,18.857,0,11.532,2.182,9.351l5.143,5.143L21.818,0,24,2.182Z" transform="translate(13.5 16.5)" fill="#fff"/>
  </g>
</svg>
