<svg id="Vector_Travel_Dark" data-name="Vector/Travel/Dark" xmlns="http://www.w3.org/2000/svg" width="646" height="690" viewBox="0 0 646 690">
  <rect id="Vector_Travel_Dark_background" data-name="Vector/Travel/Dark background" width="646" height="690" fill="none"/>
  <path id="Path" d="M573.63,325.773c-35.886-60.823-59.6-102.716-94.262-164.379-22.145-39.43-48.689-86.936-80.242-120.11L395.394,47.2l-5.749,5.357-7.6,3.705-.22,6.958.22,6.19.968,1.323,7.758,4.1L397.22,80.3l9.019,12.067L413,106.009l4.642,12.527,4.414,15.494,2.992,13.207,3.285,18.929,1.936,15.48L432.05,211.1,430.8,224.658,391.119,249.31l.733,84.956-56.513,31.7-8.645-42.478,13.28-49.56-16.227-33.349-2.625-2.112-2.31-7.236L317.2,208.769l-.55-22.233,1.569-29.235,2.2-15.114L323,130.281l3.967-13.886,5.067-14.252L338.4,91.268l4.818-6.337,7.5-7.06,2.61-1.14L353.6,42.95l-3.212-6.5-11.564-5.116,4.612-18.045,13.646-4.385a90.223,90.223,0,0,0-16.257-6.088C282.316-12.632,210.822,37.9,146.58,94.41,82.492,150.84,25.671,213.307,6.943,287.081s.836,158.956,53.763,201.127c52.8,42.317,139.087,41.615,213.939,66.253C349.5,579.237,413.036,629.345,483,632.129a161.883,161.883,0,0,0,20-.46l-4.158-18.842,24.2-7.586,35.813-3.5,1.738,6.073-.337,4.385-2.838,3.472-17.716,8.946c49.95-15.041,93.441-51.007,103.736-96.321C657.7,466.216,609.516,386.464,573.63,325.773Z" transform="translate(0 47.792)" fill="#fff" opacity="0.079"/>
  <path id="Path-2" data-name="Path" d="M105.288,0C90.038,6.908,14.3,17.958.091,13.758c0,.315-.051.615-.066.937-1.65,46.213,78.216,179.2,81.522,185.8s91.435,181.427,93.114,187.472c4.4,1.654,22.582-2.744,25.339-9.345Z" transform="translate(322 273.81)" fill="#fff"/>
  <path id="Path-3" data-name="Path" d="M114.9,13.944c-7.811,28.864-28.3,164.49-28.3,169.136,0,5.02-86.942,182.53-86.6,186.214s21.732,11.053,21.732,11.053,121.041-157.782,128.749-164.82c7.393-6.759,74.7-173.48,71.4-215.526C208.995,7.031,126.706,19.118,114.9,13.944Z" transform="translate(207 273.81)" fill="#fff"/>
  <path id="Path-4" data-name="Path" d="M60.8.006A1.33,1.33,0,0,1,62.113.73a17.483,17.483,0,0,1,1.578,11.179c-.691,3.2-10.3,9.158-23.945,15.7l-1.626.772c-12.406,5.837-23.436,9.8-27.285,9.436C6.3,37.384,3.5,32.283,1.707,24.087,1.183,21.693.778,19.15.466,16.515c-.117-.99-.216-1.95-.3-2.911L0,11.735A1.331,1.331,0,0,1,2.64,11.38l.025.217.057.7c.03.365.06.709.092,1.066.085.938.182,1.874.3,2.838.3,2.555.694,5.014,1.2,7.314l.19.837c1.549,6.584,3.827,10.541,6.589,10.8,3.268.309,14.675-3.845,27-9.713l.514-.246C50.965,19.27,60.679,13.241,61.083,11.377A14.786,14.786,0,0,0,60.267,3.1l-.145-.343L21.783,6.531a1.332,1.332,0,0,1-1.435-1.064l-.02-.135a1.335,1.335,0,0,1,1.06-1.439l.135-.02Z" transform="translate(498 649.177)" fill="#fff"/>
  <path id="Path-5" data-name="Path" d="M28.529,48.788h0a63.9,63.9,0,0,1-10.2-.6c-1.834-.349-3.843-1.746-5.97-4.152a52.307,52.307,0,0,1-6.288-9.4l-.207-.383C2.632,28.255,0,21.61,0,19.436c0-1.53,1.034-4.015,3.074-7.386A115.622,115.622,0,0,1,10.64,1.334l.646-.825A1.346,1.346,0,0,1,12.738.06l.082.025L12.9.109l1.894.608.9.3c2.339.781,4.524,1.562,6.493,2.321,1.79.691,3.36,1.351,4.667,1.96,3.42,1.594,5.54,2.936,5.54,4.7l0,.135c.143,3.268,4.973,19.886,6.08,20.92h0a.743.743,0,0,1,.14.036c.094.029.236.073.414.121l.265.07c.021,0,5.649,1.138,7.628,1.7l.371.108a17.609,17.609,0,0,1,7.149,3.652A7.745,7.745,0,0,1,57,42.673c0,1.6-1.463,2.831-4.473,3.764a61.74,61.74,0,0,1-12.588,1.916l-.52.039C35.888,48.652,32.123,48.788,28.529,48.788ZM12.824,2.852l-.576.746c-2.708,3.52-5.038,6.839-6.74,9.6-1.857,3.012-2.839,5.169-2.839,6.24,0,1.578,2.514,8.013,5.755,13.945l.229.417c3.825,6.9,7.632,11.314,10.183,11.8a61.232,61.232,0,0,0,9.651.555c3.368,0,6.9-.122,10.226-.352l1.016-.074c8.356-.645,14.6-2.144,14.6-3.054,0-3.3-2.59-5.57-8.149-7.158-1.587-.453-5.736-1.312-7.446-1.66l-.042-.009-.308-.076a3.848,3.848,0,0,1-1.744-.8c-.957-.892-2.761-6.16-4.13-10.793-1.633-5.526-2.777-10.51-2.788-12.152v.009c0,.045,0,.068-.005.074h0c-.011,0-.025-.015-.044-.037l-.082-.09a4.924,4.924,0,0,0-.67-.548,22.057,22.057,0,0,0-3.209-1.755c-1.259-.586-2.773-1.221-4.5-1.887-1.925-.743-4.07-1.509-6.376-2.279l-.45-.15Z" transform="translate(197 641.212)" fill="#fff"/>
  <path id="Path-6" data-name="Path" d="M65.156,0c46.221,12.824,53.337,147.347,48.581,153.978-4.99,7-103.372,21.626-109.312,14.264C-.858,161.7-9.976,35.349,36.574,5.366" transform="translate(316 119.481)" fill="none" stroke="#fff" stroke-linecap="round" stroke-linejoin="round" stroke-miterlimit="10" stroke-width="2.5"/>
  <path id="Path-7" data-name="Path" d="M21,41.363c-8.878,1.183-21,.145-21-4.109V0" transform="translate(353 90.606)" fill="none" stroke="#fff" stroke-linecap="round" stroke-linejoin="round" stroke-miterlimit="10" stroke-width="2.5"/>
  <path id="Path-8" data-name="Path" d="M.5,0V14.935" transform="translate(382 104.545)" fill="none" stroke="#fff" stroke-linecap="round" stroke-linejoin="round" stroke-miterlimit="10" stroke-width="2.5"/>
  <path id="Path-9" data-name="Path" d="M4,5.974A42.631,42.631,0,0,1,0,0" transform="translate(349 84.632)" fill="none" stroke="#fff" stroke-linecap="round" stroke-linejoin="round" stroke-miterlimit="10" stroke-width="2.5"/>
  <path id="Path-10" data-name="Path" d="M20.673,0A51.1,51.1,0,0,1,24,18.381c0,19.4-10.3,35.588-24,39.368" transform="translate(382 45.801)" fill="none" stroke="#fff" stroke-linecap="round" stroke-linejoin="round" stroke-miterlimit="10" stroke-width="2.5"/>
  <path id="Path-11" data-name="Path" d="M266.527,1.3a3.686,3.686,0,0,1,5.162-.452,3.61,3.61,0,0,1,.589,4.949l-.133.168L6.473,320.3a3.686,3.686,0,0,1-5.162.452A3.61,3.61,0,0,1,.722,315.8l.133-.168Z" transform="translate(91 363.42)" fill="#fff"/>
  <path id="Path-12" data-name="Path" d="M55,0c-1.61,27.568-9.645,134.879-15.247,144.712-6.21,10.968-22.674,22.561-25.471,22.561S0,152.652,0,148.081s15.84-21.935,16.456-27.423C17,115.913,13.347,29.766,12.962,2.081" transform="translate(332 227.013)" fill="#fff" stroke="#000" stroke-linecap="round" stroke-linejoin="round" stroke-miterlimit="10" stroke-width="2.5"/>
  <path id="Path-13" data-name="Path" d="M21.983,87.619c-10.825,0-17.592-1.036-19.569-2.995C1.614,83.831.972,81.9.557,79.046A71.3,71.3,0,0,1,0,68.628,145.285,145.285,0,0,1,2.943,41.475l.238-1.108c2.788-12.714,6.946-22.631,12.357-29.476C21.25,3.664,28.272,0,36.408,0,44.57,0,51.285,3.631,56.366,10.791c4.812,6.781,8.062,16.561,9.66,29.068a130.959,130.959,0,0,1,.48,27.353,63.907,63.907,0,0,1-1.679,10.333c-.755,2.8-1.667,4.615-2.638,5.256-1.52,1-5.285,1.974-10.888,2.807-5.366.8-12.188,1.421-19.211,1.753l-1.193.054C27.728,87.55,24.729,87.619,21.983,87.619ZM36.408,2.638c-7.362,0-13.765,3.451-19.033,10.257C12.337,19.4,8.438,28.836,5.786,40.926A137.624,137.624,0,0,0,2.672,68.737a72.474,72.474,0,0,0,.511,9.815c.338,2.477.8,3.9,1.118,4.208,1.4,1.387,7.981,2.183,18.056,2.183a232.029,232.029,0,0,0,23.383-1.218c7.871-.836,13.188-1.944,14.969-3.12.307-.2.867-1.291,1.426-3.27l.149-.553a63.7,63.7,0,0,0,1.529-9.438,125.185,125.185,0,0,0-.434-27.155c-1.512-11.838-4.524-21.083-8.95-27.479C49.8,6.027,43.741,2.638,36.408,2.638Z" transform="translate(333 142.381)" fill="#fff"/>
  <path id="Path-14" data-name="Path" d="M20.358.137,178.2.381a20.431,20.431,0,0,1,14.367,5.933,20.181,20.181,0,0,1,5.969,14.279l.1,68.1L.189,88.391l-.1-68.1A20.168,20.168,0,0,1,20.358.137Z" transform="translate(24.39 627.459) rotate(-50.04)" fill="#fff"/>
  <path id="Oval" d="M16,31.862a15.931,15.931,0,1,1,11.314-27.2A15.931,15.931,0,0,1,16,31.862Zm0-25.7a9.772,9.772,0,1,0,9.808,9.772A9.8,9.8,0,0,0,16,6.159Z" transform="translate(108 652.164)" fill="#fff"/>
  <path id="Path-15" data-name="Path" d="M157.18,0c-14.159,0-47.44,16.477-67.3,16.477C74.9,16.477,54.717.891,37.689.891,5.919.891,0,40.514,0,49.72,0,78.639,19.443,85.628,25.873,85.628c12.546,0,42.492-10.241,57.731-10.241,16.9,0,35.354,10.241,45.907,10.241,9.065,0,13.137-3.259,14.028-4,.277-.232.212-1.811.088-3.9a9.007,9.007,0,0,1-1.263.094,9.829,9.829,0,0,1-9.379-6.911,9.724,9.724,0,0,1,3.888-10.932,9.9,9.9,0,0,1,11.673.461c5.934-4.273,17.516-7.293,20.815-9.285,8.7-5.222,17.29-12.073,17.67-13.855,1.153,1.854,2.19,3.411,4.751,10.009,4.087-1.716,9.218-6.591,9.218-21.22C201,3.049,164.96,0,157.18,0Z" transform="translate(210)" fill="#fff"/>
</svg>
