<svg id="Vector_Travel" data-name="Vector/Travel" xmlns="http://www.w3.org/2000/svg" width="646" height="693" viewBox="0 0 646 693">
  <path id="Path" d="M573.63,327.189C537.744,266.1,514.03,224.027,479.368,162.1c-22.145-39.6-48.689-87.314-80.242-120.633L395.394,47.4l-5.749,5.381-7.6,3.722-.22,6.988.22,6.217.968,1.329,7.758,4.118,6.453,5.5,9.019,12.119L413,106.47l4.642,12.581,4.414,15.562,2.992,13.264,3.285,19.012,1.936,15.547,1.782,29.582L430.8,225.634l-39.677,24.759.733,85.325-56.513,31.843L326.694,324.9l13.28-49.775-16.227-33.494-2.625-2.121-2.31-7.267L317.2,209.676l-.55-22.33,1.569-29.362,2.2-15.18L323,130.848l3.967-13.947,5.067-14.314L338.4,91.664l4.818-6.364,7.5-7.091,2.61-1.145.279-33.927-3.212-6.526-11.564-5.138,4.612-18.124,13.646-4.4a89.979,89.979,0,0,0-16.257-6.115C282.316-12.687,210.822,38.065,146.58,94.821,82.492,151.5,25.671,214.235,6.943,288.329s.836,159.647,53.763,202c52.8,42.5,139.087,41.8,213.939,66.541C349.5,581.755,413.036,632.081,483,634.878a161.193,161.193,0,0,0,20-.462l-4.158-18.924,24.2-7.619,35.813-3.516,1.738,6.1-.337,4.4-2.838,3.487-17.716,8.985c49.95-15.107,93.441-51.229,103.736-96.739C657.7,468.243,609.516,388.144,573.63,327.189Z" transform="translate(0 48)" fill="#fff"/>
  <path id="Path-2" data-name="Path" d="M105.288,0C90.038,6.938,14.3,18.036.091,13.818c0,.316-.051.617-.066.941-1.65,46.414,78.216,179.974,81.522,186.6s91.435,182.216,93.114,188.287c4.4,1.661,22.582-2.756,25.339-9.386Z" transform="translate(322 275)" fill="#01459d"/>
  <path id="Path-3" data-name="Path" d="M114.9,14c-7.811,28.99-28.3,165.205-28.3,169.871C86.605,188.918-.336,367.2,0,370.9S21.733,382,21.733,382,142.774,223.532,150.482,216.463c7.393-6.789,74.7-174.235,71.4-216.463C208.995,7.061,126.706,19.2,114.9,14Z" transform="translate(207 275)" fill="#01459d"/>
  <path id="Path-4" data-name="Path" d="M60.8.006a1.329,1.329,0,0,1,1.316.726,17.627,17.627,0,0,1,1.578,11.228c-.691,3.209-10.3,9.2-23.945,15.764l-1.626.775c-12.406,5.863-23.436,9.842-27.285,9.477C6.3,37.546,3.5,32.423,1.707,24.192c-.524-2.4-.929-4.959-1.241-7.605-.117-.995-.216-1.958-.3-2.923L0,11.786A1.331,1.331,0,0,1,2.64,11.43l.025.217.057.7c.03.367.06.712.092,1.071.085.942.182,1.882.3,2.851.3,2.566.694,5.036,1.2,7.346l.19.84c1.549,6.612,3.827,10.587,6.589,10.849,3.268.31,14.675-3.861,27-9.755L38.6,25.3C50.965,19.354,60.679,13.3,61.083,11.426a14.91,14.91,0,0,0-.816-8.313l-.145-.345L21.783,6.559a1.333,1.333,0,0,1-1.435-1.068l-.02-.136a1.34,1.34,0,0,1,1.06-1.446l.135-.02Z" transform="translate(498 652)" fill="#01459d"/>
  <path id="Path-5" data-name="Path" d="M28.529,49h0a63.626,63.626,0,0,1-10.2-.606c-1.834-.351-3.843-1.754-5.97-4.17a52.549,52.549,0,0,1-6.288-9.441L5.867,34.4C2.632,28.378,0,21.7,0,19.521c0-1.537,1.034-4.033,3.074-7.418A116.129,116.129,0,0,1,10.64,1.34l.646-.829A1.342,1.342,0,0,1,12.738.06l.082.025L12.9.11l1.894.611.9.3c2.339.784,4.524,1.569,6.493,2.331,1.79.694,3.36,1.356,4.667,1.968,3.42,1.6,5.54,2.949,5.54,4.724l0,.136c.143,3.282,4.973,19.973,6.08,21.01h0a.741.741,0,0,1,.14.036c.094.029.236.073.414.122l.265.07c.021,0,5.649,1.143,7.628,1.71l.371.109a17.583,17.583,0,0,1,7.149,3.668A7.8,7.8,0,0,1,57,42.859c0,1.607-1.463,2.843-4.473,3.781a61.494,61.494,0,0,1-12.588,1.924l-.52.04C35.888,48.863,32.123,49,28.529,49ZM12.824,2.865l-.576.749c-2.708,3.536-5.038,6.869-6.74,9.64-1.857,3.025-2.839,5.192-2.839,6.267,0,1.585,2.514,8.048,5.755,14.006l.229.418c3.825,6.933,7.632,11.363,10.184,11.851a60.971,60.971,0,0,0,9.651.558c3.368,0,6.9-.122,10.226-.354l1.016-.075c8.356-.648,14.6-2.153,14.6-3.067,0-3.31-2.59-5.595-8.149-7.189-1.587-.455-5.736-1.318-7.446-1.667l-.042-.009-.308-.076a3.841,3.841,0,0,1-1.744-.806c-.957-.9-2.761-6.186-4.13-10.839-1.633-5.55-2.777-10.556-2.788-12.2v.009c0,.046,0,.069-.005.074h0c-.011,0-.025-.015-.044-.037l-.082-.09a4.928,4.928,0,0,0-.67-.551A22.029,22.029,0,0,0,25.711,7.71c-1.259-.589-2.773-1.226-4.5-1.9-1.925-.746-4.07-1.516-6.376-2.289l-.45-.15Z" transform="translate(197 644)" fill="#01459d"/>
  <path id="Path-6" data-name="Path" d="M65.156,0c46.221,12.879,53.337,147.987,48.581,154.647-4.99,7.027-103.372,21.72-109.312,14.326C-.858,162.4-9.976,35.5,36.574,5.39" transform="translate(316 120)" fill="none" stroke="#01459d" stroke-linecap="round" stroke-linejoin="round" stroke-miterlimit="10" stroke-width="2.5"/>
  <path id="Path-7" data-name="Path" d="M21,41.543c-8.878,1.189-21,.146-21-4.127V0" transform="translate(353 91)" fill="none" stroke="#01459d" stroke-linecap="round" stroke-linejoin="round" stroke-miterlimit="10" stroke-width="2.5"/>
  <path id="Path-8" data-name="Path" d="M.5,0V15" transform="translate(382 105)" fill="none" stroke="#01459d" stroke-linecap="round" stroke-linejoin="round" stroke-miterlimit="10" stroke-width="2.5"/>
  <path id="Path-9" data-name="Path" d="M4,6A42.83,42.83,0,0,1,0,0" transform="translate(349 85)" fill="none" stroke="#01459d" stroke-linecap="round" stroke-linejoin="round" stroke-miterlimit="10" stroke-width="2.5"/>
  <path id="Path-10" data-name="Path" d="M20.673,0A51.519,51.519,0,0,1,24,18.46C24,37.947,13.7,54.2,0,58" transform="translate(382 46)" fill="none" stroke="#01459d" stroke-linecap="round" stroke-linejoin="round" stroke-miterlimit="10" stroke-width="2.5"/>
  <path id="Path-11" data-name="Path" d="M266.527,1.305a3.675,3.675,0,0,1,5.162-.454,3.637,3.637,0,0,1,.589,4.971l-.133.168L6.473,321.695a3.675,3.675,0,0,1-5.162.454,3.637,3.637,0,0,1-.589-4.971l.133-.168Z" transform="translate(91 365)" fill="#97c3ff"/>
  <path id="Path-12" data-name="Path" d="M55,0c-1.61,27.688-9.645,135.466-15.247,145.341C33.543,156.356,17.079,168,14.282,168S0,153.315,0,148.725s15.84-22.031,16.456-27.542C17,116.417,13.347,29.9,12.962,2.09" transform="translate(332 228)" fill="#fff" stroke="#01459d" stroke-linecap="round" stroke-linejoin="round" stroke-miterlimit="10" stroke-width="2.5"/>
  <path id="Path-13" data-name="Path" d="M21.984,88C11.159,88,4.392,86.96,2.415,84.992c-.8-.8-1.443-2.734-1.857-5.6A71.917,71.917,0,0,1,0,68.927,146.527,146.527,0,0,1,2.943,41.656l.238-1.113c2.788-12.769,6.946-22.729,12.357-29.6C21.25,3.68,28.272,0,36.408,0,44.57,0,51.285,3.646,56.366,10.838c4.812,6.81,8.062,16.633,9.66,29.195a132.1,132.1,0,0,1,.48,27.472,64.441,64.441,0,0,1-1.679,10.378c-.755,2.809-1.667,4.635-2.638,5.278-1.52,1.007-5.285,1.982-10.888,2.82-5.366.8-12.188,1.427-19.211,1.761L30.9,87.8C27.728,87.931,24.729,88,21.984,88ZM36.408,2.65c-7.362,0-13.765,3.466-19.033,10.3C12.337,19.489,8.438,28.961,5.786,41.1A138.8,138.8,0,0,0,2.672,69.036a73.1,73.1,0,0,0,.511,9.858c.338,2.488.8,3.915,1.118,4.226,1.4,1.393,7.981,2.193,18.057,2.193a231.034,231.034,0,0,0,23.383-1.224c7.871-.84,13.188-1.953,14.969-3.134.307-.2.867-1.3,1.426-3.284l.149-.555a64.229,64.229,0,0,0,1.529-9.479,126.272,126.272,0,0,0-.434-27.273c-1.512-11.89-4.524-21.175-8.95-27.6C49.8,6.053,43.741,2.65,36.408,2.65Z" transform="translate(333 143)" fill="#01459d"/>
  <path id="Path-14" data-name="Path" d="M20.41.094,178.656,0a20.4,20.4,0,0,1,14.391,5.913A20.122,20.122,0,0,1,199,20.2l-.041,68.226L0,88.549.041,20.323A20.316,20.316,0,0,1,20.41.094Z" transform="translate(24.39 630.187) rotate(-50.04)" fill="#085ed0"/>
  <path id="Oval" d="M16,32A16,16,0,0,1,4.686,4.687,16,16,0,1,1,27.314,27.314,15.9,15.9,0,0,1,16,32ZM16,6.186A9.814,9.814,0,1,0,25.808,16,9.822,9.822,0,0,0,16,6.186Z" transform="translate(108 655)" fill="#97c3ff"/>
  <path id="Path-15" data-name="Path" d="M157.18,0c-14.159,0-47.44,16.548-67.3,16.548C74.9,16.548,54.717.895,37.689.895,5.919.895,0,40.691,0,49.936,0,78.981,19.443,86,25.873,86,38.419,86,68.365,75.715,83.6,75.715,100.5,75.715,118.958,86,129.511,86c9.065,0,13.137-3.273,14.028-4.015.277-.233.212-1.818.088-3.921a8.969,8.969,0,0,1-1.263.095A9.812,9.812,0,1,1,148.546,60.7c5.934-4.292,17.516-7.325,20.815-9.325,8.7-5.245,17.29-12.126,17.67-13.915,1.153,1.862,2.19,3.426,4.751,10.053C195.869,45.79,201,40.894,201,26.2,201,3.062,164.96,0,157.18,0Z" transform="translate(210)" fill="#085ed0"/>
</svg>
