<svg id="Vector_Plant_05" data-name="Vector/Plant 05" xmlns="http://www.w3.org/2000/svg" width="301" height="526" viewBox="0 0 301 526">
  <path id="Stems" d="M95.527,484.729c31.863-61.758,14.825-141.961-5.078-198.367A608.693,608.693,0,0,0,38.99,177.478L41.324,176A611.768,611.768,0,0,1,93.05,285.438C113.136,342.36,130.294,423.363,97.98,486Zm26.329-50.148,47.1-65.13,2.246,1.624L124.1,436.2ZM0,261.768l2.03-1.889,92.85,99.75-2.029,1.888Zm111.991,49.265c49.347-49.052,57.712-130.765,56.039-190.675A610.194,610.194,0,0,0,152.365.69L155.044,0A613.317,613.317,0,0,1,170.8,120.279c1.688,60.459-6.807,142.971-56.855,192.722Zm-8.382-36.595,17.981-98.37,2.725.5-17.98,98.37Zm49.089-3.112L217.522,223.8l1.639,2.235L154.337,273.56ZM89.8,69.458l2.511-1.174,57.731,123.43-2.511,1.174Zm94.713,43.853,47.322-88.1,2.441,1.31-47.322,88.1Z" transform="translate(35.01 40)" fill="#085ed0"/>
  <path id="Leaves" d="M216,385a14,14,0,1,1,14,14A14,14,0,0,1,216,385Zm-57-6a14,14,0,1,1,14,14A14,14,0,0,1,159,379ZM33,351a14,14,0,1,1,14,14A14,14,0,0,1,33,351Zm207-37a14,14,0,1,1,14,14A14,14,0,0,1,240,314ZM0,283a14,14,0,1,1,14,14A14,14,0,0,1,0,283Zm262-37a14,14,0,1,1,14,14A14,14,0,0,1,262,246ZM112,202a14,14,0,1,1,14,14A14,14,0,0,1,112,202Zm-65-9a14,14,0,1,1,14,14A14,14,0,0,1,47,193Zm194-14a14,14,0,1,1,14,14A14,14,0,0,1,241,179ZM97,85a14,14,0,1,1,14,14A14,14,0,0,1,97,85ZM273,30a14,14,0,1,1,14,14A14,14,0,0,1,273,30ZM169,14a14,14,0,1,1,14,14A14,14,0,0,1,169,14Z" fill="#97c3ff"/>
</svg>
