<svg id="Vector_Envelope" data-name="Vector/Envelope" xmlns="http://www.w3.org/2000/svg" width="800" height="303" viewBox="0 0 800 303">
  <path id="Color" d="M167.018,294.044a2.265,2.265,0,0,1,.028-4.531h.03c2.751.034,5.545.051,8.3.051.994,0,2.006,0,3.006-.006h.01a2.273,2.273,0,0,1,2.269,2.255,2.266,2.266,0,0,1-2.258,2.274c-1.018,0-2.054.006-3.078.006C172.547,294.1,169.752,294.079,167.018,294.044Zm31.771-2.611a2.266,2.266,0,0,1,2.182-2.348c3.743-.14,7.542-.311,11.29-.51.041,0,.082,0,.122,0a2.265,2.265,0,0,1,.119,4.527c-3.808.2-7.63.375-11.363.514h-.086A2.258,2.258,0,0,1,198.789,291.434Zm-54.423,1.918-.113,0c-3.793-.186-7.617-.411-11.366-.669a2.265,2.265,0,0,1,.154-4.524c.052,0,.105,0,.157.005,3.721.255,7.515.478,11.277.663a2.265,2.265,0,0,1-.109,4.527Zm88.406-3.885a2.265,2.265,0,0,1,2.067-2.449c3.712-.315,7.5-.666,11.251-1.043a2.194,2.194,0,0,1,.231-.012,2.265,2.265,0,0,1,.223,4.519c-3.763.378-7.572.732-11.321,1.049-.065.005-.13.008-.2.008A2.279,2.279,0,0,1,232.772,289.466Zm-122.537,1.178c-3.812-.427-7.618-.9-11.314-1.4a2.265,2.265,0,1,1,.615-4.488c3.66.5,7.43.968,11.205,1.391a2.265,2.265,0,0,1-.25,4.515A2.431,2.431,0,0,1,110.236,290.644ZM266.6,285.891a2.264,2.264,0,0,1,1.948-2.544c3.767-.5,7.53-1.038,11.185-1.589a2.406,2.406,0,0,1,.341-.025,2.28,2.28,0,0,1,2.239,1.928,2.265,2.265,0,0,1-1.9,2.578c-3.684.554-7.472,1.093-11.261,1.6a2.44,2.44,0,0,1-.3.02A2.272,2.272,0,0,1,266.6,285.891Zm-190.222-.345c-3.8-.733-7.553-1.521-11.166-2.339a2.265,2.265,0,1,1,1-4.418c3.586.812,7.295,1.589,11.024,2.31a2.264,2.264,0,0,1-.428,4.488A2.328,2.328,0,0,1,76.382,285.547Zm223.827-4.9A2.265,2.265,0,0,1,302.02,278c3.727-.7,7.456-1.434,11.083-2.186a2.242,2.242,0,0,1,.464-.049,2.276,2.276,0,0,1,2.218,1.805,2.267,2.267,0,0,1-1.759,2.678c-3.694.765-7.452,1.507-11.171,2.2a2.37,2.37,0,0,1-.42.039A2.266,2.266,0,0,1,300.209,280.645Zm-257.071-3.3c-3.728-1.152-7.383-2.374-10.864-3.632a2.266,2.266,0,0,1-1.361-2.9,2.274,2.274,0,0,1,2.132-1.494,2.248,2.248,0,0,1,.772.136c3.43,1.239,7.017,2.438,10.661,3.565a2.265,2.265,0,0,1-.67,4.429A2.275,2.275,0,0,1,43.139,277.342Zm290.339-3.829a2.265,2.265,0,0,1,1.642-2.752c3.669-.93,7.337-1.906,10.9-2.9a2.265,2.265,0,1,1,1.224,4.362c-3.574,1-7.279,1.986-11.012,2.931a2.307,2.307,0,0,1-.559.069A2.266,2.266,0,0,1,333.478,273.513Zm32.658-9.462a2.264,2.264,0,0,1,1.4-2.881c3.626-1.253,7.183-2.553,10.571-3.866a2.251,2.251,0,0,1,.82-.155,2.283,2.283,0,0,1,2.115,1.447,2.265,2.265,0,0,1-1.293,2.931c-3.439,1.332-7.049,2.652-10.73,3.924a2.271,2.271,0,0,1-2.885-1.4Zm-353.955.885a2.25,2.25,0,0,1-1.02-.243c-3.522-1.778-6.91-3.651-10.071-5.569a2.266,2.266,0,1,1,2.355-3.871c3.065,1.859,6.349,3.676,9.761,5.4a2.265,2.265,0,0,1-1.025,4.287Zm385.461-13.659a2.265,2.265,0,0,1,.993-3.046c3.464-1.759,6.755-3.577,9.782-5.4a2.266,2.266,0,1,1,2.343,3.88c-3.128,1.883-6.515,3.752-10.068,5.557a2.268,2.268,0,0,1-3.049-.992Zm28.7-18.191a2.263,2.263,0,0,1,.4-3.179c2.881-2.236,5.836-4.611,8.782-7.056a2.266,2.266,0,1,1,2.9,3.483c-2.985,2.478-5.98,4.883-8.9,7.15a2.272,2.272,0,0,1-3.182-.4Zm177.423-2.915c-3.821-.013-7.663-.093-11.416-.234a2.265,2.265,0,0,1,.084-4.529c.03,0,.059,0,.088,0,3.71.14,7.5.218,11.259.23a2.265,2.265,0,1,1-.009,4.531Zm20.425-2.788a2.266,2.266,0,0,1,2.127-2.4c3.709-.226,7.487-.51,11.228-.847.068-.006.138-.01.207-.01a2.265,2.265,0,0,1,.2,4.522c-3.826.344-7.648.632-11.362.857-.046,0-.093,0-.139,0A2.268,2.268,0,0,1,624.189,227.382Zm-54.639.848c-3.808-.432-7.619-.941-11.327-1.515a2.268,2.268,0,0,1-1.9-2.585,2.266,2.266,0,0,1,2.588-1.892c3.652.564,7.4,1.066,11.146,1.49a2.265,2.265,0,0,1-.254,4.516A2.465,2.465,0,0,1,569.55,228.23Zm88.478-4.171a2.27,2.27,0,0,1,1.918-2.569c3.664-.533,7.413-1.127,11.145-1.766a2.23,2.23,0,0,1,.386-.033,2.265,2.265,0,0,1,.381,4.5c-3.772.646-7.56,1.247-11.258,1.784a2.4,2.4,0,0,1-.33.023A2.278,2.278,0,0,1,658.028,224.059Zm-122.24-1.806c-3.72-.915-7.436-1.922-11.045-2.992a2.264,2.264,0,0,1-1.528-2.816,2.267,2.267,0,0,1,2.821-1.526c3.548,1.052,7.194,2.039,10.837,2.935a2.265,2.265,0,0,1-.541,4.465A2.309,2.309,0,0,1,535.788,222.252Zm155.719-4.167a2.264,2.264,0,0,1,1.727-2.7l2.933-.656c2.707-.617,5.419-1.265,8.061-1.929a2.237,2.237,0,0,1,.556-.069,2.265,2.265,0,0,1,.552,4.462c-3.3.83-6.753,1.645-10.253,2.423l-.874.193a2.312,2.312,0,0,1-.49.053A2.28,2.28,0,0,1,691.507,218.085Zm-239.163-6.9a2.263,2.263,0,0,1,.131-3.2c2.647-2.434,5.344-4.961,8.247-7.724a2.266,2.266,0,1,1,3.13,3.279c-2.89,2.751-5.605,5.3-8.3,7.778a2.272,2.272,0,0,1-3.2-.131Zm51.646.628a2.265,2.265,0,0,1-.864-.171c-3.551-1.465-7.076-3.034-10.478-4.663a2.264,2.264,0,0,1-1.065-3.022,2.281,2.281,0,0,1,2.046-1.286,2.248,2.248,0,0,1,.98.224c3.329,1.594,6.777,3.127,10.247,4.559a2.265,2.265,0,0,1-.866,4.359Zm220.386-2.4a2.263,2.263,0,0,1,1.434-2.865c3.641-1.213,7.2-2.491,10.57-3.8a2.249,2.249,0,0,1,.819-.154,2.283,2.283,0,0,1,2.115,1.446,2.265,2.265,0,0,1-1.294,2.931c-3.446,1.335-7.071,2.636-10.774,3.87a2.267,2.267,0,0,1-2.869-1.432ZM755.838,196.5a2.263,2.263,0,0,1,.905-3.073c3.383-1.842,6.593-3.774,9.542-5.739a2.266,2.266,0,1,1,2.52,3.767c-3.066,2.044-6.394,4.046-9.89,5.949a2.27,2.27,0,0,1-3.077-.9Zm-278.926-8.809a2.263,2.263,0,0,1,.018-3.2l8.061-7.97a2.267,2.267,0,1,1,3.191,3.22l-8.063,7.972a2.272,2.272,0,0,1-3.208-.019ZM783.27,176.458a2.262,2.262,0,0,1-.24-3.194,53.546,53.546,0,0,0,6.26-8.882,2.267,2.267,0,0,1,3.083-.882,2.262,2.262,0,0,1,.883,3.08,58.052,58.052,0,0,1-6.788,9.639,2.27,2.27,0,0,1-3.2.239ZM445.6,174.473c-2.771-2.749-5.407-5.593-7.835-8.455a2.267,2.267,0,0,1,3.46-2.929c2.341,2.759,4.889,5.508,7.572,8.169a2.267,2.267,0,0,1-3.2,3.215Zm55.569-10.627a2.261,2.261,0,0,1,.066-3.2c2.136-2.049,4.237-4.043,6.247-5.926l2.017-1.884a2.267,2.267,0,1,1,3.092,3.316c-1.95,1.813-3.947,3.693-6.106,5.746l-2.108,2.015a2.272,2.272,0,0,1-3.208-.065Zm-76.462-16.9a68.638,68.638,0,0,1-4.575-10.786,2.268,2.268,0,0,1,4.322-1.377,64.064,64.064,0,0,0,4.275,10.068,2.268,2.268,0,0,1-4.022,2.1Zm369.761-3.033a40.35,40.35,0,0,0-1.792-10.57,2.268,2.268,0,0,1,4.337-1.328A44.848,44.848,0,0,1,799,143.767a2.267,2.267,0,0,1-2.2,2.335h-.071A2.255,2.255,0,0,1,794.465,143.908Zm-268.232-3.024a2.264,2.264,0,0,1,.26-3.193c2.947-2.5,5.909-4.938,8.8-7.25a2.266,2.266,0,1,1,2.833,3.538c-2.843,2.27-5.77,4.681-8.7,7.166a2.271,2.271,0,0,1-3.2-.26ZM554.9,120.933a2.265,2.265,0,0,1-2.233-2.672,2.248,2.248,0,0,1,.941-1.455c3.146-2.172,6.351-4.294,9.528-6.308a2.266,2.266,0,1,1,2.431,3.825c-3.131,1.984-6.286,4.073-9.38,6.209a2.257,2.257,0,0,1-1.287.4Zm-133.8-5.675a2.267,2.267,0,0,1-1.732-2.7A61.5,61.5,0,0,1,423,101.378a2.268,2.268,0,0,1,4.165,1.8,56.932,56.932,0,0,0-3.37,10.356,2.265,2.265,0,0,1-2.7,1.728Zm360.932-.868a79.2,79.2,0,0,0-7.637-7.935,2.263,2.263,0,0,1-.153-3.2,2.269,2.269,0,0,1,3.2-.152,83.674,83.674,0,0,1,8.075,8.393,2.267,2.267,0,0,1-3.489,2.894ZM581.976,102.121a2.264,2.264,0,0,1,.958-3.057c3.358-1.754,6.8-3.462,10.247-5.077a2.252,2.252,0,0,1,.963-.216,2.279,2.279,0,0,1,2.055,1.3,2.264,2.264,0,0,1-1.089,3.012c-3.385,1.588-6.773,3.267-10.072,4.991a2.27,2.27,0,0,1-3.062-.957ZM756.431,93.53c-3.155-1.813-6.486-3.531-9.9-5.1a2.262,2.262,0,0,1-1.108-3.006,2.276,2.276,0,0,1,2.06-1.316,2.239,2.239,0,0,1,.949.21c3.535,1.63,6.987,3.409,10.26,5.29a2.262,2.262,0,0,1,.835,3.092,2.27,2.27,0,0,1-3.1.834ZM612.95,88.073a2.263,2.263,0,0,1,1.341-2.91c3.538-1.306,7.172-2.563,10.8-3.737a2.265,2.265,0,1,1,1.4,4.31c-3.56,1.15-7.136,2.387-10.627,3.676a2.269,2.269,0,0,1-2.913-1.339Zm-177.306-3.2a2.264,2.264,0,0,1-.311-3.189c2.341-2.841,4.96-5.713,7.783-8.536a2.267,2.267,0,1,1,3.208,3.2c-2.72,2.718-5.239,5.481-7.488,8.212a2.273,2.273,0,0,1-3.193.311Zm289.9-4.119c-3.561-.994-7.214-1.866-10.858-2.593a2.265,2.265,0,1,1,.89-4.442c3.768.753,7.532,1.652,11.188,2.672a2.263,2.263,0,0,1,1.574,2.791,2.268,2.268,0,0,1-2.794,1.572ZM645.43,77.985a2.265,2.265,0,0,1,1.677-2.731c.924-.221,1.847-.438,2.741-.644,2.812-.647,5.673-1.221,8.5-1.705a2.23,2.23,0,0,1,.386-.033,2.265,2.265,0,0,1,.381,4.5c-2.757.472-5.532,1.029-8.251,1.655-.935.214-1.844.428-2.7.635a2.3,2.3,0,0,1-.53.062A2.26,2.26,0,0,1,645.43,77.985ZM500.97,76.744a1.128,1.128,0,0,1-.95-.749l-11.6-32.705L458.354,25.313a1.135,1.135,0,0,1,.137-2.017l.138-.049L540.937.045a1.124,1.124,0,0,1,1.316.568,1.113,1.113,0,0,1-.008,1.061l-40.157,74.48a1.115,1.115,0,0,1-.993.6A1.206,1.206,0,0,1,500.97,76.744ZM490.559,42.532,501.3,72.826l36.32-67.367ZM461.777,24.717l27.133,16.224,47.2-37.182ZM692.518,75.4c-2.593-.133-5.224-.2-7.817-.2-1.113,0-2.242.012-3.356.037h-.051a2.278,2.278,0,0,1-2.266-2.214,2.267,2.267,0,0,1,2.218-2.315c1.146-.026,2.309-.039,3.459-.039,2.668,0,5.375.069,8.046.206a2.265,2.265,0,0,1-.113,4.527ZM460.052,61.338a2.263,2.263,0,0,1,.437-3.173c2.929-2.218,6.058-4.463,9.3-6.674a2.266,2.266,0,1,1,2.557,3.742c-3.172,2.16-6.24,4.361-9.119,6.541a2.273,2.273,0,0,1-3.178-.437Z" transform="translate(0.5 8.904)" fill="#085ed0"/>
</svg>
