<svg xmlns="http://www.w3.org/2000/svg" width="667" height="601.5" viewBox="0 0 667 601.5">
  <g id="Group_42" data-name="Group 42" transform="translate(-663 -287.25)">
    <g id="Vector_Iphone_Light" data-name="Vector/Iphone/Light" transform="translate(927 288)">
      <path id="Border_02" data-name="Border 02" d="M42.729,599.85a49.013,49.013,0,0,1-8.068-.748,41.757,41.757,0,0,1-14.343-5.988A39.848,39.848,0,0,1,5.827,575.449a43.688,43.688,0,0,1-2.391-7.485,37.039,37.039,0,0,1-.747-8.084V221.407H.6a.643.643,0,0,1-.6-.6v-39.82a.643.643,0,0,1,.6-.6H2.689V167.215H.6a.643.643,0,0,1-.6-.6V126.8a.643.643,0,0,1,.6-.6H2.689V103.892H.6a.643.643,0,0,1-.6-.6V82.934a.643.643,0,0,1,.6-.6H2.689V40.12a49.3,49.3,0,0,1,.747-8.084A41.935,41.935,0,0,1,9.412,17.665,39.8,39.8,0,0,1,27.042,3.144a43.45,43.45,0,0,1,7.47-2.4A36.822,36.822,0,0,1,42.579,0H257.57a49,49,0,0,1,8.068.749A41.757,41.757,0,0,1,279.98,6.737,39.847,39.847,0,0,1,294.472,24.4a43.7,43.7,0,0,1,2.391,7.485,37.04,37.04,0,0,1,.747,8.084v100H299.4a.643.643,0,0,1,.6.6v64.97a.643.643,0,0,1-.6.6H297.61V559.88a49.308,49.308,0,0,1-.747,8.084,41.93,41.93,0,0,1-5.976,14.371,39.8,39.8,0,0,1-17.63,14.521,43.437,43.437,0,0,1-7.47,2.4,36.815,36.815,0,0,1-8.068.748Z" fill="none" stroke="#ffffff" stroke-miterlimit="10" stroke-width="1.5"/>
      <path id="Border_01" data-name="Border 01" d="M245.6,576H27.706C12.366,576,0,563.968,0,549.043V26.957C0,12.032,12.366,0,27.706,0H57.135a4.587,4.587,0,0,1,3.757,3.655,6.593,6.593,0,0,1,.313,1.98c.313,1.523.626,3.351,1.1,5.178A13.707,13.707,0,0,0,75.762,21.322H198.015a13.708,13.708,0,0,0,13.462-10.509,43.853,43.853,0,0,0,1.1-5.178,12.327,12.327,0,0,0,.313-1.98A4.587,4.587,0,0,1,216.642,0h28.646c15.34,0,27.706,12.032,27.706,26.957V549.043C273.307,563.968,260.941,576,245.6,576Z" transform="translate(13 11)" fill="none" stroke="#ffffff" stroke-miterlimit="10" stroke-width="1.5"/>
    </g>
    <g id="Vector_Envelope_Light" data-name="Vector/Envelope/Light" transform="translate(663 452)">
      <path id="Color" d="M139.252,242.611a1.893,1.893,0,0,1-1.33-.564,1.845,1.845,0,0,1-.537-1.328,1.887,1.887,0,0,1,1.89-1.845h.025c2.294.028,4.623.042,6.923.042.829,0,1.673,0,2.506-.005h.008a1.885,1.885,0,0,1,1.892,1.861,1.846,1.846,0,0,1-.548,1.323,1.892,1.892,0,0,1-1.335.553c-.849,0-1.712.005-2.566.005C143.861,242.653,141.531,242.639,139.252,242.611Zm26.489-2.154a1.843,1.843,0,0,1,.5-1.341,1.888,1.888,0,0,1,1.316-.6c3.121-.115,6.288-.257,9.413-.421.035,0,.068,0,.1,0a1.881,1.881,0,0,1,1.887,1.77,1.84,1.84,0,0,1-.482,1.349,1.888,1.888,0,0,1-1.306.617c-3.175.167-6.362.31-9.473.424h-.072A1.874,1.874,0,0,1,165.741,240.457Zm-45.375,1.582-.094,0c-3.162-.154-6.35-.339-9.476-.552a1.889,1.889,0,0,1-1.3-.636,1.845,1.845,0,0,1-.461-1.356,1.886,1.886,0,0,1,1.885-1.741c.044,0,.088,0,.131,0,3.1.21,6.266.394,9.4.547a1.884,1.884,0,0,1,1.308.611,1.844,1.844,0,0,1,.488,1.347,1.878,1.878,0,0,1-1.886,1.777Zm73.709-3.206a1.846,1.846,0,0,1,.438-1.363,1.884,1.884,0,0,1,1.285-.657c3.1-.26,6.251-.55,9.38-.861a1.849,1.849,0,0,1,.193-.01,1.868,1.868,0,0,1,.186,3.728c-3.137.312-6.313.6-9.439.866-.054,0-.109.007-.163.007A1.892,1.892,0,0,1,194.074,238.833Zm-102.165.972c-3.178-.353-6.351-.743-9.433-1.158a1.868,1.868,0,0,1,.253-3.721,1.908,1.908,0,0,1,.26.018c3.052.412,6.2.8,9.342,1.147a1.881,1.881,0,0,1,1.267.691,1.841,1.841,0,0,1,.4,1.375,1.881,1.881,0,0,1-1.877,1.66A2.047,2.047,0,0,1,91.909,239.805Zm130.372-3.922a1.839,1.839,0,0,1,.371-1.382,1.882,1.882,0,0,1,1.252-.717c3.14-.415,6.278-.856,9.326-1.311a2.027,2.027,0,0,1,.284-.021,1.9,1.9,0,0,1,1.867,1.591,1.838,1.838,0,0,1-.348,1.389,1.887,1.887,0,0,1-1.24.738c-3.071.457-6.23.9-9.389,1.32a2.057,2.057,0,0,1-.253.016A1.888,1.888,0,0,1,222.282,235.884Zm-158.6-.284c-3.165-.605-6.3-1.255-9.31-1.93a1.881,1.881,0,0,1-1.182-.826,1.842,1.842,0,0,1-.244-1.41,1.875,1.875,0,0,1,1.842-1.456,1.915,1.915,0,0,1,.42.048c2.989.67,6.082,1.311,9.191,1.906a1.879,1.879,0,0,1,1.208.788,1.841,1.841,0,0,1,.29,1.4,1.888,1.888,0,0,1-1.855,1.514A1.961,1.961,0,0,1,63.684,235.6ZM250.3,231.555a1.841,1.841,0,0,1,.3-1.4,1.875,1.875,0,0,1,1.212-.781c3.107-.576,6.216-1.183,9.241-1.8a1.892,1.892,0,0,1,2.236,1.45,1.837,1.837,0,0,1-.27,1.4,1.878,1.878,0,0,1-1.2.806c-3.08.631-6.213,1.243-9.314,1.818a2,2,0,0,1-.35.032A1.884,1.884,0,0,1,250.3,231.555ZM35.967,228.83c-3.108-.95-6.155-1.959-9.058-3a1.868,1.868,0,0,1-1.069-.966,1.836,1.836,0,0,1-.065-1.428,1.9,1.9,0,0,1,2.421-1.121c2.86,1.023,5.851,2.012,8.889,2.941a1.87,1.87,0,0,1,1.114.913,1.837,1.837,0,0,1,.134,1.424,1.88,1.88,0,0,1-1.806,1.317A1.915,1.915,0,0,1,35.967,228.83Zm242.07-3.16a1.839,1.839,0,0,1,.209-1.416,1.872,1.872,0,0,1,1.16-.855c3.059-.767,6.117-1.573,9.089-2.395a1.9,1.9,0,0,1,2.331,1.3,1.84,1.84,0,0,1-.173,1.421,1.878,1.878,0,0,1-1.138.884c-2.98.825-6.069,1.639-9.181,2.419a1.943,1.943,0,0,1-.466.057A1.885,1.885,0,0,1,278.037,225.671Zm27.229-7.807a1.838,1.838,0,0,1,.086-1.428,1.871,1.871,0,0,1,1.083-.949c3.023-1.034,5.989-2.107,8.814-3.19a1.9,1.9,0,0,1,2.447,1.066,1.835,1.835,0,0,1-.032,1.429,1.875,1.875,0,0,1-1.046.989c-2.867,1.1-5.877,2.188-8.946,3.238a1.9,1.9,0,0,1-2.406-1.155Zm-295.11.73a1.892,1.892,0,0,1-.85-.2c-2.936-1.467-5.761-3.013-8.4-4.6a1.858,1.858,0,0,1-.855-1.155,1.837,1.837,0,0,1,.221-1.412,1.9,1.9,0,0,1,2.6-.627c2.556,1.534,5.294,3.033,8.139,4.452a1.858,1.858,0,0,1,.943,1.083,1.838,1.838,0,0,1-.108,1.427,1.888,1.888,0,0,1-1.69,1.026Zm321.378-11.27a1.836,1.836,0,0,1-.113-1.425,1.859,1.859,0,0,1,.94-1.088c2.888-1.452,5.632-2.951,8.156-4.455a1.9,1.9,0,0,1,2.6.636,1.838,1.838,0,0,1,.217,1.412,1.862,1.862,0,0,1-.86,1.153c-2.608,1.553-5.432,3.1-8.394,4.585a1.9,1.9,0,0,1-2.542-.818Zm23.927-15.009a1.854,1.854,0,0,1,.332-2.623c2.4-1.845,4.865-3.8,7.322-5.822a1.906,1.906,0,0,1,2.663.242,1.853,1.853,0,0,1-.245,2.632c-2.489,2.044-4.985,4.029-7.419,5.9a1.908,1.908,0,0,1-2.653-.328Zm147.927-2.405c-3.186-.011-6.389-.076-9.518-.193a1.891,1.891,0,0,1-1.315-.6,1.842,1.842,0,0,1-.5-1.341,1.874,1.874,0,0,1,1.888-1.8h.074c3.093.116,6.251.18,9.387.19a1.891,1.891,0,0,1,1.336.552,1.845,1.845,0,0,1,.549,1.324,1.885,1.885,0,0,1-1.892,1.862Zm17.029-2.3a1.843,1.843,0,0,1,.472-1.352,1.885,1.885,0,0,1,1.3-.626c3.092-.186,6.242-.421,9.362-.7.057-.005.115-.008.173-.008a1.872,1.872,0,0,1,1.881,1.7,1.844,1.844,0,0,1-.431,1.365,1.888,1.888,0,0,1-1.282.665c-3.19.284-6.377.521-9.473.707-.038,0-.077,0-.116,0A1.883,1.883,0,0,1,520.418,187.609Zm-45.555.7c-3.175-.356-6.352-.777-9.444-1.25a1.881,1.881,0,0,1-1.237-.743,1.838,1.838,0,0,1-.344-1.389A1.894,1.894,0,0,1,466,183.365c3.045.466,6.172.879,9.293,1.229a1.884,1.884,0,0,1,1.267.693,1.843,1.843,0,0,1,.4,1.375,1.881,1.881,0,0,1-1.877,1.658A2.076,2.076,0,0,1,474.862,188.309Zm73.769-3.442a1.876,1.876,0,0,1,1.6-2.119c3.055-.44,6.181-.93,9.292-1.457a1.893,1.893,0,0,1,2.184,1.526,1.84,1.84,0,0,1-.32,1.395,1.885,1.885,0,0,1-1.225.763c-3.145.533-6.3,1.028-9.386,1.472a2.019,2.019,0,0,1-.275.019A1.893,1.893,0,0,1,548.631,184.867Zm-101.918-1.49c-3.1-.755-6.2-1.586-9.209-2.469a1.874,1.874,0,0,1-1.124-.9,1.842,1.842,0,0,1-.15-1.423,1.9,1.9,0,0,1,2.352-1.259c2.958.868,6,1.683,9.035,2.422a1.873,1.873,0,0,1,1.166.848,1.837,1.837,0,0,1,.218,1.413,1.882,1.882,0,0,1-1.835,1.423A1.945,1.945,0,0,1,446.714,183.376Zm129.831-3.438a1.836,1.836,0,0,1,.252-1.407,1.873,1.873,0,0,1,1.188-.82l2.445-.541c2.257-.509,4.518-1.044,6.721-1.591a1.9,1.9,0,0,1,2.3,1.356,1.836,1.836,0,0,1-.211,1.415,1.878,1.878,0,0,1-1.161.854c-2.754.685-5.63,1.357-8.548,2l-.729.159a1.948,1.948,0,0,1-.409.044A1.9,1.9,0,0,1,576.544,179.938Zm-199.4-5.7a1.853,1.853,0,0,1,.11-2.641c2.207-2.009,4.456-4.093,6.876-6.373a1.9,1.9,0,0,1,2.673.063,1.853,1.853,0,0,1-.063,2.642c-2.409,2.27-4.673,4.369-6.923,6.417a1.908,1.908,0,0,1-2.672-.108Zm43.06.518a1.906,1.906,0,0,1-.72-.141c-2.96-1.209-5.9-2.5-8.736-3.847a1.866,1.866,0,0,1-.966-1.066,1.837,1.837,0,0,1,.079-1.428,1.9,1.9,0,0,1,2.523-.876c2.776,1.315,5.65,2.58,8.544,3.762a1.871,1.871,0,0,1,1.025,1.01,1.839,1.839,0,0,1,0,1.431,1.887,1.887,0,0,1-1.748,1.155Zm183.747-1.979a1.839,1.839,0,0,1,.1-1.426,1.87,1.87,0,0,1,1.093-.937c3.035-1,6-2.055,8.812-3.133a1.9,1.9,0,0,1,2.446,1.066,1.834,1.834,0,0,1-.032,1.429,1.87,1.87,0,0,1-1.047.99c-2.873,1.1-5.9,2.175-8.983,3.193a1.917,1.917,0,0,1-.6.1A1.888,1.888,0,0,1,603.948,172.782Zm26.232-10.657a1.838,1.838,0,0,1-.154-1.422,1.859,1.859,0,0,1,.909-1.113c2.821-1.52,5.5-3.114,7.956-4.735a1.9,1.9,0,0,1,2.623.516,1.837,1.837,0,0,1,.283,1.4,1.857,1.857,0,0,1-.8,1.19c-2.557,1.686-5.331,3.338-8.246,4.908a1.914,1.914,0,0,1-.9.228A1.9,1.9,0,0,1,630.18,162.125Zm-232.555-7.268a1.853,1.853,0,0,1,.015-2.643l6.721-6.576a1.906,1.906,0,0,1,2.674.014,1.853,1.853,0,0,1-.013,2.643l-6.723,6.578a1.908,1.908,0,0,1-2.674-.016Zm255.426-9.264a1.853,1.853,0,0,1-.2-2.635,44.179,44.179,0,0,0,5.22-7.328,1.9,1.9,0,0,1,2.571-.728,1.858,1.858,0,0,1,.9,1.12,1.838,1.838,0,0,1-.165,1.421,47.9,47.9,0,0,1-5.659,7.953,1.907,1.907,0,0,1-2.667.2Zm-281.534-1.637c-2.31-2.268-4.508-4.615-6.533-6.976a1.854,1.854,0,0,1,.22-2.634,1.906,1.906,0,0,1,2.665.218c1.952,2.277,4.076,4.545,6.313,6.74a1.854,1.854,0,0,1,.009,2.644,1.909,1.909,0,0,1-2.674.009Zm46.33-8.768a1.852,1.852,0,0,1,.055-2.642c1.781-1.691,3.533-3.336,5.208-4.89l1.682-1.554a1.907,1.907,0,0,1,2.673.094,1.854,1.854,0,0,1-.1,2.641c-1.626,1.5-3.291,3.047-5.091,4.741l-1.757,1.663a1.909,1.909,0,0,1-2.674-.053ZM354.1,121.239a56.314,56.314,0,0,1-3.814-8.9,1.838,1.838,0,0,1,.122-1.426,1.87,1.87,0,0,1,1.105-.922,1.9,1.9,0,0,1,2.376,1.213,52.564,52.564,0,0,0,3.564,8.307,1.832,1.832,0,0,1,.128,1.423,1.862,1.862,0,0,1-.93,1.1,1.905,1.905,0,0,1-2.551-.792Zm308.288-2.5a32.978,32.978,0,0,0-1.494-8.722,1.839,1.839,0,0,1,.137-1.424,1.87,1.87,0,0,1,1.117-.911,1.909,1.909,0,0,1,.555-.083,1.878,1.878,0,0,1,1.807,1.322,36.654,36.654,0,0,1,1.658,9.7,1.844,1.844,0,0,1-.512,1.337,1.892,1.892,0,0,1-1.319.589h-.059A1.871,1.871,0,0,1,662.386,118.736Zm-223.639-2.5a1.854,1.854,0,0,1,.217-2.635c2.457-2.062,4.926-4.075,7.339-5.982a1.9,1.9,0,0,1,2.658.293,1.853,1.853,0,0,1-.3,2.626c-2.37,1.873-4.811,3.862-7.253,5.912a1.907,1.907,0,0,1-2.665-.215Zm23.9-16.461a1.9,1.9,0,0,1-1.557-.806,1.855,1.855,0,0,1,.48-2.6c2.623-1.792,5.3-3.543,7.944-5.2a1.905,1.905,0,0,1,2.61.576,1.836,1.836,0,0,1,.249,1.409,1.861,1.861,0,0,1-.832,1.171c-2.611,1.637-5.241,3.361-7.82,5.123a1.9,1.9,0,0,1-1.073.331ZM351.089,95.1a1.879,1.879,0,0,1-1.188-.818,1.834,1.834,0,0,1-.256-1.407,50.368,50.368,0,0,1,3.032-9.227,1.9,1.9,0,0,1,2.485-.975,1.866,1.866,0,0,1,1.009,1.025,1.842,1.842,0,0,1-.021,1.431,46.628,46.628,0,0,0-2.809,8.545,1.9,1.9,0,0,1-1.844,1.47A1.927,1.927,0,0,1,351.089,95.1Zm300.927-.716a65.648,65.648,0,0,0-6.367-6.547,1.854,1.854,0,0,1-.128-2.64,1.906,1.906,0,0,1,2.671-.125,69.36,69.36,0,0,1,6.732,6.925,1.854,1.854,0,0,1-.246,2.632,1.908,1.908,0,0,1-2.663-.244ZM485.223,84.258a1.839,1.839,0,0,1-.129-1.425,1.861,1.861,0,0,1,.928-1.1c2.8-1.447,5.674-2.857,8.543-4.189a1.9,1.9,0,0,1,2.516.9,1.833,1.833,0,0,1,.067,1.428,1.866,1.866,0,0,1-.975,1.057c-2.822,1.31-5.647,2.7-8.4,4.118a1.921,1.921,0,0,1-.875.213A1.893,1.893,0,0,1,485.223,84.258ZM630.675,77.17c-2.631-1.5-5.408-2.913-8.254-4.212a1.866,1.866,0,0,1-.982-1.051,1.838,1.838,0,0,1,.059-1.429,1.9,1.9,0,0,1,2.509-.913c2.948,1.345,5.825,2.813,8.554,4.365a1.857,1.857,0,0,1,.883,1.133,1.837,1.837,0,0,1-.187,1.418,1.9,1.9,0,0,1-2.582.688Zm-119.628-4.5a1.839,1.839,0,0,1,.055-1.428,1.871,1.871,0,0,1,1.063-.973c2.95-1.077,5.98-2.115,9.007-3.083a1.9,1.9,0,0,1,2.382,1.2,1.837,1.837,0,0,1-.115,1.425,1.876,1.876,0,0,1-1.1.929c-2.969.949-5.95,1.969-8.86,3.033a1.9,1.9,0,0,1-2.429-1.1ZM363.218,70.025a1.855,1.855,0,0,1-.259-2.631c1.952-2.344,4.135-4.714,6.489-7.043a1.906,1.906,0,0,1,2.674,0,1.853,1.853,0,0,1,0,2.643c-2.268,2.243-4.368,4.522-6.243,6.775a1.909,1.909,0,0,1-2.662.256Zm241.7-3.4c-2.969-.82-6.015-1.539-9.052-2.139a1.884,1.884,0,0,1-1.2-.8,1.838,1.838,0,0,1-.281-1.4,1.893,1.893,0,0,1,2.226-1.467c3.142.622,6.28,1.363,9.328,2.2a1.873,1.873,0,0,1,1.14.884,1.839,1.839,0,0,1,.173,1.419,1.893,1.893,0,0,1-1.82,1.366A1.921,1.921,0,0,1,604.92,66.627Zm-66.792-2.283a1.839,1.839,0,0,1,.227-1.413,1.878,1.878,0,0,1,1.171-.841c.771-.183,1.54-.362,2.286-.532,2.344-.534,4.73-1.008,7.09-1.407a1.87,1.87,0,1,1,.639,3.684c-2.3.389-4.613.849-6.879,1.366-.78.177-1.538.353-2.253.524a1.937,1.937,0,0,1-.442.051A1.881,1.881,0,0,1,538.127,64.344ZM417.684,63.32a.939.939,0,0,1-.792-.618L407.22,35.718,382.153,20.886a.914.914,0,0,1-.458-.868.926.926,0,0,1,.572-.8l.115-.04L451.006.037a.942.942,0,0,1,1.1.469.91.91,0,0,1-.007.875L418.616,62.834a.931.931,0,0,1-.828.492A1.016,1.016,0,0,1,417.684,63.32ZM409,35.093l8.959,25L448.244,4.5Zm-24-14.7L407.63,33.78,446.987,3.1ZM577.387,62.21c-2.162-.11-4.355-.165-6.518-.165-.928,0-1.869.01-2.8.03h-.043a1.89,1.89,0,0,1-1.889-1.827,1.843,1.843,0,0,1,.525-1.334,1.887,1.887,0,0,1,1.324-.576c.955-.022,1.925-.032,2.884-.032,2.224,0,4.481.057,6.708.17a1.887,1.887,0,0,1,1.307.614,1.841,1.841,0,0,1,.485,1.348,1.879,1.879,0,0,1-1.887,1.773Zm-193.818-11.6a1.854,1.854,0,0,1,.365-2.618c2.442-1.83,5.051-3.682,7.756-5.506a1.906,1.906,0,0,1,2.629.491,1.838,1.838,0,0,1,.3,1.4,1.859,1.859,0,0,1-.792,1.2c-2.644,1.782-5.2,3.6-7.6,5.4a1.909,1.909,0,0,1-2.65-.36Z" transform="translate(0.417 7.346)" fill="#ffffff"/>
    </g>
  </g>
</svg>
