<svg xmlns="http://www.w3.org/2000/svg" width="339.318" height="599.603" viewBox="0 0 339.318 599.603">
  <g id="Vector_Phone" data-name="Vector/Phone" transform="translate(1.241 1.026)">
    <path id="Color" d="M43.7,599.6A43.665,43.665,0,0,1,0,555.9V43.7A43.665,43.665,0,0,1,43.7,0H295.618a43.665,43.665,0,0,1,43.7,43.7V555.9a43.665,43.665,0,0,1-43.7,43.7ZM2.5,555.9a41.247,41.247,0,0,0,41.2,41.2H295.618a41.247,41.247,0,0,0,41.2-41.2V532.371H2.5Zm0-26.033H336.817V362.627H2.5ZM336.818,360.127V43.7a41.247,41.247,0,0,0-41.2-41.2H43.7A41.247,41.247,0,0,0,2.5,43.7V360.127H87.878c-1.033-14.444,1.8-40.34,5.331-55.942a26.639,26.639,0,0,1-3.444-3.317,1.243,1.243,0,0,1-.263-.507c-1.157-4.56,3.028-22.107,9.126-35.406l.207-.446c8.579-18.44,19.881-28.671,33.282-26.051l.407.084a20.8,20.8,0,0,1,2.029.5,54.165,54.165,0,0,1,20.106-11.868q.524-3.1.9-6.229c-19.165-2.652-33.725-21.267-33.725-43.519a49,49,0,0,1,3.191-17.518,1.248,1.248,0,0,1,.065-.229c6.1-15.715,19.773-26.089,35.151-26.089h.036c18.589,0,34.366,15.126,37.767,35.626a13.673,13.673,0,0,1,4.12,9.717l0,.375a13.54,13.54,0,0,1-5.168,11,45.333,45.333,0,0,1-9.044,17.511,122.545,122.545,0,0,0-.945,19.24,42.741,42.741,0,0,1,16.474,11.923,21.721,21.721,0,0,1,3.409-1.48,19.217,19.217,0,0,1,6.158-1.041c4.869,0,9.738,1.976,14.473,5.875,4.534,3.733,8.974,9.25,13.195,16.4l.284.484c7.116,12.221,12.809,28.382,13.144,34.666a1.248,1.248,0,0,1-.079.509,17.608,17.608,0,0,1-4.947,6.571C253.18,313.4,260.5,346.4,262.2,360.127Zm-77.141,0-.058-.446c-1.791-13.63-8.595-44.34-12.582-57.018a51.572,51.572,0,0,1-9.359,5.49,71.05,71.05,0,0,1-12.914,4.5,56.118,56.118,0,0,1-13.147,1.7h0q-.633,0-1.249-.019l.219.971c2.923,12.784,8.109,33.289,10.994,43.214l.474,1.6h37.621ZM114.133,278.516c-7.267,22.747-9.6,51.305-7.01,80.35l.114,1.261h112.21c-2.97-10.036-8.756-32.945-11.682-45.961a26.375,26.375,0,0,1-5.814-1.221,1.27,1.27,0,0,1-.483-.3c-1.627-1.638-3.808-6.71-5.833-13.568A126.552,126.552,0,0,1,191.2,277.05l-.06-.612c-.979-10.32-.215-18.854,2.272-25.366a22.842,22.842,0,0,1,7.916-10.747,40.553,40.553,0,0,0-14.173-10.5,44.727,44.727,0,0,0,1.1,6.837,1.25,1.25,0,0,1-.214,1.042c-3.332,4.458-31.57,5.123-35.23.543a1.253,1.253,0,0,1-.237-1.08q.884-3.57,1.572-7.182C135.625,236.541,122.124,253.5,114.133,278.516ZM90.327,359.292l.058.835h14.342a245.02,245.02,0,0,1,.243-49.385,47.025,47.025,0,0,1-9.563-4.922C92.095,321.06,89.464,345.354,90.327,359.292ZM193.691,276.8a125.594,125.594,0,0,0,4.126,20.843c1.825,6.38,3.832,11.374,5.237,13.035l.108.036a28.838,28.838,0,0,0,8.7,1.205,57.119,57.119,0,0,0,19.512-3.871l.576-.217a58.118,58.118,0,0,0,12.642-6.575c3.495-2.475,5.893-4.991,6.935-7.278l.1-.229-.019-.237c-.293-3.146-1.8-8.474-4.123-14.62a127.638,127.638,0,0,0-8.646-18.418l-.276-.472c-4-6.772-8.171-11.994-12.4-15.524-4.367-3.647-8.81-5.5-13.2-5.5a16.45,16.45,0,0,0-5.273.887,18.642,18.642,0,0,0-3.446,1.561,1.249,1.249,0,0,1-.715.441C195.3,247.213,191.91,259.155,193.691,276.8Zm-88.419,31.375a168.7,168.7,0,0,1,6.48-30.418c4.881-15.279,11.807-27.687,20.69-36.678l-.416-.086c-12.112-2.6-22.694,6.883-30.924,24.572l-.4.885c-5.569,12.327-9.463,28.346-8.853,32.86l.024.166.1.112a25.041,25.041,0,0,0,3.2,2.96,1.243,1.243,0,0,1,.39.3A42,42,0,0,0,105.271,308.174Zm50.064-71.761-.155.635.064.043c4.2,2.7,26.391,2.186,30.362-.49l.064-.047-.032-.139a47.227,47.227,0,0,1-1.054-7.591l-.034-.716a1.26,1.26,0,0,1-.015-.158,124.989,124.989,0,0,1,.55-17.067,35.705,35.705,0,0,1-24.84,10.383q-1.107,0-2.2-.068-.428,3.537-1.037,7.046a1.249,1.249,0,0,1-.035.2Q156.273,232.452,155.336,236.413Zm4.909-17.645c9.848,0,18.94-4.616,25.518-12.235a1.248,1.248,0,0,1,.1-.117,42.419,42.419,0,0,0,8.083-14.608,9.325,9.325,0,0,1-1.093.244,1.25,1.25,0,0,1-.4-2.468,7.078,7.078,0,0,0,2.7-1.051,1.259,1.259,0,0,1,.123-.081,10.9,10.9,0,0,0,4.377-8.872l0-.305a11.191,11.191,0,0,0-3.6-8.5,1.254,1.254,0,0,1-.2-.136,7.045,7.045,0,0,0-4.476-1.684,7.339,7.339,0,0,0-5.358,2.5,1.25,1.25,0,1,1-1.879-1.649,9.858,9.858,0,0,1,7.222-3.348,9.569,9.569,0,0,1,3.712.787c-3.982-18.117-18.252-31.144-34.824-31.154-14.334.008-26.737,9.683-32.5,23.691l.1.081a8.181,8.181,0,0,0,4.157,1.607l.321.022.4,0c.754,0,1.916-.04,3.579-.114l10.384-.516c1.075-.051,2.075-.1,3.042-.139l2.735-.112c9.422-.355,14.891-.25,16.754.583a8.21,8.21,0,0,1,3.3,3.029l.4.567c.31.448.877,1.273,1.074,1.551,2.055,2.884,3.886,4.229,7.038,4.522a7.3,7.3,0,0,1,2.574.747,1.25,1.25,0,0,1-1.127,2.232,4.776,4.776,0,0,0-1.685-.49c-3.87-.36-6.252-2.035-8.615-5.253l-.536-.758c-.359-.517-.847-1.228-.95-1.376a6.652,6.652,0,0,0-2.493-2.489c-1.418-.634-7.574-.7-17.274-.3l-2.263.1-12.259.6c-2.047.092-3.355.13-4.171.112a10.714,10.714,0,0,1-5.407-1.786,46.7,46.7,0,0,0-2.515,15.223c0,21.506,14.289,39.316,32.72,41.18l.03,0a1.262,1.262,0,0,1,.141.024Q158.716,218.768,160.244,218.768ZM85.526,468.949a1.25,1.25,0,0,1-.128-2.493l.128-.006h176.65a1.25,1.25,0,0,1,.128,2.493l-.128.006ZM77.7,406.7a1.25,1.25,0,0,1-.128-2.493l.128-.006h58.7a1.25,1.25,0,0,1,.128,2.493l-.128.006Zm0-16.389a1.25,1.25,0,0,1-.128-2.493l.128-.006h176.65a1.25,1.25,0,0,1,.128,2.493l-.128.006Z" transform="translate(-1.241 -1.026)" fill="#ffffff"/>
  </g>
</svg>
