<svg xmlns="http://www.w3.org/2000/svg" xmlns:xlink="http://www.w3.org/1999/xlink" width="840" height="475" viewBox="0 0 840 475">
  <defs>
    <clipPath>
      <rect id="Frame" width="840" height="475" rx="10" fill="none" stroke="#085ed0" stroke-miterlimit="10" stroke-width="2"/>
    </clipPath>
  </defs>
  <g id="Group_38" data-name="Group 38" transform="translate(-300 -514)">
    <g id="Vector_Envelope_Light" data-name="Vector/Envelope/Light" transform="translate(316.891 673.287)">
      <path id="Color" d="M157.624,273.665a2.142,2.142,0,0,1-1.506-.637,2.075,2.075,0,0,1-.607-1.5,2.131,2.131,0,0,1,2.138-2.081h.029c2.621.031,5.279.048,7.9.048.918,0,1.85,0,2.772-.005h.01a2.129,2.129,0,0,1,2.14,2.1,2.076,2.076,0,0,1-.62,1.493,2.143,2.143,0,0,1-1.511.625c-.948,0-1.912.006-2.867.006C162.888,273.713,160.237,273.7,157.624,273.665Zm29.984-2.43a2.073,2.073,0,0,1,.57-1.512,2.139,2.139,0,0,1,1.49-.673c3.478-.127,7.062-.287,10.655-.475.039,0,.077,0,.116,0a2.127,2.127,0,0,1,2.136,2,2.079,2.079,0,0,1-.546,1.521,2.142,2.142,0,0,1-1.478.7c-3.542.186-7.15.347-10.723.479h-.081A2.117,2.117,0,0,1,187.609,271.235Zm-51.469,1.782c-3.542-.171-7.151-.38-10.726-.621a2.138,2.138,0,0,1-1.477-.731,2.072,2.072,0,0,1-.511-1.517,2.132,2.132,0,0,1,2.133-1.964c.049,0,.1,0,.149.005,3.46.235,7.041.443,10.643.617a2.135,2.135,0,0,1,1.491.7,2.075,2.075,0,0,1,.541,1.507,2.122,2.122,0,0,1-2.136,2Zm83.54-3.613a2.071,2.071,0,0,1,.486-1.525,2.134,2.134,0,0,1,1.466-.754c3.519-.294,7.091-.621,10.616-.971.073-.007.146-.011.218-.011a2.119,2.119,0,0,1,2.127,1.9,2.073,2.073,0,0,1-.462,1.533,2.133,2.133,0,0,1-1.453.777c-3.532.351-7.127.68-10.685.977-.061,0-.122.007-.183.007A2.139,2.139,0,0,1,219.679,269.4Zm31.928-3.326a2.073,2.073,0,0,1,.411-1.546,2.134,2.134,0,0,1,1.427-.823c3.565-.47,7.116-.967,10.556-1.478a2.142,2.142,0,0,1,2.435,1.77,2.069,2.069,0,0,1-.385,1.553,2.132,2.132,0,0,1-1.412.845c-3.474.517-7.05,1.017-10.627,1.489a2.183,2.183,0,0,1-.286.019A2.136,2.136,0,0,1,251.608,266.077Zm31.715-4.883a2.074,2.074,0,0,1,.329-1.568,2.125,2.125,0,0,1,1.381-.893c3.523-.652,7.043-1.336,10.461-2.036a2.167,2.167,0,0,1,.437-.045,2.14,2.14,0,0,1,2.093,1.68,2.071,2.071,0,0,1-.3,1.573,2.126,2.126,0,0,1-1.363.92c-3.454.707-7,1.4-10.542,2.051a2.186,2.186,0,0,1-.4.036A2.131,2.131,0,0,1,283.323,261.194Zm33.472-5.048a2.134,2.134,0,0,1-2.075-1.59,2.069,2.069,0,0,1,.229-1.585,2.123,2.123,0,0,1,1.32-.976c3.471-.867,6.933-1.776,10.289-2.7a2.178,2.178,0,0,1,.579-.079,2.142,2.142,0,0,1,2.06,1.54,2.069,2.069,0,0,1-.189,1.589,2.115,2.115,0,0,1-1.294,1.009c-3.382.933-6.879,1.851-10.392,2.729a2.167,2.167,0,0,1-.526.065Zm28.747-10.4a2.068,2.068,0,0,1,.093-1.6,2.111,2.111,0,0,1,1.231-1.082c3.424-1.166,6.781-2.377,9.977-3.6a2.152,2.152,0,0,1,2.769,1.2,2.063,2.063,0,0,1-.031,1.6,2.111,2.111,0,0,1-1.189,1.127c-3.245,1.239-6.651,2.469-10.127,3.652a2.183,2.183,0,0,1-.7.116A2.141,2.141,0,0,1,345.542,245.75Zm29.734-11.889a2.066,2.066,0,0,1-.131-1.6,2.1,2.1,0,0,1,1.068-1.236c3.271-1.638,6.377-3.329,9.232-5.025a2.16,2.16,0,0,1,1.1-.3,2.136,2.136,0,0,1,1.836,1.02,2.069,2.069,0,0,1,.246,1.589,2.1,2.1,0,0,1-.974,1.306c-2.937,1.743-6.134,3.484-9.5,5.172a2.158,2.158,0,0,1-2.878-.923Zm27.084-16.931a2.085,2.085,0,0,1,.376-2.957c2.728-2.089,5.516-4.3,8.288-6.568a2.164,2.164,0,0,1,3.015.274,2.087,2.087,0,0,1-.278,2.968c-2.8,2.293-5.626,4.532-8.4,6.655a2.164,2.164,0,0,1-3-.371ZM569.8,214.218c-3.614-.013-7.239-.086-10.774-.219a2.14,2.14,0,0,1-1.5-.686,2.077,2.077,0,0,1-.557-1.5,2.119,2.119,0,0,1,2.138-2.029l.083,0c3.495.13,7.07.2,10.626.215a2.108,2.108,0,1,1-.009,4.216Zm19.275-2.595a2.076,2.076,0,0,1,.524-1.514,2.135,2.135,0,0,1,1.484-.718c3.486-.208,7.051-.473,10.6-.788.065-.006.13-.009.194-.009a2.117,2.117,0,0,1,2.13,1.919,2.076,2.076,0,0,1-.478,1.527,2.137,2.137,0,0,1-1.462.762c-3.578.318-7.186.586-10.724.8-.043,0-.087,0-.131,0A2.128,2.128,0,0,1,589.078,211.623Zm-51.566.788c-3.6-.4-7.192-.877-10.69-1.409a2.129,2.129,0,0,1-1.409-.85,2.071,2.071,0,0,1-.38-1.555,2.146,2.146,0,0,1,2.443-1.76c3.457.526,7,.993,10.518,1.386a2.129,2.129,0,0,1,1.443.794,2.073,2.073,0,0,1,.443,1.539,2.126,2.126,0,0,1-2.125,1.87A2.231,2.231,0,0,1,537.512,212.412Zm83.5-3.883a2.067,2.067,0,0,1,.393-1.552,2.128,2.128,0,0,1,1.417-.838c3.5-.5,7.036-1.056,10.517-1.644a2.156,2.156,0,0,1,.364-.031,2.127,2.127,0,0,1,2.109,1.752,2.069,2.069,0,0,1-.354,1.561,2.128,2.128,0,0,1-1.394.874c-3.526.6-7.1,1.154-10.625,1.66a2.266,2.266,0,0,1-.311.022A2.14,2.14,0,0,1,621.014,208.529Zm-115.364-1.681c-3.508-.85-7.016-1.786-10.424-2.785a2.116,2.116,0,0,1-1.278-1.028,2.063,2.063,0,0,1-.164-1.593,2.147,2.147,0,0,1,2.05-1.508,2.172,2.172,0,0,1,.611.088c3.354.981,6.795,1.9,10.228,2.731a2.122,2.122,0,0,1,1.327.968,2.071,2.071,0,0,1,.24,1.583,2.13,2.13,0,0,1-2.077,1.6A2.2,2.2,0,0,1,505.651,206.848ZM652.61,202.97a2.065,2.065,0,0,1,.278-1.576,2.125,2.125,0,0,1,1.352-.936l2.768-.61c2.577-.578,5.136-1.183,7.608-1.8a2.147,2.147,0,0,1,2.6,1.53,2.065,2.065,0,0,1-.23,1.583,2.125,2.125,0,0,1-1.322.976c-3.159.783-6.414,1.542-9.676,2.255l-.825.18a2.167,2.167,0,0,1-.463.049A2.145,2.145,0,0,1,652.61,202.97ZM426.9,196.546a2.086,2.086,0,0,1,.124-2.979c2.522-2.288,5.068-4.639,7.782-7.188a2.163,2.163,0,0,1,3.027.07,2.087,2.087,0,0,1-.072,2.981c-2.752,2.584-5.316,4.952-7.837,7.239a2.164,2.164,0,0,1-3.024-.122Zm47.925.425c-3.353-1.363-6.679-2.823-9.888-4.339a2.106,2.106,0,0,1-1.1-1.211,2.063,2.063,0,0,1,.093-1.6,2.157,2.157,0,0,1,2.856-.989c3.135,1.481,6.388,2.909,9.671,4.244a2.1,2.1,0,0,1,1.163,1.148,2.072,2.072,0,0,1,0,1.6,2.156,2.156,0,0,1-2.8,1.143Zm208.8-2.072a2.065,2.065,0,0,1,.111-1.6,2.112,2.112,0,0,1,1.243-1.068c3.432-1.128,6.788-2.318,9.975-3.534a2.154,2.154,0,0,1,2.769,1.2,2.066,2.066,0,0,1-.032,1.6,2.112,2.112,0,0,1-1.189,1.126c-3.255,1.243-6.676,2.454-10.168,3.6a2.185,2.185,0,0,1-.679.109A2.135,2.135,0,0,1,683.629,194.9Zm29.693-12.022a2.067,2.067,0,0,1-.176-1.6,2.1,2.1,0,0,1,1.031-1.264c3.191-1.714,6.221-3.511,9.005-5.342a2.161,2.161,0,0,1,2.969.582,2.072,2.072,0,0,1,.32,1.576,2.094,2.094,0,0,1-.912,1.347c-2.888,1.9-6.029,3.763-9.334,5.538a2.171,2.171,0,0,1-1.022.257A2.147,2.147,0,0,1,713.322,182.876Zm-263.236-8.2a2.086,2.086,0,0,1,.017-2.982l7.608-7.418a2.162,2.162,0,0,1,3.027.015,2.086,2.086,0,0,1-.015,2.982l-7.61,7.42a2.165,2.165,0,0,1-3.027-.017Zm289.125-10.45a2.086,2.086,0,0,1-.227-2.974,49.792,49.792,0,0,0,5.909-8.267,2.159,2.159,0,0,1,2.911-.821,2.1,2.1,0,0,1,1.021,1.273,2.069,2.069,0,0,1-.189,1.594,54.081,54.081,0,0,1-6.406,8.971,2.165,2.165,0,0,1-3.019.223Zm-318.677-1.848c-2.614-2.557-5.1-5.2-7.4-7.87a2.086,2.086,0,0,1,.249-2.971,2.164,2.164,0,0,1,3.017.246c2.21,2.569,4.614,5.127,7.146,7.6a2.085,2.085,0,0,1,.01,2.981,2.163,2.163,0,0,1-3.027.011Zm52.443-9.89a2.085,2.085,0,0,1,.061-2.981c1.97-1.864,3.954-3.721,5.9-5.516l1.9-1.753a2.164,2.164,0,0,1,3.025.106,2.085,2.085,0,0,1-.108,2.98c-1.867,1.711-3.805,3.51-5.761,5.349L476,152.551a2.164,2.164,0,0,1-3.027-.06Zm-72.161-15.734a63.281,63.281,0,0,1-4.318-10.04,2.065,2.065,0,0,1,.131-1.6,2.11,2.11,0,0,1,1.257-1.053,2.168,2.168,0,0,1,.651-.1,2.13,2.13,0,0,1,2.039,1.469,59.122,59.122,0,0,0,4.035,9.37,2.065,2.065,0,0,1,.147,1.6,2.1,2.1,0,0,1-1.055,1.246,2.175,2.175,0,0,1-.988.239A2.137,2.137,0,0,1,400.816,136.757Zm348.961-2.822a37.094,37.094,0,0,0-1.691-9.839,2.065,2.065,0,0,1,.149-1.593,2.12,2.12,0,0,1,1.271-1.04,2.158,2.158,0,0,1,.627-.094,2.127,2.127,0,0,1,2.047,1.491,41.269,41.269,0,0,1,1.877,10.942,2.077,2.077,0,0,1-.58,1.509,2.143,2.143,0,0,1-1.493.664h-.068A2.116,2.116,0,0,1,749.776,133.934Zm-253.144-2.815a2.086,2.086,0,0,1,.246-2.971c2.769-2.317,5.565-4.588,8.307-6.748a2.164,2.164,0,0,1,3.009.329,2.086,2.086,0,0,1-.335,2.963c-2.687,2.117-5.449,4.361-8.21,6.669a2.163,2.163,0,0,1-3.017-.242Zm25.288-19.477a2.071,2.071,0,0,1-.346-1.571,2.092,2.092,0,0,1,.89-1.363c2.974-2.025,6-4,8.993-5.87a2.161,2.161,0,0,1,2.954.65,2.068,2.068,0,0,1,.284,1.583,2.1,2.1,0,0,1-.943,1.327c-2.951,1.844-5.929,3.789-8.852,5.779a2.164,2.164,0,0,1-2.978-.535ZM397.41,107.269a2.121,2.121,0,0,1-1.353-.934,2.064,2.064,0,0,1-.281-1.575,56.61,56.61,0,0,1,3.431-10.409,2.154,2.154,0,0,1,2.813-1.1,2.105,2.105,0,0,1,1.145,1.167,2.064,2.064,0,0,1-.028,1.6,52.5,52.5,0,0,0-3.18,9.639,2.144,2.144,0,0,1-2.088,1.658A2.2,2.2,0,0,1,397.41,107.269Zm340.63-.807a74.261,74.261,0,0,0-7.207-7.385,2.085,2.085,0,0,1-.144-2.977,2.164,2.164,0,0,1,3.024-.142,78.445,78.445,0,0,1,7.62,7.811,2.086,2.086,0,0,1-.279,2.968,2.162,2.162,0,0,1-3.014-.275Zm-188.8-11.419a2.066,2.066,0,0,1-.149-1.6,2.1,2.1,0,0,1,1.053-1.247c3.163-1.63,6.416-3.219,9.67-4.725a2.157,2.157,0,0,1,2.848,1.012,2.068,2.068,0,0,1,.079,1.6,2.1,2.1,0,0,1-1.107,1.2c-3.188,1.474-6.385,3.037-9.506,4.645a2.17,2.17,0,0,1-.991.24A2.138,2.138,0,0,1,549.241,95.043Zm164.641-8c-2.977-1.687-6.121-3.285-9.344-4.75a2.106,2.106,0,0,1-1.114-1.2,2.069,2.069,0,0,1,.068-1.6,2.156,2.156,0,0,1,2.841-1.03c3.338,1.518,6.6,3.174,9.683,4.923a2.1,2.1,0,0,1,1,1.286,2.067,2.067,0,0,1-.213,1.592,2.16,2.16,0,0,1-2.922.777ZM578.471,81.969a2.065,2.065,0,0,1,.058-1.6,2.106,2.106,0,0,1,1.207-1.105c3.335-1.215,6.766-2.385,10.2-3.479a2.166,2.166,0,0,1,.659-.1,2.134,2.134,0,0,1,2.038,1.459,2.069,2.069,0,0,1-.125,1.6,2.118,2.118,0,0,1-1.253,1.057c-3.374,1.076-6.748,2.227-10.029,3.422a2.183,2.183,0,0,1-.742.131A2.147,2.147,0,0,1,578.471,81.969ZM411.139,78.989a2.087,2.087,0,0,1-.293-2.967c2.206-2.642,4.677-5.314,7.345-7.944a2.162,2.162,0,0,1,3.027,0,2.086,2.086,0,0,1,0,2.981c-2.568,2.531-4.945,5.1-7.068,7.643a2.165,2.165,0,0,1-3.013.289ZM684.73,75.155c-3.347-.921-6.795-1.732-10.247-2.413a2.125,2.125,0,0,1-1.37-.911,2.07,2.07,0,0,1-.31-1.57,2.138,2.138,0,0,1,2.1-1.7,2.219,2.219,0,0,1,.421.041c3.549.7,7.1,1.536,10.559,2.487a2.124,2.124,0,0,1,1.3,1.007,2.071,2.071,0,0,1,.19,1.59,2.15,2.15,0,0,1-2.637,1.463Zm-75.6-2.575A2.068,2.068,0,0,1,609.374,71a2.122,2.122,0,0,1,1.333-.96c.863-.2,1.734-.406,2.588-.6,2.642-.6,5.341-1.135,8.024-1.588a2.157,2.157,0,0,1,.365-.031,2.127,2.127,0,0,1,2.108,1.751,2.072,2.072,0,0,1-.353,1.561,2.132,2.132,0,0,1-1.4.874c-2.595.438-5.215.957-7.788,1.541-.977.222-1.787.41-2.551.591a2.2,2.2,0,0,1-.5.058A2.126,2.126,0,0,1,609.125,72.58ZM472.791,71.425a1.061,1.061,0,0,1-.9-.7L460.946,40.29,432.572,23.559a1.032,1.032,0,0,1-.518-.98,1.047,1.047,0,0,1,.648-.9l.13-.045L510.51.041a1.11,1.11,0,0,1,.409-.036,1.073,1.073,0,0,1,.833.565,1.021,1.021,0,0,1-.008.987l-37.9,69.318a1.053,1.053,0,0,1-.937.555A1.157,1.157,0,0,1,472.791,71.425Zm-9.826-31.841,10.141,28.194,34.277-62.7ZM435.8,23l25.607,15.1,44.55-34.6ZM653.565,70.172c-2.449-.123-4.931-.185-7.376-.185-1.054,0-2.12.011-3.17.034h-.049a2.136,2.136,0,0,1-2.138-2.061,2.077,2.077,0,0,1,.593-1.5,2.143,2.143,0,0,1,1.5-.65c1.083-.023,2.181-.035,3.264-.035,2.523,0,5.077.064,7.593.191a2.136,2.136,0,0,1,1.49.7,2.075,2.075,0,0,1,.538,1.508,2.124,2.124,0,0,1-2.136,2ZM434.175,57.086a2.087,2.087,0,0,1,.412-2.954c2.775-2.071,5.728-4.16,8.779-6.21a2.162,2.162,0,0,1,2.975.553,2.089,2.089,0,0,1-.562,2.93c-2.993,2.011-5.889,4.059-8.606,6.088a2.163,2.163,0,0,1-3-.406Z" transform="translate(-123.42 0)" fill="#085ed0"/>
    </g>
    <g id="Vector_Browser_Light" data-name="Vector/Browser/Light" transform="translate(300 514)">
      <g id="Group_1" data-name="Group 1">
        <g id="Frame-2" data-name="Frame" fill="none" stroke="#085ed0" stroke-miterlimit="10" stroke-width="2">
          <rect width="840" height="475" rx="10" stroke="none"/>
          <rect x="1" y="1" width="838" height="473" rx="9" fill="none"/>
        </g>
        <g id="Mask_Group_1" data-name="Mask Group 1" clip-path="url(#clip-path)">
          <rect id="Separator" width="840" height="2" transform="translate(0 65)" fill="#085ed0"/>
          <g id="Header" transform="translate(44.8 16)">
            <path id="Oval_Copy" data-name="Oval Copy" d="M13,26A13,13,0,0,1,3.808,3.808,13,13,0,1,1,22.192,22.192,12.915,12.915,0,0,1,13,26ZM13,2A11,11,0,1,0,24,13,11.012,11.012,0,0,0,13,2Z" transform="translate(734.2 4)" fill="#085ed0"/>
            <path id="Dots" d="M48,7a7,7,0,1,1,7,7A7.008,7.008,0,0,1,48,7Zm2.334,0A4.667,4.667,0,1,0,55,2.334,4.672,4.672,0,0,0,50.333,7ZM24,7a7,7,0,1,1,7,7A7.008,7.008,0,0,1,24,7Zm2.334,0A4.666,4.666,0,1,0,31,2.334,4.672,4.672,0,0,0,26.334,7ZM0,7a7,7,0,1,1,7,7A7.008,7.008,0,0,1,0,7ZM2.334,7A4.667,4.667,0,1,0,7,2.334,4.672,4.672,0,0,0,2.334,7Z" transform="translate(0 10)" fill="#085ed0"/>
            <g id="Bar" transform="translate(172.2)" fill="none" stroke="#085ed0" stroke-miterlimit="10" stroke-width="2">
              <rect width="407.4" height="34" rx="17" stroke="none"/>
              <rect x="1" y="1" width="405.4" height="32" rx="16" fill="none"/>
            </g>
          </g>
        </g>
      </g>
    </g>
  </g>
</svg>
