<svg id="Vector_Watch" data-name="Vector/Watch" xmlns="http://www.w3.org/2000/svg" width="234" height="443" viewBox="0 0 234 443">
  <g id="top_strap" transform="translate(33.04)" fill="none" stroke-linecap="square" stroke-miterlimit="10">
    <path d="M10.08,65.8l5.333-52.216A15.12,15.12,0,0,1,30.454,0H137.546a15.12,15.12,0,0,1,15.042,13.584L157.92,65.8c2,10.179,10.08,21.56,10.08,21.56H0A64.765,64.765,0,0,0,10.08,65.8Z" stroke="none"/>
    <path d="M 164.2991027832031 85.36000061035156 C 163.6103820800781 84.25141143798828 162.8019256591797 82.89495849609375 161.9570465087891 81.36273956298828 C 158.8436126708984 75.71639251708984 156.8250274658203 70.60981750488281 155.9573669433594 66.184814453125 L 155.9396820068359 66.09463500976563 L 155.9303436279297 66.00321197509766 L 150.5976257324219 13.78702640533447 C 150.2669525146484 10.54900074005127 148.7545013427734 7.564342498779297 146.3388671875 5.382868766784668 C 143.9232635498047 3.201395034790039 140.8003997802734 2.000000238418579 137.5455322265625 2.000000238418579 L 30.4544734954834 2.000000238418579 C 27.19960594177246 2.000000238418579 24.07673645019531 3.201395034790039 21.66113090515137 5.382868766784668 C 19.2455005645752 7.564342498779297 17.73305320739746 10.54900074005127 17.40236854553223 13.78702640533447 L 12.06965827941895 66.00321197509766 L 12.05307865142822 66.16542053222656 L 12.01044750213623 66.32284545898438 C 10.07728958129883 73.46065521240234 7.360894680023193 79.11021423339844 5.422526359558105 82.59268188476563 C 4.835370540618896 83.64759063720703 4.28318977355957 84.57221984863281 3.78996753692627 85.36000061035156 L 164.2991027832031 85.36000061035156 M 168 87.36000061035156 L 0 87.36000061035156 C 0 87.36000061035156 6.440000057220459 79.23999786376953 10.07999992370605 65.80000305175781 L 15.41271018981934 13.58381652832031 C 16.20068359375 5.868210792541504 22.6987361907959 3.051757744287897e-07 30.4544734954834 3.051757744287897e-07 L 137.5455322265625 3.051757744287897e-07 C 145.30126953125 3.051757744287897e-07 151.79931640625 5.868210792541504 152.5872955322266 13.58381652832031 L 157.9199981689453 65.80000305175781 C 159.9158172607422 75.97868347167969 168 87.36000061035156 168 87.36000061035156 Z" stroke="none" fill="#085ed0"/>
  </g>
  <g id="bottom_strap" transform="translate(201.04 442.96) rotate(-180)" fill="none" stroke-linecap="square" stroke-miterlimit="10">
    <path d="M10.08,65.8l5.333-52.216A15.12,15.12,0,0,1,30.454,0H137.546a15.12,15.12,0,0,1,15.042,13.584L157.92,65.8c2,10.179,10.08,21.56,10.08,21.56H0A64.765,64.765,0,0,0,10.08,65.8Z" stroke="none"/>
    <path d="M 164.2991027832031 85.36000061035156 C 163.6103820800781 84.25141143798828 162.8019256591797 82.89495849609375 161.9570465087891 81.36273956298828 C 158.8436126708984 75.71639251708984 156.8250274658203 70.60981750488281 155.9573669433594 66.184814453125 L 155.9396820068359 66.09463500976563 L 155.9303436279297 66.00321197509766 L 150.5976257324219 13.78702640533447 C 150.2669525146484 10.54900074005127 148.7545013427734 7.564342498779297 146.3388671875 5.382868766784668 C 143.9232635498047 3.201395034790039 140.8003997802734 2.000000238418579 137.5455322265625 2.000000238418579 L 30.4544734954834 2.000000238418579 C 27.19960594177246 2.000000238418579 24.07673645019531 3.201395034790039 21.66113090515137 5.382868766784668 C 19.2455005645752 7.564342498779297 17.73305320739746 10.54900074005127 17.40236854553223 13.78702640533447 L 12.06965827941895 66.00321197509766 L 12.05307865142822 66.16542053222656 L 12.01044750213623 66.32284545898438 C 10.07728958129883 73.46065521240234 7.360894680023193 79.11021423339844 5.422526359558105 82.59268188476563 C 4.835370540618896 83.64759063720703 4.28318977355957 84.57221984863281 3.78996753692627 85.36000061035156 L 164.2991027832031 85.36000061035156 M 168 87.36000061035156 L 0 87.36000061035156 C 0 87.36000061035156 6.440000057220459 79.23999786376953 10.07999992370605 65.80000305175781 L 15.41271018981934 13.58381652832031 C 16.20068359375 5.868210792541504 22.6987361907959 3.051757744287897e-07 30.4544734954834 3.051757744287897e-07 L 137.5455322265625 3.051757744287897e-07 C 145.30126953125 3.051757744287897e-07 151.79931640625 5.868210792541504 152.5872955322266 13.58381652832031 L 157.9199981689453 65.80000305175781 C 159.9158172607422 75.97868347167969 168 87.36000061035156 168 87.36000061035156 Z" stroke="none" fill="#085ed0"/>
  </g>
  <g id="Outerdial_Copy" data-name="Outerdial Copy" transform="translate(0 85.12)" fill="none" stroke="#085ed0" stroke-linecap="square" stroke-miterlimit="10" stroke-width="2">
    <rect width="233.52" height="272.72" rx="45.36" stroke="none"/>
    <rect x="1" y="1" width="231.52" height="270.72" rx="44.36" fill="none"/>
  </g>
  <g id="Inner_dial_Copy" data-name="Inner dial Copy" transform="translate(11.2 96.32)" fill="none" stroke="#085ed0" stroke-linecap="square" stroke-miterlimit="10" stroke-width="2">
    <rect width="211.12" height="249.2" rx="33.04" stroke="none"/>
    <rect x="1" y="1" width="209.12" height="247.2" rx="32.04" fill="none"/>
  </g>
</svg>
